<?xml version="1.0" encoding="UTF-8" standalone="no"?>
<svg
   xmlns:dc="http://purl.org/dc/elements/1.1/"
   xmlns:cc="http://creativecommons.org/ns#"
   xmlns:rdf="http://www.w3.org/1999/02/22-rdf-syntax-ns#"
   xmlns:svg="http://www.w3.org/2000/svg"
   xmlns="http://www.w3.org/2000/svg"
   id="svg129"
   version="1.1"
   viewBox="0 0 220.23857 370.1267"
   height="370.12671"
   width="220.23857">
  <metadata
     id="metadata133">
    <rdf:RDF>
      <cc:Work
         rdf:about="">
        <dc:format>image/svg+xml</dc:format>
        <dc:type
           rdf:resource="http://purl.org/dc/dcmitype/StillImage" />
        <dc:title></dc:title>
      </cc:Work>
    </rdf:RDF>
  </metadata>
  <defs
     id="defs4">
    <clipPath
       id="clip-path">
      <path
         transform="translate(-55.951,99.725)"
         d="M 73.369,-22.1 C 64.944,-22.445 58.832,-29.176 56.684,-50.059 55.2,-64.9 55.2,-77.843 64.283,-90.96 c 1.982,-2.934 5.617,-6.558 9.086,-7.766 4.626,-1.726 9.251,-0.69 11.894,-0.69 3.8,0 5.121,7.594 11.068,8.975 5.121,1.208 3.8,5.178 3.634,5.7 -1.651,7.241 -10.076,21.913 -15.528,36.41 -2.477,6.386 -4.625,26.579 -11.068,26.231 z"
         data-name="Caminho 794"
         id="Caminho_794" />
    </clipPath>
  </defs>
  <g
     transform="translate(0,-2.9012864)"
     id="g1128">
    <ellipse
       style="fill:#e5e5e5"
       ry="11.287"
       rx="78.123001"
       cy="361.741"
       cx="114.197"
       id="Oval-2_1_" />
    <g
       transform="translate(0,156.772)"
       data-name="Grupo 3446"
       id="Grupo_3446">
      <path
         style="fill:#7e9b8b"
         transform="translate(19.374,-105.523)"
         d="M 31.306,256.713 C 30.864,210.459 43.478,133.885 43.7,133 l 1.549,0.221 c -0.221,0.664 -12.836,77.238 -12.393,123.271 z"
         id="Path-16" />
      <path
         style="fill:#b6ccc0"
         transform="translate(-2.698,-24.487)"
         d="M 41.649,221.71 H 36.78 c -0.221,-0.221 -0.221,-0.443 -0.443,-0.443 l -1.107,-1.549 -1.107,-1.549 a 29.754,29.754 0 0 1 -2.434,-3.1 67.941,67.941 0 0 0 -5.533,-5.754 78.852,78.852 0 0 0 -13.056,-9.515 80.443,80.443 0 0 1 14.164,7.967 72,72 0 0 1 6.418,5.09 36.754,36.754 0 0 1 3.1,2.877 l 1.549,1.549 1.328,1.549 c 0.441,0.886 1.326,1.768 1.99,2.878 z"
         id="Path-17" />
      <path
         style="fill:#7e9b8b"
         transform="translate(-8.4,-40.622)"
         d="m 56.867,237.844 h -5.975 a 121.162,121.162 0 0 0 -9.074,-15.713 l -0.885,-1.328 -0.885,-1.328 -1.77,-2.434 c -1.107,-1.549 -2.434,-3.32 -3.762,-4.869 -2.656,-3.1 -5.09,-6.2 -7.967,-9.3 -2.877,-2.877 -5.754,-5.975 -8.631,-8.631 -0.664,-0.664 -1.549,-1.328 -2.213,-1.992 A 23.514,23.514 0 0 0 13.271,190.257 40.71,40.71 0 0 0 8.4,186.5 c 1.77,1.107 3.541,2.213 5.09,3.32 a 23.182,23.182 0 0 1 2.434,1.77 16.889,16.889 0 0 0 2.434,1.771 c 3.32,2.434 6.418,5.311 9.516,7.967 3.1,2.877 5.975,5.754 8.852,8.852 1.328,1.549 2.877,3.1 4.2,4.648 l 1.992,2.434 1.107,1.107 0.885,1.328 a 43.2,43.2 0 0 1 3.762,5.09 c 1.107,1.771 2.434,3.32 3.541,5.09 a 32.766,32.766 0 0 1 1.77,2.877 c 0.443,0.885 1.107,1.77 1.549,2.656 a 24.134,24.134 0 0 1 1.335,2.434 z"
         id="Path-18" />
      <path
         style="fill:#b6ccc0"
         transform="translate(-2.941,-48.628)"
         d="M 56.056,245.851 H 50.3 v -0.443 c -0.221,-1.107 -0.664,-2.213 -0.885,-3.1 l -0.443,-1.549 -0.443,-1.549 -1.107,-3.1 c -0.443,-1.107 -0.664,-1.992 -1.107,-3.1 l -1.107,-3.1 -2.656,-5.975 a 181.54,181.54 0 0 0 -13.5,-22.8 c -5.09,-7.3 -10.4,-14.385 -16.156,-21.246 6.2,6.418 12.172,13.057 17.7,19.918 a 218.163,218.163 0 0 1 15.271,22.131 l 0.885,1.549 a 12.691,12.691 0 0 0 0.885,1.549 l 1.549,3.1 1.549,3.1 c 0.443,1.107 0.885,1.992 1.328,3.1 l 1.328,3.1 0.885,2.213 0.443,0.885 c 0.221,0.443 0.221,0.664 0.443,1.107 l 0.664,1.992 a 3.64,3.64 0 0 0 0.23,2.218 z"
         id="Path-19" />
      <path
         style="fill:#b6ccc0"
         transform="translate(5.066,-49.963)"
         d="m 52.918,247.407 h -5.533 a 28.458,28.458 0 0 0 -0.885,-4.2 c -0.221,-1.328 -0.443,-2.434 -0.664,-3.762 -0.221,-0.664 -0.221,-1.328 -0.443,-1.992 -0.443,-2.213 -0.885,-4.2 -1.328,-6.2 -0.221,-1.107 -0.443,-1.992 -0.664,-3.1 a 16.3,16.3 0 0 0 -0.885,-3.1 c -0.443,-1.992 -1.328,-3.984 -1.992,-5.975 C 39.86,217.087 38.975,215.1 38.09,213.1 l -2.656,-5.975 a 46.516,46.516 0 0 0 -2.877,-5.754 c -1.992,-3.762 -3.984,-7.746 -6.2,-11.508 -2.216,-3.762 -4.423,-7.522 -6.857,-11.063 2.656,3.32 5.09,7.082 7.525,10.623 2.435,3.541 4.869,7.3 7.082,11.066 1.107,1.77 2.213,3.762 3.32,5.754 1.107,1.992 2.213,3.762 3.1,5.754 1.107,1.992 1.992,3.984 2.877,5.975 a 51.541,51.541 0 0 1 2.434,6.2 c 0.221,0.443 0.221,0.664 0.443,0.885 v 0 c 0.221,0.664 0.443,1.328 0.664,2.213 0.443,1.107 0.664,1.992 1.107,3.1 a 4.1,4.1 0 0 1 0.443,1.549 l 1.328,4.648 c 0.664,1.992 1.107,3.984 1.77,5.975 0.44,1.324 0.882,3.094 1.325,4.865 z"
         id="Path-20" />
      <path
         style="fill:#b6ccc0"
         transform="translate(19.502,-80.169)"
         d="m 49.769,153.9 c -0.885,4.869 -1.77,9.516 -2.656,14.385 -1.328,7.746 -2.656,15.492 -3.762,23.238 -1.992,12.615 -3.762,25.23 -5.09,37.623 a 178.711,178.711 0 0 0 -1.107,18.812 v 18.812 a 46.259,46.259 0 0 0 0.221,5.533 39.178,39.178 0 0 0 0.221,5.09 H 31.4 v -10.624 c 0.221,-3.984 0.221,-7.967 0.443,-11.951 v 0 c 0,-1.77 0.221,-3.32 0.221,-5.09 a 8.3,8.3 0 0 1 0.221,-2.213 33.017,33.017 0 0 1 0.443,-4.648 v 0 c 0.221,-2.213 0.443,-4.648 0.664,-6.861 a 1.33,1.33 0 0 1 0.221,-0.885 v 0 c 0.221,-2.213 0.664,-4.426 0.885,-6.418 1.992,-12.615 4.426,-25.23 6.861,-37.623 1.549,-7.525 3.32,-15.271 4.869,-22.8 1.106,-4.864 2.213,-9.732 3.541,-14.38 z"
         id="Path-21" />
      <path
         style="fill:#b6ccc0"
         transform="translate(23.748,-59.304)"
         d="m 53.712,171.1 c -3.1,9.074 -5.754,18.369 -7.967,27.664 -1.107,4.648 -2.213,9.3 -2.877,13.943 -0.664,4.643 -1.328,9.516 -1.549,14.164 -0.443,9.516 -0.664,19.033 -0.664,28.771 v 1.328 H 34.9 v -1.328 c 0.221,-3.762 0.443,-7.525 0.885,-11.287 0.443,-5.754 1.107,-11.73 1.771,-17.484 0.664,-4.869 1.328,-9.738 2.434,-14.385 1.106,-4.647 2.434,-9.3 3.762,-13.943 3.099,-9.517 6.419,-18.591 9.96,-27.443 z"
         id="Path-22" />
      <path
         style="fill:#b6ccc0"
         transform="translate(27.508,-39.53)"
         d="m 63.008,187.4 a 83.537,83.537 0 0 0 -5.754,8.631 c -1.77,2.877 -3.32,5.975 -4.869,9.074 a 71.945,71.945 0 0 0 -3.984,9.516 41.3,41.3 0 0 0 -1.549,4.869 c -0.221,0.885 -0.443,1.549 -0.664,2.434 -0.221,0.885 -0.443,1.549 -0.664,2.434 a 84.956,84.956 0 0 0 -2.434,13.057 c -1.77,0 -3.32,-0.221 -5.09,-0.221 q 1.66,-6.971 3.984,-13.943 c 0.221,-0.885 0.664,-1.549 0.885,-2.434 0.221,-0.885 0.664,-1.549 0.885,-2.434 a 47.35,47.35 0 0 1 2.213,-4.869 c 1.549,-3.1 3.1,-6.2 4.869,-9.3 1.769,-3.1 3.762,-5.975 5.754,-8.852 a 72.248,72.248 0 0 1 6.418,-7.962 z"
         id="Path-23" />
      <path
         style="fill:#7e9b8b"
         transform="translate(31.148,-29.582)"
         d="m 64.68,195.6 a 115.413,115.413 0 0 0 -9.959,13.279 76.072,76.072 0 0 0 -7.521,14.606 l -0.664,1.992 -0.664,1.992 -0.221,0.443 c -1.549,0 -3.1,-0.221 -4.648,-0.221 0.221,-0.443 0.443,-1.107 0.664,-1.549 0.221,-0.664 0.664,-1.328 0.885,-1.992 0.221,-0.664 0.664,-1.328 0.885,-1.992 a 75.551,75.551 0 0 1 9.516,-14.164 73.673,73.673 0 0 1 5.533,-6.2 z"
         id="Path-24" />
      <path
         style="fill:#b6ccc0"
         transform="translate(34.908,-19.877)"
         d="m 57.157,203.6 a 45.8,45.8 0 0 0 -6.861,9.3 c -0.885,1.771 -1.77,3.32 -2.656,5.09 a 0.217,0.217 0 0 1 -0.221,0.221 l -3.32,-0.221 a 6.725,6.725 0 0 1 1.107,-1.549 c 1.107,-1.549 2.434,-3.32 3.541,-4.869 a 57.639,57.639 0 0 1 8.41,-7.972 z"
         id="Path-25" />
      <path
         style="fill:#667c6f"
         transform="translate(25.306,-120.585)"
         d="M 38.653,148.725 H 38.21 a 2.611,2.611 0 0 1 -1.992,-3.1 v 0 l 4.2,-23.016 a 2.611,2.611 0 0 1 3.1,-1.992 h 0.443 a 2.611,2.611 0 0 1 1.992,3.1 l -4.2,23.016 a 2.611,2.611 0 0 1 -3.1,1.992 z"
         id="Path-26" />
      <path
         style="fill:#7e9b8b"
         transform="translate(4.823,-87.084)"
         d="M 47.628,252.659 A 257.7,257.7 0 0 0 19.3,148.864 l 1.328,-0.664 a 256.52,256.52 0 0 1 28.549,104.459 z"
         id="Path-27" />
      <path
         style="fill:#667c6f"
         transform="translate(-2.356,-101.178)"
         d="m 26.921,162.958 -0.443,0.221 a 2.364,2.364 0 0 1 -3.32,-1.328 l -9.516,-21.467 a 2.364,2.364 0 0 1 1.328,-3.32 l 0.443,-0.221 a 2.364,2.364 0 0 1 3.32,1.328 l 9.516,21.467 a 2.487,2.487 0 0 1 -1.328,3.32 z"
         id="Path-28" />
      <path
         style="fill:#7e9b8b"
         transform="translate(9.069,-70.1)"
         d="m 53.12,267.544 h -5.976 a 47.93,47.93 0 0 0 -0.885,-5.533 c -0.443,-3.32 -1.107,-6.861 -1.549,-10.18 -0.443,-2.213 -0.664,-4.426 -1.107,-6.639 l -0.885,-5.311 -0.443,-3.1 -0.664,-4.2 -0.885,-4.2 c -1.107,-5.533 -2.434,-11.066 -3.762,-16.6 -1.328,-5.534 -2.877,-11.066 -4.426,-16.6 -3.1,-11.066 -6.2,-21.91 -9.738,-32.754 v 0 c 3.984,10.623 7.967,21.246 11.508,32.09 1.77,5.311 3.541,10.844 5.311,16.377 0.664,2.434 1.328,4.648 1.992,7.082 v 0 0.221 0 c 0.221,1.107 0.664,2.213 0.885,3.32 l 1.328,4.648 c 0.221,0.443 0.221,0.885 0.443,1.328 v 0 0.221 l 1.107,4.2 0.885,4.2 1.107,5.311 0.664,3.1 c 0.885,3.541 1.549,7.082 2.213,10.844 l 1.328,5.975 a 42.2,42.2 0 0 1 1.549,6.2 z"
         id="Path-29" />
    </g>
    <path
       style="fill:#d3d3d3"
       d="m 4.868,50.576 c 0,0 7.082,-18.148 20.139,-20.361 13.057,-2.213 21.689,9.3 21.689,9.074 0,-0.226 11.951,-15.049 22.131,-16.823 10.18,-1.774 19.033,9.52 19.033,9.52 0,0 -13.279,-5.311 -18.148,-4.2 -4.869,1.111 -22.573,18.364 -22.573,18.364 0,0 -11.071,-10.845 -21.471,-10.623 -6.636,0.221 -20.8,15.049 -20.8,15.049 z"
       id="Path-30" />
    <path
       style="fill:#d3d3d3"
       d="m 42.935,75.585 c 0,0 5.533,-9.738 13.057,-10.18 7.525,-0.221 11.73,7.082 11.73,6.861 0,-0.221 7.967,-7.746 14.164,-7.967 5.975,-0.221 10.18,6.861 10.18,6.861 0,0 -7.3,-4.2 -9.959,-3.762 -2.877,0.221 -14.385,8.852 -14.385,8.852 0,0 -5.533,-7.082 -11.508,-7.746 -3.979,-0.444 -13.279,7.081 -13.279,7.081 z"
       id="Path-31" />
    <g
       transform="translate(53.307,0.449)"
       data-name="Grupo 3469"
       id="Grupo_3469">
      <g
         transform="matrix(0.489,0.872,-0.872,0.489,162.623,0)"
         data-name="Grupo 3450"
         id="Grupo_3450">
        <g
           transform="translate(11.151,17.53)"
           data-name="Grupo 3447"
           id="Grupo_3447">
          <path
             style="fill:#f73c60;fill-rule:evenodd"
             d="M 39.871,39.316 C 50.143,59.942 51.79,88.458 59.053,88.348 70.432,88.321 75.99,90.993 69.072,63.971 54.94,7.936 17.368,4.043 6.244,0.875 6.244,0.875 -0.1,-1.749 0,2.093 -0.446,9.317 30.739,21.466 39.871,39.316 Z"
             data-name="Caminho 761"
             id="Caminho_761" />
        </g>
        <g
           transform="translate(57.461,73.934)"
           data-name="Grupo 3448"
           id="Grupo_3448">
          <path
             style="fill:#ffbe2c;fill-rule:evenodd"
             d="M 0,7.614 A 68.58,68.58 0 0 1 5.947,36.985 C 5.85,44.163 36.635,44.2 36.635,44.2 A 164.935,164.935 0 0 0 34.528,25.5 C 32.413,13.5 26.359,0.684 26.29,0.743 19.437,-2.825 0,7.614 0,7.614 Z"
             data-name="Caminho 762"
             id="Caminho_762" />
        </g>
        <g
           data-name="Grupo 3449"
           id="Grupo_3449">
          <path
             style="fill:#f73c60;fill-rule:evenodd"
             d="m 10.921,23.374 v 0 c -1.3,1.06 -3.205,2.741 -3.205,2.741 -0.423,0.513 -0.915,1.319 -1.091,1.428 -0.845,1.025 -0.387,0.99 -0.281,1.175 1.023,1.364 3.065,-0.9 6.413,-1.734 0.634,-0.144 1.55,-0.213 2.185,-0.357 0.67,0.334 6.239,2.123 6.8,2.273 0.282,0.075 8.842,-4.994 6.233,-6.623 C 21,17.614 17.153,15.5 16.236,14.322 A 42.224,42.224 0 0 1 12.813,7.949 C 11.931,6 10.024,0.182 9.778,0.585 9.355,1.1 9.5,1.76 9.356,2.347 a 51.98,51.98 0 0 0 1.026,6.362 7.867,7.867 0 0 0 0.706,2.061 4.509,4.509 0 0 1 0.353,1.031 L 10.912,10.88 C 10.594,10.327 10.347,9.48 10.03,8.928 8.971,7.086 6.888,1.38 6.183,0.568 6.077,0.384 5.76,-0.168 5.407,0.05 4.985,0.563 6.045,4.9 6.5,6.119 a 54.525,54.525 0 0 1 1.8,5.631 c 0,0 0.318,0.553 0.141,0.662 C 8.264,12.521 7.947,11.969 7.947,11.969 7.453,11.526 1.847,1.762 1.597,2.169 1.104,2.975 1.563,4.19 1.81,5.036 2.452,7.386 3.9,9.488 4.992,11.808 l 1.27,2.211 0.529,0.921 -0.318,-0.553 C 6.085,14.128 5.944,13.466 5.45,13.023 A 57.285,57.285 0 0 1 1.958,8.193 C 1.536,7.456 0.477,5.613 0.125,5.832 -0.756,6.379 3.267,13.38 4.289,14.744 a 61.1,61.1 0 0 0 6.632,8.63 z M 6.7,28.5"
             data-name="Caminho 763"
             id="Caminho_763" />
        </g>
      </g>
      <g
         transform="translate(69.009,104.639)"
         data-name="Grupo 3451"
         id="Grupo_3451">
        <path
           style="fill:#f73c60"
           transform="translate(-63.668,-97.232)"
           d="m 63.668,159.3 c 0,0 0.5,-32.391 0.361,-34.786 -0.533,-9.124 -0.7,-17.243 3.724,-20.868 2.416,-2.021 5.433,-4.711 9.156,-6.132 1.982,-0.75 10.918,-0.139 15.666,3.363 3.192,2.325 5.209,12.368 6.1,19.023 1.111,8.369 0.668,31.252 0.668,31.252 -3.4,8.547 -31.125,13.781 -35.679,8.148"
           data-name="Caminho 764"
           id="Caminho_764" />
      </g>
      <g
         transform="translate(103.672,343.487)"
         data-name="Grupo 3452"
         id="Grupo_3452">
        <path
           style="fill:#f73c60;fill-rule:evenodd"
           transform="translate(-79.331,-205.155)"
           d="m 79.554,209.748 c -0.394,2.781 -0.285,12.369 0.475,14.126 1.046,2.441 9.537,1.891 10.049,0.392 0.77,-2.1 -3.694,-3.647 -3.791,-8.292 a 26.826,26.826 0 0 0 -1.64,-9.246 c -1.143,-2.735 -3.832,-1.567 -4.5,0.926 z"
           data-name="Caminho 765"
           id="Caminho_765" />
      </g>
      <g
         transform="translate(12.887,333.209)"
         data-name="Grupo 3453"
         id="Grupo_3453">
        <path
           style="fill:#f73c60;fill-rule:evenodd"
           transform="translate(-38.31,-200.511)"
           d="m 45.69,201.47 c 2.063,-3.5 8.487,3.7 8.487,3.7 0.052,3.839 -3.21,8.51 -4.735,11.82 -0.371,0.761 0.468,4.453 -1.269,5.814 -3.495,2.855 -10.623,3.617 -9.8,2.383 A 53.833,53.833 0 0 0 43.09,213.5 c 1.088,-3.793 0.681,-8.647 2.6,-12.03 z"
           data-name="Caminho 766"
           id="Caminho_766" />
      </g>
      <g
         transform="translate(0,348.775)"
         data-name="Grupo 3455"
         id="Grupo_3455">
        <path
           style="fill:#000bac;fill-rule:evenodd"
           transform="translate(-32.487,-207.544)"
           d="m 46.936,208.379 c 0,0 0.008,5.035 -11.849,11.211 a 10.934,10.934 0 0 1 -2.43,1.072 15.716,15.716 0 0 0 -0.119,3.247 c 1.046,0.782 3.321,-0.007 4.531,-0.2 4.24,-1.013 8.636,-2.309 12.066,-4.874 3.049,-2.2 7.726,-1.994 10.847,-3.993 -0.136,-1.1 0.028,-2.071 -0.109,-3.168 a 21.6,21.6 0 0 0 -1.765,-3.51 c -0.437,-1.223 -2.184,-0.387 -2.948,0.336 a 11.346,11.346 0 0 1 -1.611,1.933 c -1.065,0.6 -2.348,0.586 -3.485,0.98 a 9.9,9.9 0 0 0 -2.057,1.4 c 0.391,-1.052 1.238,-2.262 1.1,-3.359 -0.073,-0.2 -0.064,-0.894 -0.364,-1.019 -0.369,-0.325 -1.279,-0.01 -1.807,-0.056 z"
           data-name="Caminho 767"
           id="Caminho_767" />
        <g
           data-name="Grupo 3454"
           id="Grupo_3454">
          <path
             style="fill:#5d5de8"
             transform="translate(-32.487,-207.544)"
             d="m 46.936,208.379 c 0,0 0.008,5.035 -11.849,11.211 a 10.934,10.934 0 0 1 -2.43,1.072 15.716,15.716 0 0 0 -0.119,3.247 c 1.046,0.782 3.321,-0.007 4.531,-0.2 4.24,-1.013 8.636,-2.309 12.066,-4.874 3.049,-2.2 7.726,-1.994 10.847,-3.993 -0.136,-1.1 0.028,-2.071 -0.109,-3.168 a 21.6,21.6 0 0 0 -1.765,-3.51 c -0.437,-1.223 -2.184,-0.387 -2.948,0.336 a 11.346,11.346 0 0 1 -1.611,1.933 c -1.065,0.6 -2.348,0.586 -3.485,0.98 a 9.9,9.9 0 0 0 -2.057,1.4 c 0.391,-1.052 1.238,-2.262 1.1,-3.359 -0.073,-0.2 -0.064,-0.894 -0.364,-1.019 -0.369,-0.325 -1.279,-0.01 -1.807,-0.056 z"
             data-name="Caminho 768"
             id="Caminho_768" />
        </g>
      </g>
      <g
         transform="translate(102.472,357.148)"
         data-name="Grupo 3457"
         id="Grupo_3457">
        <path
           style="fill:#000bac;fill-rule:evenodd"
           transform="translate(-78.789,-211.328)"
           d="m 85.924,211.328 c 0,0 1.138,3.429 9.908,4.682 0.639,-0.019 1.283,0.178 1.71,0.165 0.227,0.643 0.671,1.5 0.9,2.354 -0.413,0.662 -1.9,0.922 -2.753,0.948 a 18.97,18.97 0 0 1 -8.534,-0.178 c -2.363,-0.8 -5.106,0.585 -7.677,0.013 a 7.705,7.705 0 0 1 -0.689,-2.36 c -0.023,-1.082 0.173,-1.953 0.15,-3.035 -0.023,-1.082 1.261,-0.9 1.909,-0.49 a 2.128,2.128 0 0 0 1.51,0.821 c 0.857,0.191 1.487,-0.261 2.34,-0.286 a 3.027,3.027 0 0 1 1.5,0.388 4.887,4.887 0 0 1 -1.537,-2.119 c 0,-0.216 -0.227,-0.643 -0.014,-0.649 a 3.14,3.14 0 0 1 1.277,-0.254 z"
           data-name="Caminho 769"
           id="Caminho_769" />
        <g
           data-name="Grupo 3456"
           id="Grupo_3456">
          <path
             style="fill:#5d5de8"
             transform="translate(-78.789,-211.328)"
             d="m 85.924,211.328 c 0,0 1.138,3.429 9.908,4.682 0.639,-0.019 1.283,0.178 1.71,0.165 0.227,0.643 0.671,1.5 0.9,2.354 -0.413,0.662 -1.9,0.922 -2.753,0.948 a 18.97,18.97 0 0 1 -8.534,-0.178 c -2.363,-0.8 -5.106,0.585 -7.677,0.013 a 7.705,7.705 0 0 1 -0.689,-2.36 c -0.023,-1.082 0.173,-1.953 0.15,-3.035 -0.023,-1.082 1.261,-0.9 1.909,-0.49 a 2.128,2.128 0 0 0 1.51,0.821 c 0.857,0.191 1.487,-0.261 2.34,-0.286 a 3.027,3.027 0 0 1 1.5,0.388 4.887,4.887 0 0 1 -1.537,-2.119 c 0,-0.216 -0.227,-0.643 -0.014,-0.649 a 3.14,3.14 0 0 1 1.277,-0.254 z"
             data-name="Caminho 770"
             id="Caminho_770" />
        </g>
      </g>
      <g
         transform="translate(75.979,172.332)"
         data-name="Grupo 3458"
         id="Grupo_3458">
        <path
           style="fill:#132951"
           transform="translate(-66.818,-127.819)"
           d="m 98.945,229.327 v 0 c 0,0 3.2,-37.126 4.231,-49.5 0.881,-10.664 -3.817,-61.541 -17.206,-50.431 -15.376,12.941 -22.81,27.778 -17.386,52.446 1.965,8.707 8.124,42.337 10.639,55.657 -4.54,9.323 -4.21,21.049 0.462,28.983 0,0 13.4,42.107 14.479,43.695 1.8,2.514 7.734,-0.872 7.734,-0.872 1.727,-0.912 -2.962,-79.319 -2.953,-79.978 z"
           data-name="Caminho 771"
           id="Caminho_771" />
      </g>
      <g
         transform="translate(17.297,177.812)"
         data-name="Grupo 3459"
         id="Grupo_3459">
        <path
           style="fill:#132951"
           transform="translate(-40.302,-130.295)"
           d="m 78.738,224.911 v 0 c 0,0 20.29,-31.119 26.909,-41.446 5.776,-8.937 25.66,-56.094 8.913,-53.027 -19.376,3.607 -32.942,13.09 -39.672,37.491 C 72.69,175.8 63.957,203.155 59.337,218 c -14.252,25.309 -18.96,74.567 -19.034,76.756 -0.095,3.428 8.987,5.234 10.744,3.031 0,0 19,-36.234 23.659,-48.436 2.825,-7.813 4.032,-24.44 4.032,-24.44 z"
           data-name="Caminho 772"
           id="Caminho_772" />
      </g>
      <g
         transform="translate(59.942,104.37)"
         data-name="Grupo 3460"
         id="Grupo_3460">
        <path
           style="fill:#ffbe2c"
           transform="translate(-59.572,-97.11)"
           d="m 97.51,100.784 c 0,0 3.24,6.833 -2.255,8.5 -13.059,4.081 -13.5,-12.17 -13.5,-12.17 -3.07,0.607 -8.726,2.321 -10.46,3.344 a 13.931,13.931 0 0 0 -6.809,9.109 25.318,25.318 0 0 0 -0.147,5.293 299.1,299.1 0 0 1 -4.607,70.794 c -0.17,0.991 -0.351,2.267 0.341,2.888 a 2.591,2.591 0 0 0 1.278,0.528 c 17.759,2.66 33.337,11.17 50.921,4.424 -0.336,-5.138 -0.5,-10.613 -0.711,-16.26 -0.368,-12.716 -0.775,-39.846 -1.684,-52.951 -1.42,-21.472 -12.367,-23.499 -12.367,-23.499 z"
           data-name="Caminho 773"
           id="Caminho_773" />
      </g>
      <g
         transform="translate(64.358,48.74)"
         data-name="Grupo 3461"
         id="Grupo_3461">
        <path
           style="fill:#132951"
           transform="translate(-61.567,-71.974)"
           d="m 85.078,124.9 c -1.379,3.385 -9.546,-2.444 -12.263,-3.992 -2.715,-1.457 -5.36,-3.837 -5.586,-7.551 a 6.779,6.779 0 0 0 -0.2,-2.256 c -0.263,-0.695 -0.942,-1.059 -1.454,-1.537 -3.573,-2.527 -4.084,-8.395 -4,-13.7 a 8.2,8.2 0 0 1 0.7,-3.749 8.863,8.863 0 0 1 2.978,-3.329 c 7.906,-5.735 15.768,-3.427 23.675,-9.071 2.332,-1.6 4.4,-3.8 6.732,-5.484 2.332,-1.684 5.006,-2.783 7.29,-2 2.284,0.783 3.681,4.065 2.294,6.9 a 10.2,10.2 0 0 1 -4.066,3.751 c 3.2,0.386 4.869,4.726 4.088,8.668 a 17.127,17.127 0 0 1 -6.582,9.757 c -2.246,1.676 -4.836,2.942 -6.735,5.3 -3.303,4.018 -4.843,13.362 -6.871,18.293 z"
           data-name="Caminho 774"
           id="Caminho_774" />
      </g>
      <g
         transform="translate(82.601,89.341)"
         data-name="Grupo 3462"
         id="Grupo_3462">
        <path
           style="fill:#f73c60"
           transform="translate(-69.81,-90.319)"
           d="m 78.272,115.82 c -7.867,-1.771 -8.462,-9.754 -8.462,-9.754 l 3.493,-11.6 c 0.647,-3.437 4.528,-5.035 8.389,-3.642 3.861,1.393 4.521,6.016 3.956,9.442 l -1.437,12.69 c -0.74,3.356 -3.866,3.315 -5.939,2.864 z"
           data-name="Caminho 775"
           id="Caminho_775" />
      </g>
      <g
         transform="translate(71.404,62.165)"
         data-name="Grupo 3463"
         id="Grupo_3463">
        <path
           style="fill:#f73c60"
           transform="translate(-64.751,-78.039)"
           d="m 99.775,113.756 c -1.964,9.127 -14.141,5.215 -18.54,3.713 -6.6,-2.207 -21.257,-19.756 -14.937,-30.207 6.321,-10.36 21.041,-10.721 27.069,-7.25 5.859,3.495 7.824,27.34 6.408,33.744 z"
           data-name="Caminho 776"
           id="Caminho_776" />
      </g>
      <g
         transform="translate(74.562,86.753)"
         data-name="Grupo 3464"
         id="Grupo_3464">
        <path
           style="fill:#f73c60"
           transform="translate(-66.178,-89.15)"
           d="m 74.331,90.669 c 2.139,2.266 2.77,5.012 1.691,5.981 -3.734,3.432 -6.339,3.695 -8.393,1.417 -2.139,-2.266 -1.761,-5.058 0.143,-7.144 1.904,-2.086 4.505,-2.532 6.56,-0.254"
           data-name="Caminho 777"
           id="Caminho_777" />
      </g>
      <g
         transform="translate(67.908,60.514)"
         data-name="Grupo 3465"
         id="Grupo_3465">
        <path
           style="fill:#132951"
           transform="translate(-63.171,-77.293)"
           d="m 95.5,79 c -2.984,-1.894 -7,-2.043 -10.748,-1.25 a 51.634,51.634 0 0 0 -9.852,3.187 34.572,34.572 0 0 0 -9.043,4.808 c -5.066,4.15 -1.883,11.29 0.76,15.335 1.383,2.022 0.607,4.844 2.995,5.391 1.072,0.273 2.634,-0.663 3.666,-1.2 1.168,-0.668 2.029,7.673 5.016,7.147 0.38,-0.133 1.957,-3.624 1.7,-8.332 -0.269,-3.363 -2.478,-6.868 -2.883,-8.887 -0.257,-1.077 -0.31,-2.96 0.329,-3.227 a 2.966,2.966 0 0 1 2.742,-0.528 19.183,19.183 0 0 1 2.972,0.818 24.707,24.707 0 0 0 5.428,0.693 c 3.19,-0.123 7.466,-1.317 9.4,-4.672 a 5.849,5.849 0 0 0 0.52,-5.109 l 0.041,-0.4 a 7.322,7.322 0 0 0 -0.935,-1.617 c -0.529,-0.809 -1.179,-1.618 -1.83,-2.428 0.014,-0.134 -0.244,0 -0.272,0.268 0.108,0.135 0.353,0.136 0.461,0.271 l 0.949,1.483 a 5.15,5.15 0 0 1 1.26,2.022 l -0.014,0.134 v 0 l -0.014,0.134 c 0.014,-0.134 -0.108,-0.135 -0.095,-0.269 a 15.029,15.029 0 0 0 -2.087,-3.5 6.989,6.989 0 0 1 1.654,1.755 15.677,15.677 0 0 1 1.016,2.021 c -0.014,0.134 -0.15,0.268 -0.285,0.4 -0.108,-0.135 -0.081,-0.4 -0.19,-0.539 L 96.8,80.615 C 96.583,80.345 96.352,80.21 96.136,79.94 95.92,79.67 95.716,79.266 95.499,78.996 Q 95.482,79.2 95.5,79 Z"
           data-name="Caminho 778"
           id="Caminho_778" />
      </g>
      <g
         transform="translate(22.347,116.005)"
         data-name="Grupo 3466"
         id="Grupo_3466">
        <path
           style="fill:#f73c60;fill-rule:evenodd"
           transform="translate(-42.584,-102.367)"
           d="m 65.572,151.77 c 14.56,-18.037 37.8,-33.7 34.185,-39.987 -5.541,-9.917 -5.866,-16.035 -26.478,2.815 C 30.434,153.5 42.729,188 49.856,200.09 c 0,0 5.129,4.6 8.286,2.994 7.024,-3.653 -10.635,-28.484 7.43,-51.314 z"
           data-name="Caminho 779"
           id="Caminho_779" />
      </g>
      <g
         transform="translate(39.614,107.131)"
         data-name="Grupo 3467"
         id="Grupo_3467">
        <path
           style="fill:#ffbe2c;fill-rule:evenodd"
           transform="translate(-50.386,-98.358)"
           d="m 68.572,147.511 a 70.194,70.194 0 0 1 22.954,-19.265 c 6.328,-3.373 -7.9,-29.889 -7.9,-29.889 a 168.777,168.777 0 0 0 -15.392,10.82 109.722,109.722 0 0 0 -17.847,19.013 c 0.05,7.617 18.185,19.321 18.185,19.321 z"
           data-name="Caminho 780"
           id="Caminho_780" />
      </g>
      <g
         transform="translate(27.826,202.739)"
         data-name="Grupo 3468"
         id="Grupo_3468">
        <path
           style="fill:#f73c60;fill-rule:evenodd"
           transform="translate(-45.06,-141.558)"
           d="m 60.021,155.483 v 0 c 1.795,0.163 4.506,0.3 4.506,0.3 0.7,-0.07 1.649,-0.3 1.869,-0.256 1.392,-0.139 0.99,-0.442 1.026,-0.651 0.075,-1.72 -3.149,-1.535 -6.481,-3.326 -0.622,-0.349 -1.428,-0.953 -2.05,-1.3 a 34.455,34.455 0 0 0 -4.1,-6.511 c -2.854,-3.209 -10.695,-2.7 -9.635,0.348 2.63,8.371 4.385,12.649 4.347,14.16 a 38.755,38.755 0 0 1 -1.472,7.068 c -0.588,2.046 -2.938,7.626 -2.461,7.51 0.7,-0.07 1.026,-0.651 1.54,-0.976 a 46.208,46.208 0 0 0 3.448,-5.347 7.046,7.046 0 0 0 0.808,-2 4.036,4.036 0 0 1 0.4,-1 l -0.184,1.046 c -0.11,0.628 -0.477,1.418 -0.588,2.046 -0.368,2.093 -2.5,7.719 -2.462,8.812 -0.037,0.209 -0.147,0.837 0.292,0.93 0.7,-0.07 2.751,-3.976 3.192,-5.185 a 48.7,48.7 0 0 1 2.313,-5.371 c 0,0 0.11,-0.628 0.33,-0.581 0.22,0.047 0.109,0.674 0.109,0.674 0.109,0.674 -1.842,11.765 -1.366,11.648 0.953,-0.232 1.393,-1.441 1.76,-2.232 1.064,-2.162 1.286,-4.72 1.948,-7.184 l 0.442,-2.511 0.184,-1.046 -0.11,0.628 c 0.146,0.465 -0.184,1.046 -0.075,1.721 a 54.2,54.2 0 0 1 -0.372,6 c -0.147,0.837 -0.516,2.93 -0.076,3.023 1.1,0.233 2.5,-7.719 2.573,-9.44 a 55.852,55.852 0 0 0 0.345,-10.997 z m 7,-0.906"
           data-name="Caminho 781"
           id="Caminho_781" />
      </g>
    </g>
    <path
       style="fill:#cad4e0"
       d="m 159.561,70.716 c 0,0 1.328,-9.074 -2.656,-8.852 -3.758,0.442 2.656,8.852 2.656,8.852 z"
       data-name="Caminho 801"
       id="Caminho_801" />
    <path
       style="fill:#cad4e0"
       d="m 160.894,56.994 c 0,0 -0.664,-7.746 -5.311,-5.533 -4.647,2.213 -8.41,9.959 -27.664,11.065 0,0 12.615,-3.1 16.156,-6.2 3.541,-3.1 9.3,-9.959 14.385,-9.074 4.869,0.889 5.09,7.307 2.434,9.742 z"
       data-name="Caminho 802"
       id="Caminho_802" />
    <path
       style="fill:#e2a429"
       d="m 119.729,147.289 11.287,-5.754 c 0,0 -7.303,5.975 -11.287,5.754 z"
       data-name="Caminho 804"
       id="Caminho_804" />
    <path
       style="fill:#e2a429"
       d="m 163.992,136.224 c 0,0 2.434,-10.844 1.771,-16.377 0,0 2.429,10.4 -1.771,16.377 z"
       data-name="Caminho 805"
       id="Caminho_805" />
  </g>
</svg>
