<svg id="dashboard" xmlns="http://www.w3.org/2000/svg" width="23" height="23" viewBox="0 0 23 23">
  <path id="Path" d="M60.864,175H53.677A1.679,1.679,0,0,0,52,176.677v4.312a1.679,1.679,0,0,0,1.677,1.677h7.188a1.679,1.679,0,0,0,1.677-1.677v-4.312A1.679,1.679,0,0,0,60.864,175Z" transform="translate(-52 -175)" fill="#0f7bff"/>
  <g id="Path-2" data-name="Path" transform="translate(-52 -176.25)" fill="none" opacity="0.596">
    <path d="M60.864,185.833H53.677A1.679,1.679,0,0,0,52,187.51v10.063a1.679,1.679,0,0,0,1.677,1.677h7.188a1.679,1.679,0,0,0,1.677-1.677V187.51A1.679,1.679,0,0,0,60.864,185.833Z" stroke="none"/>
    <path d="M 53.99990081787109 187.8332061767578 L 53.99990081787109 197.2499084472656 L 60.54160308837891 197.2499084472656 L 60.54160308837891 187.8332061767578 L 53.99990081787109 187.8332061767578 M 53.67695236206055 185.8332061767578 L 60.86445236206055 185.8332061767578 C 61.78941345214844 185.8332061767578 62.54160308837891 186.5854797363281 62.54160308837891 187.5104370117188 L 62.54160308837891 197.5729522705078 C 62.54160308837891 198.4977111816406 61.78941345214844 199.2499084472656 60.86445236206055 199.2499084472656 L 53.67695236206055 199.2499084472656 C 52.75218200683594 199.2499084472656 51.99990081787109 198.4977111816406 51.99990081787109 197.5729522705078 L 51.99990081787109 187.5104370117188 C 51.99990081787109 186.5854797363281 52.75218200683594 185.8332061767578 53.67695236206055 185.8332061767578 Z" stroke="none" fill="#0f7bff"/>
  </g>
  <path id="Path-3" data-name="Path" d="M74.948,192.333H67.76a1.679,1.679,0,0,0-1.677,1.677v4.313A1.679,1.679,0,0,0,67.76,200h7.187a1.679,1.679,0,0,0,1.677-1.677V194.01a1.679,1.679,0,0,0-1.677-1.677Z" transform="translate(-53.625 -177)" fill="#0f7bff"/>
  <g id="Path-4" data-name="Path" transform="translate(-53.625 -175)" fill="none" opacity="0.596">
    <path d="M74.948,175H67.76a1.679,1.679,0,0,0-1.677,1.677v10.062a1.679,1.679,0,0,0,1.677,1.677h7.187a1.679,1.679,0,0,0,1.677-1.677V176.677A1.679,1.679,0,0,0,74.948,175Z" stroke="none"/>
    <path d="M 68.08319854736328 176.9998931884766 L 68.08319854736328 186.4166870117188 L 74.62499237060547 186.4166870117188 L 74.62499237060547 176.9998931884766 L 68.08319854736328 176.9998931884766 M 67.76043701171875 174.9998931884766 L 74.94784545898438 174.9998931884766 C 75.87261199951172 174.9998931884766 76.62499237060547 175.7522735595703 76.62499237060547 176.6770324707031 L 76.62499237060547 186.7394561767578 C 76.62499237060547 187.6644134521484 75.87261199951172 188.4166870117188 74.94784545898438 188.4166870117188 L 67.76043701171875 188.4166870117188 C 66.83547210693359 188.4166870117188 66.08319854736328 187.6644134521484 66.08319854736328 186.7394561767578 L 66.08319854736328 176.6770324707031 C 66.08319854736328 175.7522735595703 66.83547210693359 174.9998931884766 67.76043701171875 174.9998931884766 Z" stroke="none" fill="#0f7bff"/>
  </g>
</svg>
