<svg id="agenda" xmlns="http://www.w3.org/2000/svg" width="19.957" height="19.957" viewBox="0 0 19.957 19.957">
  <g id="Grupo_3324" data-name="Grupo 3324" transform="translate(10.602)">
    <g id="Grupo_3323" data-name="Grupo 3323">
      <path id="Caminho_576" data-name="Caminho 576" d="M272,0V6.509l.845-.564a.583.583,0,0,1,.649,0l.845.564V0Z" transform="translate(-272)" fill="#6fb0ff"/>
    </g>
  </g>
  <g id="Grupo_3326" data-name="Grupo 3326">
    <g id="Grupo_3325" data-name="Grupo 3325">
      <path id="Caminho_577" data-name="Caminho 577" d="M1.754,0A1.756,1.756,0,0,0,0,1.754V18.2a1.756,1.756,0,0,0,1.754,1.754H3.508V0Z" fill="#0f7bff"/>
    </g>
  </g>
  <g id="Grupo_3328" data-name="Grupo 3328" transform="translate(4.677)">
    <g id="Grupo_3327" data-name="Grupo 3327">
      <path id="Caminho_578" data-name="Caminho 578" d="M130.017,0h-.585V7.6a.585.585,0,0,1-.909.486l-1.43-.953-1.43.953a.585.585,0,0,1-.909-.486V0H120V19.957h10.017a1.756,1.756,0,0,0,1.754-1.754V1.754A1.756,1.756,0,0,0,130.017,0Zm-1.169,16.449h-7.094a.585.585,0,0,1,0-1.169h7.094a.585.585,0,1,1,0,1.169Zm0-2.339h-7.094a.585.585,0,1,1,0-1.169h7.094a.585.585,0,1,1,0,1.169Z" transform="translate(-120)" fill="#0f7bff"/>
    </g>
  </g>
  <g id="Grupo_3330" data-name="Grupo 3330" transform="translate(17.618 2.339)">
    <g id="Grupo_3329" data-name="Grupo 3329">
      <path id="Caminho_579" data-name="Caminho 579" d="M454.339,64.093V61.169A1.169,1.169,0,0,0,453.169,60H452V75.28h1.169a1.169,1.169,0,0,0,1.169-1.169V71.187a1.169,1.169,0,0,0-1.169-1.169,1.169,1.169,0,0,0,1.169-1.169V66.431a1.169,1.169,0,0,0-1.169-1.169A1.169,1.169,0,0,0,454.339,64.093Z" transform="translate(-452 -60)" fill="#6fb0ff"/>
    </g>
  </g>
</svg>
