<?xml version="1.0" encoding="UTF-8" standalone="no"?>
<svg
   xmlns:dc="http://purl.org/dc/elements/1.1/"
   xmlns:cc="http://creativecommons.org/ns#"
   xmlns:rdf="http://www.w3.org/1999/02/22-rdf-syntax-ns#"
   xmlns:svg="http://www.w3.org/2000/svg"
   xmlns="http://www.w3.org/2000/svg"
   id="svg1136"
   version="1.1"
   viewBox="0 0 63.533073 101.69276"
   height="101.69276mm"
   width="63.533073mm">
  <defs
     id="defs1130">
    <clipPath
       id="clip-path">
      <path
         transform="translate(-55.951,99.725)"
         d="M 73.369,-22.1 C 64.944,-22.445 58.832,-29.176 56.684,-50.059 55.2,-64.9 55.2,-77.843 64.283,-90.96 c 1.982,-2.934 5.617,-6.558 9.086,-7.766 4.626,-1.726 9.251,-0.69 11.894,-0.69 3.8,0 5.121,7.594 11.068,8.975 5.121,1.208 3.8,5.178 3.634,5.7 -1.651,7.241 -10.076,21.913 -15.528,36.41 -2.477,6.386 -4.625,26.579 -11.068,26.231 z"
         data-name="Caminho 794"
         id="Caminho_794" />
    </clipPath>
  </defs>
  <metadata
     id="metadata1133">
    <rdf:RDF>
      <cc:Work
         rdf:about="">
        <dc:format>image/svg+xml</dc:format>
        <dc:type
           rdf:resource="http://purl.org/dc/dcmitype/StillImage" />
        <dc:title></dc:title>
      </cc:Work>
    </rdf:RDF>
  </metadata>
  <g
     transform="translate(2.67757e-6,-195.30725)"
     id="layer1">
    <g
       id="mulher"
       transform="matrix(0.26458333,0,0,0.26458333,-377.8967,124.66233)">
      <ellipse
         id="Oval-2"
         cx="66.171997"
         cy="11.287"
         rx="66.171997"
         ry="11.287"
         transform="translate(1428.271,628.781)"
         style="fill:#e5e5e5" />
      <g
         id="Grupo_3445"
         data-name="Grupo 3445"
         transform="translate(1535.828,357.146)">
        <path
           id="Path-14"
           d="m 378.009,144.564 0.443,0.221 a 3.406,3.406 0 0 0 4.648,-1.771 l 13.057,-29.656 a 3.406,3.406 0 0 0 -1.77,-4.648 l -0.443,-0.221 a 3.406,3.406 0 0 0 -4.648,1.77 l -13.057,29.656 a 3.588,3.588 0 0 0 1.77,4.649 z"
           transform="translate(-279.304,-59.053)"
           style="fill:#667c6f" />
        <g
           id="Grupo_3444"
           data-name="Grupo 3444">
          <path
             id="Path-2"
             d="m 371.054,274.6 c 0.664,-63.959 -17.041,-170.41 -17.262,-171.3 l -1.992,0.443 c 0.221,1.107 17.926,107.115 17.041,171.074 z"
             transform="translate(-308.644,-64.928)"
             style="fill:#7e9b8b" />
          <path
             id="Path-3"
             d="m 368,226.241 h 6.861 c 0.221,-0.221 0.221,-0.443 0.443,-0.664 l 1.549,-2.213 1.771,-2.213 a 32.36,32.36 0 0 1 3.541,-4.2 c 2.434,-2.656 5.09,-5.311 7.746,-7.967 a 98.025,98.025 0 0 1 18.147,-13.284 101.834,101.834 0 0 0 -19.7,11.066 95.42,95.42 0 0 0 -8.852,7.082 c -1.328,1.328 -2.877,2.656 -4.2,3.984 l -1.992,1.992 -1.992,2.213 A 45.332,45.332 0 0 0 368,226.241 Z"
             transform="translate(-288.992,47.164)"
             style="fill:#b6ccc0" />
          <path
             id="Path-4"
             d="m 361.9,248.562 h 8.188 a 215.838,215.838 0 0 1 12.615,-21.91 l 1.107,-1.771 1.328,-1.77 2.434,-3.541 c 1.549,-2.213 3.32,-4.426 5.09,-6.639 3.541,-4.426 7.082,-8.631 11.066,-12.836 a 152.237,152.237 0 0 1 11.951,-11.951 c 1.107,-0.885 1.992,-1.992 3.1,-2.877 a 38.471,38.471 0 0 0 3.32,-2.877 78.619,78.619 0 0 1 6.861,-5.09 66.929,66.929 0 0 0 -7.3,4.648 33.762,33.762 0 0 1 -3.541,2.434 l -3.32,2.656 c -4.426,3.541 -8.853,7.3 -13.057,11.066 -4.204,3.766 -8.189,7.967 -12.172,12.172 -1.992,2.213 -3.984,4.2 -5.754,6.418 l -2.877,3.32 -1.328,1.77 -1.328,1.771 c -1.77,2.213 -3.541,4.426 -5.312,6.861 -1.549,2.434 -3.32,4.648 -4.869,7.082 -0.885,1.328 -1.549,2.656 -2.434,3.984 a 31,31 0 0 1 -2.213,3.541 12.34,12.34 0 0 1 -1.555,3.539 z"
             transform="translate(-296.392,24.843)"
             style="fill:#7e9b8b" />
          <path
             id="Path-5"
             d="m 359.1,259.117 h 8.189 c 0,-0.221 0,-0.221 0.221,-0.443 0.443,-1.549 0.885,-2.877 1.328,-4.426 l 0.664,-2.213 0.664,-1.992 1.549,-4.2 c 0.443,-1.328 1.107,-2.877 1.549,-4.2 l 1.771,-4.2 c 1.328,-2.656 2.434,-5.533 3.762,-8.189 a 279.175,279.175 0 0 1 18.59,-31.426 318.606,318.606 0 0 1 22.352,-29.228 365.33,365.33 0 0 0 -24.566,27.664 289.456,289.456 0 0 0 -21.246,30.541 l -1.107,1.992 c -0.443,0.664 -0.664,1.328 -1.107,1.992 l -2.213,4.2 -1.992,4.2 c -0.664,1.328 -1.328,2.877 -1.992,4.2 l -1.992,4.2 -1.328,3.1 -0.443,1.107 c -0.221,0.443 -0.443,1.107 -0.664,1.549 -0.443,0.885 -0.664,1.771 -1.107,2.656 -0.218,1.124 -0.661,2.23 -0.882,3.116 z"
             transform="translate(-299.788,14.289)"
             style="fill:#b6ccc0" />
          <path
             id="Path-6"
             d="m 356,261.764 h 8.188 c 0.443,-1.992 0.664,-3.762 1.107,-5.754 0.443,-1.771 0.664,-3.541 1.107,-5.311 a 11.107,11.107 0 0 0 0.443,-2.656 l 1.992,-8.631 a 32.35,32.35 0 0 1 1.107,-4.426 c 0.443,-1.549 0.664,-2.877 1.107,-4.2 0.664,-2.877 1.771,-5.533 2.656,-8.41 1.107,-2.656 2.213,-5.533 3.32,-8.189 1.107,-2.656 2.434,-5.533 3.541,-8.189 l 3.984,-7.967 c 2.656,-5.311 5.533,-10.623 8.41,-15.934 3.1,-5.311 5.975,-10.4 9.3,-15.492 -3.762,4.648 -7.082,9.738 -10.4,14.607 -3.318,4.869 -6.639,10.18 -9.738,15.271 -1.549,2.656 -3.1,5.311 -4.648,7.746 -1.549,2.656 -2.877,5.311 -4.2,7.967 -1.323,2.656 -2.656,5.533 -3.984,8.189 -1.107,2.877 -2.434,5.533 -3.541,8.41 a 3.145,3.145 0 0 0 -0.443,1.328 v 0 c -0.443,0.885 -0.664,1.992 -1.107,2.877 -0.443,1.549 -0.885,2.877 -1.328,4.426 -0.221,0.664 -0.443,1.549 -0.664,2.213 -0.664,2.213 -1.328,4.2 -1.992,6.418 -0.885,2.656 -1.549,5.533 -2.434,8.41 -0.676,2.65 -1.34,4.863 -1.783,7.297 z"
             transform="translate(-303.549,11.863)"
             style="fill:#b6ccc0" />
          <path
             id="Path-7"
             d="m 349,132.1 c 1.328,6.639 2.434,13.279 3.541,19.918 1.77,10.844 3.762,21.467 5.311,32.312 2.656,17.484 5.09,34.746 6.861,52.23 a 258.333,258.333 0 0 1 1.549,26.115 v 26.335 c 0,2.656 -0.221,5.09 -0.221,7.746 0,2.434 -0.221,4.648 -0.221,7.082 h 8.852 c 0,-2.877 0,-5.754 -0.221,-8.631 v -5.975 q -0.332,-8.3 -0.664,-16.6 v 0 c -0.221,-2.434 -0.221,-4.648 -0.443,-7.082 0,-0.885 -0.221,-1.992 -0.221,-2.877 -0.221,-2.213 -0.221,-4.426 -0.443,-6.639 v 0 c -0.221,-3.1 -0.664,-6.418 -1.107,-9.516 a 2.807,2.807 0 0 0 -0.221,-1.328 v 0 c -0.443,-3.1 -0.885,-5.975 -1.328,-8.852 -2.656,-17.484 -5.975,-34.746 -9.516,-52.008 -2.213,-10.623 -4.426,-21.025 -6.861,-31.648 C 352.1,145.379 350.549,138.739 349,132.1 Z"
             transform="translate(-312.041,-29.99)"
             style="fill:#b6ccc0" />
          <path
             id="Path-8"
             d="m 343.8,155.9 c 4.2,12.615 7.967,25.451 11.066,38.287 1.549,6.418 2.877,13.057 3.984,19.475 a 191.449,191.449 0 0 1 2.213,19.7 c 0.664,13.279 0.885,26.557 0.885,39.836 v 1.771 h 3.1 a 35.857,35.857 0 0 0 4.869,-0.221 4.873,4.873 0 0 0 -0.221,-1.771 c -0.443,-5.311 -0.664,-10.4 -1.107,-15.713 -0.664,-8.189 -1.549,-16.156 -2.434,-24.344 -0.885,-6.639 -1.992,-13.279 -3.541,-19.918 -1.549,-6.639 -3.32,-13.057 -5.311,-19.475 C 353.538,180.908 348.89,168.293 343.8,155.9 Z"
             transform="translate(-318.349,-1.118)"
             style="fill:#b6ccc0" />
          <path
             id="Path-9"
             d="m 335.6,178.6 a 112.145,112.145 0 0 1 7.967,11.951 q 3.652,6.307 6.639,12.615 a 135.84,135.84 0 0 1 5.533,13.057 c 0.885,2.213 1.549,4.426 2.213,6.639 a 18.429,18.429 0 0 1 0.885,3.32 c 0.221,1.107 0.664,2.213 0.885,3.32 a 170.985,170.985 0 0 1 3.541,17.926 c 2.434,0 4.648,-0.221 7.082,-0.221 -1.549,-6.418 -3.32,-12.836 -5.533,-19.254 -0.443,-1.107 -0.885,-2.213 -1.328,-3.541 l -1.328,-3.32 c -0.885,-2.213 -1.992,-4.426 -2.877,-6.639 A 164.077,164.077 0 0 0 344.451,189.445 95.3,95.3 0 0 0 335.6,178.6 Z"
             transform="translate(-328.297,26.42)"
             style="fill:#b6ccc0" />
          <path
             id="Path-10"
             d="m 332.3,190 a 160.418,160.418 0 0 1 13.943,18.369 102.187,102.187 0 0 1 10.4,20.139 12.475,12.475 0 0 1 0.885,2.656 c 0.221,0.885 0.664,1.77 0.885,2.656 a 0.773,0.773 0 0 0 0.221,0.443 c 2.213,0 4.2,-0.221 6.418,-0.221 -0.221,-0.664 -0.664,-1.549 -0.885,-2.213 l -1.328,-2.656 -1.328,-2.656 a 116.357,116.357 0 0 0 -13.279,-19.475 97.456,97.456 0 0 0 -7.746,-8.631 c -2.653,-2.657 -5.309,-5.755 -8.186,-8.411 z"
             transform="translate(-332.3,40.25)"
             style="fill:#7e9b8b" />
          <path
             id="Path-11"
             d="m 334.6,201 a 66.507,66.507 0 0 1 9.516,12.836 71.669,71.669 0 0 1 3.762,7.082 c 0,0.221 0.221,0.221 0.221,0.443 l 4.648,-0.221 a 19.462,19.462 0 0 1 -1.328,-2.213 c -1.549,-2.213 -3.32,-4.426 -4.869,-6.639 A 72.211,72.211 0 0 0 334.6,201 Z"
             transform="translate(-329.51,53.594)"
             style="fill:#b6ccc0" />
          <path
             id="Path-12"
             d="m 357.827,125 h 0.443 a 3.541,3.541 0 0 0 2.877,-4.2 v 0 l -5.975,-31.869 a 3.541,3.541 0 0 0 -4.2,-2.877 h -0.443 a 3.541,3.541 0 0 0 -2.877,4.2 v 0 l 5.975,31.869 a 3.541,3.541 0 0 0 4.2,2.877 z"
             transform="translate(-313.786,-85.961)"
             style="fill:#667c6f" />
          <path
             id="Path-13"
             d="m 360.692,269.059 c 4.869,-83.877 38.951,-143.189 39.394,-143.853 l -1.771,-1.107 c -0.443,0.664 -34.746,60.418 -39.615,144.738 z"
             transform="translate(-300.274,-39.695)"
             style="fill:#7e9b8b" />
          <path
             id="Path-15"
             d="m 353.4,289.766 a 35.862,35.862 0 0 0 4.869,-0.221 h 3.762 c 0.443,-2.434 0.664,-5.09 1.107,-7.525 0.664,-4.648 1.328,-9.3 2.213,-14.164 0.443,-3.1 0.885,-6.2 1.549,-9.3 l 1.107,-7.3 0.664,-4.426 1.107,-5.754 1.107,-5.754 c 1.549,-7.746 3.32,-15.492 5.09,-23.016 1.77,-7.746 3.984,-15.27 5.975,-23.016 4.2,-15.271 8.631,-30.32 13.5,-45.369 v 0 c -5.533,14.828 -11.066,29.656 -15.935,44.484 l -7.3,22.574 c -1.107,3.32 -1.992,6.418 -2.877,9.738 v 0 0.221 0 l -1.328,4.648 c -0.664,2.213 -1.107,4.2 -1.77,6.418 -0.221,0.664 -0.221,1.107 -0.443,1.77 v 0 0.226 l -1.549,5.754 -1.328,5.754 -1.549,7.3 -0.885,4.426 c -1.107,4.869 -2.213,9.959 -3.32,14.828 -0.664,2.877 -1.107,5.533 -1.77,8.41 z"
             transform="translate(-306.703,-15.918)"
             style="fill:#7e9b8b" />
        </g>
      </g>
      <path
         id="Path-32"
         d="m 428.192,88.51 c 0,0 -7.082,-18.148 -20.139,-20.361 -12.836,-2.213 -21.689,9.3 -21.689,9.074 0,-0.226 -11.951,-15.049 -22.131,-16.823 -10.4,-1.77 -19.033,9.516 -19.033,9.516 0,0 13.279,-5.311 18.148,-4.2 4.869,1.111 22.574,18.369 22.574,18.369 0,0 11.066,-10.844 21.467,-10.623 6.639,0.22 20.803,15.048 20.803,15.048 z"
         transform="translate(1219.178,239.951)"
         style="fill:#d3d3d3" />
      <path
         id="Path-33"
         d="m 402.231,91.99 c 0,0 -5.533,-9.738 -13.057,-10.18 -7.524,-0.442 -11.729,7.082 -11.729,6.861 0,-0.221 -7.967,-7.746 -14.164,-7.967 -6.197,-0.221 -10.18,6.861 -10.18,6.861 0,0 7.3,-4.2 9.959,-3.762 2.877,0.221 14.385,8.852 14.385,8.852 0,0 5.533,-7.082 11.508,-7.746 3.983,-0.444 13.278,7.081 13.278,7.081 z"
         transform="translate(1228.762,264.799)"
         style="fill:#d3d3d3" />
      <g
         id="Grupo_3485"
         data-name="Grupo 3485"
         transform="translate(1440.676,267)">
        <g
           id="Grupo_3484"
           data-name="Grupo 3484">
          <g
             id="Grupo_3470"
             data-name="Grupo 3470"
             transform="translate(22.491,180.091)">
            <path
               id="Caminho_782"
               data-name="Caminho 782"
               d="m 107.307,-61.726 c 0.564,-5.588 -34.379,-15.98 -35.442,-8.272 C 70.802,-62.29 69.51,-25.3 68.7,-16.4 67.809,-6.456 69.139,4.341 67.576,14.168 64.83,32.23 50.48,89.018 45.562,106.919 c -2.965,10.985 3.981,4.34 5.226,5.447 0.178,0.158 27.368,-51.3 32.445,-67.14 C 86.028,36.334 81.48,18.19 81.743,17.302 86.04,6.379 90.492,-6.809 95.749,-18.16 c 5.863,-12.094 10.122,-29.94 11.558,-43.566 z"
               transform="translate(-44.832,72.744)"
               style="fill:#f73c60;fill-rule:evenodd" />
          </g>
          <g
             id="Grupo_3472"
             data-name="Grupo 3472"
             transform="translate(0,362.982)">
            <path
               id="Caminho_783"
               data-name="Caminho 783"
               d="m 58.088,12.339 c 0.153,-0.665 0.773,-4.286 -2.24,-1.241 a 19.054,19.054 0 0 1 -14.538,4.36 c -3.485,-0.4 -4.02,-0.209 -5.778,1.034 -1.245,0.84 -0.534,2.327 -0.861,3.447 21.282,1.709 29.986,-3.21 30.914,-3.892 -0.45,-3.236 -1.979,-2.991 -1.357,-4.478 -0.745,-0.736 -4.753,0.231 -6.14,0.77 z"
               transform="translate(-34.67,-9.896)"
               style="fill:#901f1f;fill-rule:evenodd" />
            <g
               id="Grupo_3471"
               data-name="Grupo 3471">
              <path
                 id="Caminho_784"
                 data-name="Caminho 784"
                 d="m 58.088,12.339 c 0.153,-0.665 0.773,-4.286 -2.24,-1.241 a 19.054,19.054 0 0 1 -14.538,4.36 c -3.485,-0.4 -4.02,-0.209 -5.778,1.034 -1.245,0.84 -0.534,2.327 -0.861,3.447 21.282,1.709 29.986,-3.21 30.914,-3.892 -0.45,-3.236 -1.979,-2.991 -1.357,-4.478 -0.745,-0.736 -4.753,0.231 -6.14,0.77 z"
                 transform="translate(-34.67,-9.896)"
                 style="fill:#132951" />
            </g>
          </g>
          <g
             id="Grupo_3473"
             data-name="Grupo 3473"
             transform="translate(39.736,76.132)">
            <path
               id="Caminho_785"
               data-name="Caminho 785"
               d="m 107.577,-59.889 0.5,1.009 c 3.469,7.567 10.077,9.922 9.912,10.426 -1.322,4.372 -6.938,11.435 -7.434,11.435 -0.661,-0.168 -1.817,-1.345 -3.965,-4.2 -1.652,-2.354 -2.808,-4.709 -2.974,-4.877 -0.5,-0.168 0.991,3.7 2.643,6.895 a 21.232,21.232 0 0 0 2.974,4.036 22.447,22.447 0 0 1 -3.3,4.036 44.235,44.235 0 0 1 -7.1,4.54 c -0.826,0.336 -13.877,0.673 -20.65,-0.336 -19.328,-2.859 -23.458,-11.6 -23.458,-11.6 0,0 -3.634,-17.657 3.3,-45.236 0.826,-3.2 1.982,-8.24 3.634,-11.1 4.791,-8.576 7.269,-27.915 27.093,-27.074 13.051,0.5 24.119,12.781 22.3,27.074 -4.13,31.615 13.216,34.81 13.216,34.81 l -3.968,6.888 c 0,0 -3.634,-1.009 -5.121,-2.186 a 25.706,25.706 0 0 1 -5.782,-6.222 c 0.5,1.009 0.991,2.018 1.322,2.522 2.148,3.2 4.956,6.39 8.26,7.4 l 0.33,0.5 c 0,0 -6.938,-1.345 -10.738,-7.063 a 3.6,3.6 0 0 1 -0.994,-1.677 z"
               transform="translate(-51.245,121.968)"
               style="fill:#132951;fill-rule:evenodd" />
            <path
               id="Caminho_786"
               data-name="Caminho 786"
               d="m 59.728,-40.519 c 0,0 -1.817,-2.018 -1.982,-6.222 -0.165,-4.204 0.33,-29.933 4.626,-42.882 4.3,-12.781 8.26,-27.243 8.26,-27.243 0,0 -10.573,16.985 -12.885,25.9 -2.312,8.915 -5.121,27.747 -5.121,35.315 0,7.568 3.303,12.61 7.102,15.132 z"
               transform="translate(-52.625,128.159)"
               style="fill:#cad4e0;fill-rule:evenodd" />
          </g>
          <g
             id="Grupo_3474"
             data-name="Grupo 3474"
             transform="translate(22.857,19.08)">
            <path
               id="Caminho_787"
               data-name="Caminho 787"
               d="m 48.79,-145.454 c 3.811,-1.662 4.971,45.148 15.074,65.056 13.958,27.764 17.4,28.319 23.914,37.449 16.534,23.46 -10.992,20.877 -14.936,13.249 -6.158,-12.279 -18.742,-33.911 -22.88,-50.994 -7.3,-29.919 -5.363,-61.81 -1.718,-64.335 0.089,-0.225 0.089,-0.225 0.546,-0.425 z"
               transform="translate(-44.998,145.497)"
               style="fill:#f73c60;fill-rule:evenodd" />
          </g>
          <g
             id="Grupo_3475"
             data-name="Grupo 3475"
             transform="translate(71.586,18.99)">
            <path
               id="Caminho_788"
               data-name="Caminho 788"
               d="m 113.1,-145.494 c -3.971,-1.662 -5.18,45.148 -15.707,65.056 -14.542,27.763 -18.131,28.319 -24.917,37.448 -17.229,23.461 11.454,20.878 15.564,13.246 6.417,-12.276 19.527,-33.908 23.841,-50.991 7.607,-29.919 5.588,-61.81 1.789,-64.335 -0.092,-0.225 -0.092,-0.225 -0.57,-0.424 z"
               transform="translate(-67.016,145.537)"
               style="fill:#f73c60;fill-rule:evenodd" />
          </g>
          <path
             id="Caminho_789"
             data-name="Caminho 789"
             d="m 76.291,-80.824 c -2.148,1.208 -9.581,-3.452 -12.885,-7.421 -1.982,-2.244 -1.982,-7.076 -0.5,-11.736 3.634,-11.218 7.764,-18.812 16.685,-16.914 0,0 13.381,1.208 13.381,11.391 0.165,9.32 -3.8,14.325 -8.756,17.777 -1.152,1.035 -6.604,6.04 -7.925,6.903 z"
             transform="translate(-1.697,198.922)"
             style="fill:#f73c60;fill-rule:evenodd" />
          <g
             id="Grupo_3476"
             data-name="Grupo 3476"
             transform="translate(70.907,77.826)">
            <path
               id="Caminho_790"
               data-name="Caminho 790"
               d="m 44.961,-117.81 c -0.806,0.347 -3.76,8.492 1.477,16.29 7.116,10.918 3.088,26.342 5.1,23.742 6.579,-9.012 13.158,-14.038 13.83,-19.93 C 67.652,-114 52.346,-120.236 44.961,-117.81 Z"
               transform="translate(-43.402,118.315)"
               style="fill:#132951;fill-rule:evenodd" />
          </g>
          <path
             id="Caminho_791"
             data-name="Caminho 791"
             d="m 73.325,-97.244 c 0,-5.523 -8.756,-13.117 -8.59,-6.213 0.165,4.487 0,8.112 0,11.563 0,3.107 -0.991,5.868 0,9.147 1.487,4.488 8.92,5.868 8.59,-14.497 z"
             transform="translate(1.268,212.236)"
             style="fill:#f73c60;fill-rule:evenodd" />
          <path
             id="Caminho_792"
             data-name="Caminho 792"
             d="M 73.369,-22.1 C 64.944,-22.445 58.832,-29.176 56.684,-50.059 55.2,-64.9 55.2,-77.843 64.283,-90.96 c 1.982,-2.934 5.617,-6.558 9.086,-7.766 4.626,-1.726 9.251,-0.69 11.894,-0.69 3.8,0 5.121,7.594 11.068,8.975 5.121,1.208 3.8,5.178 3.634,5.7 -1.651,7.241 -10.076,21.913 -15.528,36.41 -2.477,6.386 -4.625,26.579 -11.068,26.231 z"
             transform="translate(-8.853,220.104)"
             style="fill:#f73c60;fill-rule:evenodd" />
          <g
             id="Grupo_3478"
             data-name="Grupo 3478"
             transform="translate(47.098,120.379)">
            <g
               id="Grupo_3477"
               data-name="Grupo 3477"
               clip-path="url(#clip-path)">
              <path
                 id="Caminho_793"
                 data-name="Caminho 793"
                 d="m 75.956,-100.666 c 0.826,-0.863 -22.137,25.2 -22.137,25.2 l 3.139,43.32 c 0,0 27.258,-7.421 37,-8.284 1.652,-0.173 7.93,-31.929 7.6,-32.1 a 15.72,15.72 0 0 1 -4.46,-3.279 16.506,16.506 0 0 1 -3.139,-3.97 52.117,52.117 0 0 1 -4.622,-13.811 c -0.165,-0.518 -0.826,-6.386 -0.826,-6.386 a 10.918,10.918 0 0 0 -2.148,0.345 c -0.5,1.381 -0.661,13.807 -8.921,15.705 -5.947,1.381 -1.652,-11.046 0,-13.634 z"
                 transform="translate(-58.537,98.558)"
                 style="fill:#5d5de8;fill-rule:evenodd" />
            </g>
          </g>
          <path
             id="Caminho_795"
             data-name="Caminho 795"
             d="m 68.907,-46.484 c 0,0 20.98,53.674 23.623,64.72 1.487,6.041 4.46,11.909 5.121,18.122 1.652,16.051 5.121,65.238 4.626,76.111 0,0.863 1.156,7.594 3.139,6.558 2.974,-1.553 2.974,-6.731 3.634,-9.492 1.652,-8.8 9.416,-39 10.242,-44.528 2.148,-13.98 -2.974,-27.614 -8.59,-39.35 -1.156,-2.416 2.974,-22.954 3.3,-44.873 0.165,-18.812 -1.817,-43.492 -25.441,-55.4 -1.156,-0.518 -31.388,6.731 -31.388,6.731 0,0 1.987,8.802 11.734,21.401 z"
             transform="translate(-7.365,250.531)"
             style="fill:#f73c60;fill-rule:evenodd" />
          <g
             id="Grupo_3479"
             data-name="Grupo 3479"
             transform="translate(39.593,168.835)">
            <path
               id="Caminho_796"
               data-name="Caminho 796"
               d="m 350.438,111.747 a 37.716,37.716 0 0 1 -12.615,-2.434 c 0,0 -3.984,57.984 -6.861,104.459 -2.656,41.385 -1.992,66.615 25.23,66.836 26.779,0.443 31.869,-37.623 38.73,-72.811 9.738,-50.016 1.771,-82.549 -27.664,-100.7 a 30.212,30.212 0 0 1 -16.82,4.65 z"
               transform="translate(-329.939,-107.1)"
               style="fill:#ffbe2c;fill-rule:evenodd" />
          </g>
          <g
             id="Grupo_3481"
             data-name="Grupo 3481"
             transform="translate(84.073,364.702)">
            <path
               id="Caminho_797"
               data-name="Caminho 797"
               d="m 87.213,13.127 c 0.2,-0.652 -3.182,-5.336 -5.515,0.263 -0.917,2.09 -6.113,2.008 -7.95,3.119 -1.3,0.747 -0.689,2.282 -1.09,3.375 13.508,0.742 17.713,-2.055 18.685,-2.668 -0.232,-3.261 -1.774,-3.128 -1.054,-4.566 -0.578,-0.691 -1.656,0.037 -3.076,0.477 z"
               transform="translate(-72.658,-10.673)"
               style="fill:#901f1f;fill-rule:evenodd" />
            <g
               id="Grupo_3480"
               data-name="Grupo 3480">
              <path
                 id="Caminho_798"
                 data-name="Caminho 798"
                 d="m 87.213,13.127 c 0.2,-0.652 -3.182,-5.336 -5.515,0.263 -0.917,2.09 -6.113,2.008 -7.95,3.119 -1.3,0.747 -0.689,2.282 -1.09,3.375 13.508,0.742 17.713,-2.055 18.685,-2.668 -0.232,-3.261 -1.774,-3.128 -1.054,-4.566 -0.578,-0.691 -1.656,0.037 -3.076,0.477 z"
                 transform="translate(-72.658,-10.673)"
                 style="fill:#132951" />
            </g>
          </g>
          <g
             id="Grupo_3482"
             data-name="Grupo 3482"
             transform="translate(11.739,3.005)">
            <path
               id="Caminho_799"
               data-name="Caminho 799"
               d="m 51.19,-125.421 a 208.215,208.215 0 0 0 -11.112,-20.246 c 0,0 -0.74,-2.169 1.73,0.672 2.47,2.841 5.533,6.715 5.533,6.715 0,0 -4.692,-8.47 -6.173,-11.053 -1.481,-2.583 3.854,2.325 7.212,9.349 0,0 -4.1,-8.315 -5.234,-11.465 -0.79,-1.962 3.063,2.118 6.964,10.382 0,0 -2.617,-6.611 -3.6,-10.38 -0.543,-2.117 0.792,-3.3 5.433,9.761 a 13.217,13.217 0 0 0 1.827,3.77 c 0,0 -0.493,-3.2 1.386,-4.9 0,0 0.988,0.259 0.642,1.7 a 11.96,11.96 0 0 0 1.035,6.2 15.893,15.893 0 0 1 1.628,8.107 c 0.389,3.609 -7.271,1.388 -7.271,1.388 z"
               transform="translate(-39.974,152.76)"
               style="fill:#f73c60;fill-rule:evenodd" />
          </g>
          <g
             id="Grupo_3483"
             data-name="Grupo 3483"
             transform="translate(113.945)">
            <path
               id="Caminho_800"
               data-name="Caminho 800"
               d="m 93.406,-122.978 c 0,0 5.866,-15.939 10.956,-24.484 0,0 0.636,-2.213 -1.757,0.783 -2.393,2.996 -5.338,7.06 -5.338,7.06 0,0 4.354,-8.757 5.735,-11.43 1.381,-2.673 -3.864,2.57 -6.921,9.8 0,0 3.747,-8.564 4.733,-11.781 0.7,-2.01 -3.055,2.312 -6.6,10.812 0,0 2.312,-6.767 3.1,-10.593 0.433,-2.148 -1.029,-3.247 -5.045,10.094 a 13,13 0 0 1 -1.666,3.881 c 0,0 0.314,-3.227 -1.745,-4.806 0,0 -1.012,0.322 -0.562,1.743 a 11.527,11.527 0 0 1 -0.692,6.252 c -1.114,2.812 -1.878,4.618 -1.19,8.2 1.286,8.965 6.992,4.469 6.992,4.469 z"
               transform="translate(-86.156,154.118)"
               style="fill:#f73c60;fill-rule:evenodd" />
          </g>
        </g>
      </g>
      <path
         id="Caminho_803"
         data-name="Caminho 803"
         d="m 323,84 c 0,0 0,8.189 4.426,9.959 4.426,1.77 -3.762,-7.303 -4.426,-9.959 z"
         transform="translate(1192.246,268.806)"
         style="fill:#cad4e0" />
      <path
         id="Caminho_806"
         data-name="Caminho 806"
         d="m 316.9,135.7 c 0,0 21.91,60.639 23.016,70.377 0,-0.221 -4.868,-39.177 -23.016,-70.377 z"
         transform="translate(1184.848,331.524)"
         style="fill:#e2a429" />
    </g>
  </g>
</svg>
