<svg width="20" height="20" viewBox="0 0 20 20" fill="none" xmlns="http://www.w3.org/2000/svg">
  <path d="M16.5569 3H3.44278C2.09549 3 1 4.09596 1 5.44313V13.1331C1 14.4802 2.09549 15.5762 3.44278 15.5762H13.3415L15.4019 18.0107C15.4723 18.0944 15.5757 18.1402 15.6816 18.1402C15.7238 18.1402 15.766 18.1323 15.8075 18.1173C15.952 18.0643 16.0478 17.927 16.0478 17.7739V15.5761H16.5572C17.9043 15.5761 19 14.4802 19 13.133V5.44313C18.9997 4.09596 17.9044 3 16.5569 3ZM7.18042 10.2514C6.7072 10.2514 6.32357 9.86785 6.32357 9.39499C6.32357 8.92141 6.7072 8.53796 7.18042 8.53796C7.65328 8.53796 8.03709 8.92141 8.03709 9.39499C8.03709 9.86791 7.65328 10.2514 7.18042 10.2514ZM9.99967 10.2514C9.52645 10.2514 9.143 9.86785 9.143 9.39499C9.143 8.92141 9.52645 8.53796 9.99967 8.53796C10.4725 8.53796 10.8562 8.92141 10.8562 9.39499C10.8562 9.86791 10.4725 10.2514 9.99967 10.2514ZM12.9953 10.2514C12.522 10.2514 12.1382 9.86785 12.1382 9.39499C12.1382 8.92141 12.522 8.53796 12.9953 8.53796C13.4681 8.53796 13.852 8.92141 13.852 9.39499C13.852 9.86791 13.4681 10.2514 12.9953 10.2514Z" fill="currentColor"/>
</svg>