<svg width="30" height="23" viewBox="0 0 30 23" fill="none" xmlns="http://www.w3.org/2000/svg">
<path d="M3.21435 0C1.44217 0 0 1.45116 0 3.23438V19.7656C0 20.0653 0.0533158 20.3495 0.129746 20.6248C0.159032 20.5155 0.188798 20.4062 0.228799 20.2991L1.09935 17.9688L1.86806 15.908L3.81146 10.7026C4.43575 9.02939 6.04806 7.90625 7.82381 7.90625H27.1434V6.82812C27.1434 5.04491 25.7012 3.59375 23.929 3.59375H14.3167L11.1233 0.915283C10.419 0.324471 9.52571 0 8.60926 0H3.21435ZM7.82381 10.0625C6.93094 10.0625 6.13121 10.6198 5.81763 11.4607L2.23637 21.0571C1.88494 21.9965 2.57502 23 3.57289 23H24.3197C25.2125 23 26.0123 22.4427 26.3258 21.6018L29.9043 12.0138C30.2622 11.073 29.572 10.0625 28.5706 10.0625H7.82381Z" fill="#0072E1"/>
</svg>
