<svg width="18" height="18" viewBox="0 0 18 18" fill="none" xmlns="http://www.w3.org/2000/svg">
<g clip-path="url(#clip0_239_11400)">
<path d="M18 4V3.25C18 1.458 16.542 0 14.75 0H3.25C1.458 0 0 1.458 0 3.25V4H18ZM0 5.5V14.75C0 16.542 1.458 18 3.25 18H14.75C16.542 18 18 16.542 18 14.75V5.5H0ZM9 8C9.5525 8 10 8.4475 10 9C10 9.5525 9.5525 10 9 10C8.4475 10 8 9.5525 8 9C8 8.4475 8.4475 8 9 8ZM4.5 14C3.9475 14 3.5 13.5525 3.5 13C3.5 12.4475 3.9475 12 4.5 12C5.0525 12 5.5 12.4475 5.5 13C5.5 13.5525 5.0525 14 4.5 14ZM4.5 10C3.9475 10 3.5 9.5525 3.5 9C3.5 8.4475 3.9475 8 4.5 8C5.0525 8 5.5 8.4475 5.5 9C5.5 9.5525 5.0525 10 4.5 10ZM9 14.5C8.1715 14.5 7.5 13.8285 7.5 13C7.5 12.1715 8.1715 11.5 9 11.5C9.8285 11.5 10.5 12.1715 10.5 13C10.5 13.8285 9.8285 14.5 9 14.5ZM13.5 10C12.9475 10 12.5 9.5525 12.5 9C12.5 8.4475 12.9475 8 13.5 8C14.0525 8 14.5 8.4475 14.5 9C14.5 9.5525 14.0525 10 13.5 10Z" fill="#D0D0D0"/>
</g>
<defs>
<clipPath id="clip0_239_11400">
<rect width="18" height="18" fill="white"/>
</clipPath>
</defs>
</svg>
