<svg width="18" height="18" viewBox="0 0 18 18" fill="none" xmlns="http://www.w3.org/2000/svg">
<g clip-path="url(#clip0_1_1054)">
<path d="M17.9595 13.4268C17.7123 12.6989 17.2255 10.5911 14.8124 10.0812L15.1437 9.99351C15.9257 9.78634 16.4716 9.07686 16.4716 8.26765V7.93629C16.5914 7.87434 16.6767 7.76445 16.7106 7.63066C17.3623 7.61719 17.8877 7.08715 17.8877 6.43224C17.8877 5.77741 17.3623 5.24734 16.7106 5.2339C16.6779 5.10647 16.599 5.00249 16.4874 4.93904C16.5271 4.46508 16.4283 3.83125 16.1548 3.22726C16.0227 2.95339 15.8596 2.66064 15.63 2.39208C13.6874 -0.0844587 9.3403 0.674129 8.61268 4.00978C8.61148 4.01475 8.61148 4.01881 8.61035 4.02348C8.81606 4.20085 9.00246 4.38179 9.14509 4.56466C9.15157 4.57226 9.15623 4.57986 9.16263 4.58746C10.2134 0.994056 15.3237 1.17406 15.9585 4.98258C15.8503 5.07027 15.7773 5.19853 15.7773 5.34842V7.51663C15.7773 7.66043 15.8445 7.78552 15.945 7.87314C15.9602 7.88571 15.9771 7.89481 15.9935 7.90558V8.26765C15.9935 9.56573 14.5838 9.64724 13.3273 9.98008C13.0158 9.64367 12.4658 9.86522 12.4658 10.3158C12.4658 10.8842 13.2782 11.0145 13.436 10.4459C14.0549 10.2819 13.886 10.3266 14.2723 10.2244C14.1613 10.2994 14.0467 10.3667 13.9293 10.4278C13.8171 11.3894 12.5284 11.6185 12.0941 10.7486C11.6845 10.6908 11.2964 10.5464 10.9381 10.3348C10.7172 10.5312 10.4484 10.6747 10.1521 10.7439C10.1451 10.753 10.1381 10.7618 10.1305 10.7706C10.1305 11.3681 9.95746 11.8792 9.59569 12.3266C10.4081 12.8187 11.0679 13.5428 11.4787 14.4332H17.2383C17.7609 14.4332 18.1267 13.9195 17.9595 13.4268Z" fill="#8D9EB5"/>
<path d="M12.1454 9.78837C12.3195 9.51925 12.6205 9.33981 12.9636 9.33981C13.1892 9.33981 13.3943 9.41959 13.5591 9.54819C14.5538 9.00054 15.2533 7.69757 15.2533 6.17599C15.2533 4.16054 14.0266 2.52704 12.5129 2.52704C11.1337 2.52704 9.99519 3.88675 9.80469 5.65465C9.91164 5.90977 10.0005 6.17362 10.0606 6.44715C10.1261 6.75691 10.1407 6.95182 10.1536 7.24435C10.9484 7.43135 11.5463 8.15046 11.5463 8.99384C11.5463 9.18524 11.5118 9.36848 11.4551 9.54232C11.672 9.66335 11.904 9.74516 12.1454 9.78837Z" fill="#8D9EB5"/>
<path d="M8.85712 12.93C8.44394 13.1486 8.29141 13.1509 6.71168 13.5697C6.24118 14.0355 5.45516 13.9133 5.15412 13.3102C4.551 13.2245 3.99112 12.9598 3.51129 12.5562C2.05079 12.7576 0.802994 13.7613 0.319096 15.1868C0.0929535 15.8522 -0.168904 16.2717 0.143797 16.7072C0.520175 17.2338 0.493831 17.0304 10.3743 17.0304C10.9038 17.0304 11.2766 16.5076 11.1072 16.0079C10.8156 15.1491 10.4924 13.7474 8.85712 12.93Z" fill="#8D9EB5"/>
<path d="M5.20565 12.3496C5.43066 12.0028 5.85084 11.8134 6.2997 11.9458L7.14831 11.7208C8.42531 10.5233 8.23943 9.02069 8.23943 7.90589C7.5983 4.25348 3.56687 4.15529 2.9082 7.90589C2.9082 13.8905 2.90881 3.58751 2.90881 9.57214C3.16539 11.0288 4.07535 12.1471 5.20565 12.3496Z" fill="#8D9EB5"/>
<path d="M1.37807 10.1922C1.43008 10.3992 1.60888 10.5558 1.8322 10.5558C2.09635 10.5558 2.31022 10.3418 2.31022 10.0783V7.91009C2.31022 7.75985 2.23653 7.63156 2.12849 7.54395C2.24831 6.79759 2.64863 6.05887 3.1466 5.5691C3.87768 4.79068 5.10154 4.34126 6.49595 4.68023C7.03246 4.855 7.5608 5.09898 8.0009 5.5691C8.49063 6.04954 8.88864 6.77046 9.01841 7.54421C8.73611 7.77306 8.8372 7.97057 8.8372 10.0783C8.8372 10.2431 8.92605 10.3817 9.05348 10.4673V10.8297C9.05348 12.085 7.81502 12.1633 6.38787 12.5417C6.07637 12.2054 5.52578 12.4269 5.52578 12.8776C5.52578 13.4459 6.33872 13.5765 6.49655 13.0075C7.97403 12.6163 9.53155 12.4684 9.53155 10.8297V10.498C9.65137 10.436 9.73669 10.3262 9.76996 10.1921C10.4228 10.1789 10.9476 9.64855 10.9476 8.99395C10.9476 8.33942 10.4228 7.8093 9.76996 7.79587C9.73782 7.66848 9.65894 7.56408 9.54731 7.50041C9.57185 7.21314 9.53617 6.86078 9.47483 6.57149C9.42222 6.333 9.3404 6.06681 9.21535 5.78889C9.08269 5.5151 8.91958 5.22231 8.6899 4.95401C8.47253 4.67586 8.19196 4.42217 7.8752 4.19892C5.1149 2.28637 1.30325 4.54873 1.59954 7.50101C1.48848 7.56468 1.41021 7.66874 1.37807 7.79557C0.724665 7.80836 0.199219 8.33878 0.199219 8.99391C0.199219 9.64904 0.724665 10.1797 1.37807 10.1922Z" fill="#8D9EB5"/>
</g>
<defs>
<clipPath id="clip0_1_1054">
<rect width="18" height="18" fill="white"/>
</clipPath>
</defs>
</svg>
