<svg width="30" height="30" viewBox="0 0 30 30" fill="none" xmlns="http://www.w3.org/2000/svg">
<g clip-path="url(#clip0_432_10747)">
<path d="M10.3358 15.8333L2.38167 9.56667C0.874245 8.37882 0.00679369 6.59897 3.97358e-05 4.68008C1.32497e-05 4.67256 0 4.66503 0 4.6575V2.08333C0 0.935 0.935 0 2.08333 0H27.9167C29.065 0 30 0.935 30 2.08333V4.6575C30 4.86821 29.9896 5.07729 29.9691 5.28414C29.8024 6.96908 28.9662 8.50454 27.6183 9.56667L19.6642 15.8333H10.3358Z" fill="#0072E1"/>
<path d="M19.5833 24.11C19.5833 24.6673 19.3054 25.1852 18.8436 25.497C17.673 26.2874 15.4154 27.8285 14.3292 28.6825L12.81 29.7675C12.5942 29.9217 12.3392 30 12.0833 30C11.8875 30 11.6917 29.9542 11.5108 29.8617C11.095 29.6475 10.8333 29.2183 10.8333 28.75V18.3333H19.5833V24.11Z" fill="#0072E1"/>
</g>
<defs>
<clipPath id="clip0_432_10747">
<rect width="30" height="30" fill="white"/>
</clipPath>
</defs>
</svg>
