<svg width="30" height="30" viewBox="0 0 30 30" fill="none" xmlns="http://www.w3.org/2000/svg">
<g clip-path="url(#clip0_391_41676)">
<path d="M1.51968 15.0219C1.52551 15.4116 1.68292 15.7836 1.9585 16.059L5.70308 19.8036C5.84109 19.9473 6.00641 20.0621 6.18934 20.1412C6.37226 20.2202 6.56913 20.262 6.7684 20.264C6.96767 20.2661 7.16535 20.2283 7.34985 20.153C7.53435 20.0777 7.70196 19.9663 7.84288 19.8254C7.98379 19.6845 8.09517 19.5168 8.1705 19.3323C8.24582 19.1478 8.28358 18.9502 8.28155 18.7509C8.27952 18.5516 8.23775 18.3548 8.15869 18.1718C8.07962 17.9889 7.96485 17.8236 7.8211 17.6856L6.63337 16.4978L25.485 16.4978C25.6834 16.5006 25.8805 16.464 26.0647 16.39C26.2489 16.3159 26.4165 16.2061 26.5579 16.0667C26.6992 15.9273 26.8114 15.7613 26.8881 15.5781C26.9647 15.395 27.0041 15.1985 27.0041 15C27.0041 14.8015 26.9647 14.605 26.8881 14.4219C26.8114 14.2387 26.6992 14.0727 26.5579 13.9333C26.4165 13.7939 26.2489 13.6841 26.0647 13.6101C25.8805 13.536 25.6834 13.4994 25.485 13.5022L6.63337 13.5022L7.8211 12.3144C7.96485 12.1764 8.07962 12.0111 8.15869 11.8282C8.23775 11.6453 8.27952 11.4484 8.28155 11.2491C8.28358 11.0498 8.24582 10.8522 8.1705 10.6677C8.09517 10.4832 7.98379 10.3156 7.84288 10.1746C7.70196 10.0337 7.53435 9.92235 7.34985 9.84702C7.16535 9.7717 6.96767 9.73394 6.7684 9.73597C6.56913 9.738 6.37226 9.77977 6.18933 9.85883C6.00641 9.9379 5.84109 10.0527 5.70308 10.1964L1.9585 13.941C1.81678 14.0827 1.70491 14.2513 1.62954 14.437C1.55416 14.6227 1.51681 14.8216 1.51968 15.0219ZM2.99704 24.7578C3.00285 25.1548 3.16604 25.5333 3.45073 25.81C3.73543 26.0868 4.11835 26.2392 4.51534 26.2337L23.3669 26.2337L22.1792 27.4215C22.0354 27.5595 21.9207 27.7248 21.8416 27.9077C21.7626 28.0906 21.7208 28.2875 21.7188 28.4868C21.7167 28.6861 21.7545 28.8837 21.8298 29.0682C21.9051 29.2527 22.0165 29.4203 22.1574 29.5613C22.2983 29.7022 22.466 29.8135 22.6505 29.8889C22.835 29.9642 23.0326 30.0019 23.2319 29.9999C23.4312 29.9979 23.628 29.9561 23.811 29.8771C23.9939 29.798 24.1592 29.6832 24.2972 29.5395L28.0418 25.7949C28.3226 25.514 28.4803 25.1331 28.4803 24.7359C28.4803 24.3387 28.3226 23.9578 28.0418 23.6769L24.2972 19.9323C24.1592 19.7886 23.9939 19.6738 23.811 19.5947C23.628 19.5157 23.4312 19.4739 23.2319 19.4719C23.0326 19.4698 22.835 19.5076 22.6505 19.5829C22.466 19.6582 22.2983 19.7696 22.1574 19.9105C22.0165 20.0514 21.9051 20.2191 21.8298 20.4036C21.7545 20.5881 21.7167 20.7857 21.7187 20.985C21.7208 21.1843 21.7625 21.3811 21.8416 21.5641C21.9207 21.747 22.0354 21.9123 22.1792 22.0503L23.3669 23.2381L4.51534 23.2381C4.31508 23.2353 4.11629 23.2728 3.93075 23.3482C3.7452 23.4236 3.57667 23.5355 3.43511 23.6772C3.29356 23.8189 3.18185 23.9875 3.10661 24.1731C3.03136 24.3588 2.9941 24.5576 2.99704 24.7578ZM2.99704 5.28605C3.00285 5.68305 3.16604 6.06149 3.45073 6.33823C3.73543 6.61497 4.11834 6.76737 4.51534 6.76194L23.3669 6.76194L22.1792 7.94968C22.0354 8.08769 21.9207 8.25301 21.8416 8.43593C21.7625 8.61886 21.7208 8.81573 21.7187 9.015C21.7167 9.21427 21.7545 9.41195 21.8298 9.59645C21.9051 9.78095 22.0165 9.94856 22.1574 10.0895C22.2983 10.2304 22.466 10.3418 22.6505 10.4171C22.835 10.4924 23.0326 10.5302 23.2319 10.5281C23.4312 10.5261 23.628 10.4844 23.811 10.4053C23.9939 10.3262 24.1592 10.2115 24.2972 10.0677L28.0418 6.32313C28.3226 6.04222 28.4803 5.66129 28.4803 5.26411C28.4803 4.86693 28.3226 4.48601 28.0418 4.2051L24.2972 0.460526C24.1592 0.316773 23.9939 0.202004 23.811 0.122941C23.628 0.0438757 23.4312 0.00210476 23.2319 7.72522e-05C23.0326 -0.00195025 22.835 0.0358057 22.6505 0.111131C22.466 0.186454 22.2983 0.297833 22.1574 0.438748C22.0165 0.579663 21.9051 0.747279 21.8298 0.931779C21.7545 1.11628 21.7167 1.31395 21.7187 1.51322C21.7208 1.7125 21.7625 1.90936 21.8416 2.09229C21.9207 2.27522 22.0354 2.44053 22.1792 2.57855L23.3669 3.76628L4.51534 3.76628C4.31507 3.76354 4.11629 3.80099 3.93075 3.87642C3.7452 3.95184 3.57667 4.06371 3.43511 4.2054C3.29356 4.34709 3.18185 4.51574 3.10661 4.70135C3.03136 4.88697 2.9941 5.08579 2.99704 5.28605Z" fill="#4D5D71"/>
</g>
<defs>
<clipPath id="clip0_391_41676">
<rect width="30" height="30" fill="white" transform="translate(0 30) rotate(-90)"/>
</clipPath>
</defs>
</svg>
