<svg width="15" height="15" viewBox="0 0 15 15" fill="none" xmlns="http://www.w3.org/2000/svg">
<g clip-path="url(#clip0_1_1049)">
<path d="M11.6309 0.383362H3.36914C1.5114 0.383362 0 1.89476 0 3.7525V7.85406C0 9.56295 1.27875 10.9787 2.92969 11.1947V14.1771C2.92969 14.3549 3.03674 14.5151 3.20098 14.5831C3.25532 14.6056 3.31245 14.6166 3.36905 14.6166C3.4834 14.6166 3.59581 14.5719 3.67986 14.4878L6.94453 11.2232H11.6309C13.4886 11.2232 15 9.71181 15 7.85406V3.7525C15 1.89476 13.4886 0.383362 11.6309 0.383362ZM3.9844 6.86283C3.49898 6.86283 3.1055 6.46935 3.1055 5.98393C3.1055 5.49854 3.49901 5.10502 3.9844 5.10502C4.4698 5.10502 4.86331 5.49854 4.86331 5.98393C4.86331 6.46932 4.46982 6.86283 3.9844 6.86283ZM7.50003 6.86283C7.01461 6.86283 6.62112 6.46935 6.62112 5.98393C6.62112 5.49854 7.01461 5.10502 7.50003 5.10502C7.98542 5.10502 8.37894 5.49854 8.37894 5.98393C8.37894 6.46932 7.98542 6.86283 7.50003 6.86283ZM11.0157 6.86283C10.5303 6.86283 10.1367 6.46935 10.1367 5.98393C10.1367 5.49854 10.5303 5.10502 11.0157 5.10502C11.501 5.10502 11.8946 5.49854 11.8946 5.98393C11.8946 6.46932 11.501 6.86283 11.0157 6.86283Z" fill="#8D9EB5"/>
</g>
<defs>
<clipPath id="clip0_1_1049">
<rect width="15" height="15" fill="white"/>
</clipPath>
</defs>
</svg>
