<svg width="31" height="30" viewBox="0 0 31 30" fill="none" xmlns="http://www.w3.org/2000/svg">
<path d="M8.62695 0C6.90195 0 5.3866 0.899758 4.5166 2.25716C4.6366 2.24966 4.75695 2.24983 4.87695 2.24983H22.127C25.232 2.24983 27.752 4.76965 27.752 7.87442V19.8735C27.752 19.9935 27.7521 20.1139 27.7446 20.2339C29.1021 19.3639 30.002 17.8487 30.002 16.1238V7.87442C30.002 3.53224 26.4695 0 22.127 0H8.62695ZM4.87695 3.74972C2.198 3.74972 0.00195312 5.94561 0.00195312 8.62436V19.8735C0.00195312 22.5523 2.198 24.7482 4.87695 24.7482H5.25195V28.1493C5.25195 29.6126 7.04649 30.5279 8.22998 29.6668L14.9932 24.7482H21.377C24.0559 24.7482 26.252 22.5523 26.252 19.8735V8.62436C26.252 5.94561 24.0559 3.74972 21.377 3.74972H4.87695Z" fill="#0072E1"/>
</svg>
