<svg width="30" height="30" viewBox="0 0 30 30" fill="none" xmlns="http://www.w3.org/2000/svg">
<path d="M27.0001 20.8738V24.4738C26.9981 25.1432 26.7312 25.7847 26.258 26.2581C25.7846 26.7312 25.1432 26.9982 24.4737 27.0002H17.0842C16.4148 26.9982 15.7734 26.7312 15.3 26.2581C14.8266 25.7847 14.5598 25.1432 14.5578 24.4738V20.8738C14.5598 20.2044 14.8266 19.5629 15.3 19.0895C15.7733 18.6161 16.4148 18.3494 17.0842 18.3474H24.4737C25.1432 18.3494 25.7846 18.6161 26.258 19.0895C26.7312 19.5629 26.9981 20.2044 27.0001 20.8738ZM10.3895 3H5.52639C4.85697 3.00198 4.21551 3.26896 3.74211 3.74211C3.26895 4.21549 3.00197 4.85696 3 5.52639V9.1264C3.00198 9.79583 3.26896 10.4373 3.74211 10.9107C4.21549 11.3841 4.85697 11.6508 5.52639 11.6528H10.3895C11.0589 11.6508 11.7003 11.3841 12.1737 10.9107C12.6471 10.4373 12.9139 9.79583 12.9158 9.1264V5.52639C12.9139 4.85696 12.6471 4.21551 12.1737 3.74211C11.7004 3.26895 11.0589 3.00197 10.3895 3Z" fill="#0072E1"/>
<path d="M24.4737 3H17.0842C16.4148 3.00198 15.7734 3.26896 15.3 3.74211C14.8266 4.21549 14.5598 4.85696 14.5578 5.52639V14.1791C14.5598 14.8485 14.8266 15.4897 15.3 15.9631C15.7733 16.4365 16.4148 16.7032 17.0842 16.7052H24.4737C25.1432 16.7032 25.7846 16.4365 26.258 15.9631C26.7312 15.4897 26.9981 14.8485 27.0001 14.1791V5.52639C26.9981 4.85696 26.7312 4.21551 26.258 3.74211C25.7846 3.26895 25.1432 3.00197 24.4737 3ZM10.3895 13.2948L5.52639 13.295C4.85697 13.297 4.21551 13.5638 3.74211 14.0371C3.26895 14.5105 3.00197 15.1517 3 15.8212V24.4738C3.00198 25.1433 3.26896 25.7847 3.74211 26.2581C4.21549 26.7313 4.85697 26.9983 5.52639 27.0002H10.3895C11.0589 26.9983 11.7003 26.7313 12.1737 26.2581C12.6471 25.7847 12.9139 25.1433 12.9158 24.4738V15.8212C12.9139 15.1517 12.6471 14.5105 12.1737 14.0371C11.7004 13.5637 11.0589 13.2968 10.3895 13.2948Z" fill="#0072E1"/>
</svg>
