<svg width="26" height="26" viewBox="0 0 26 26" fill="none" xmlns="http://www.w3.org/2000/svg">
<path d="M17.3333 17.0692V21.6644H2.88889V7.21994H13.2618C13.4062 7.21994 13.5417 7.16126 13.6455 7.06196L15.451 5.2564C15.7941 4.91335 15.5503 4.33105 15.0674 4.33105H2.16667C0.970486 4.33105 0 5.30154 0 6.49772V22.3866C0 23.5828 0.970486 24.5533 2.16667 24.5533H18.0556C19.2517 24.5533 20.2222 23.5828 20.2222 22.3866V15.2637C20.2222 14.7807 19.6399 14.5415 19.2969 14.88L17.4913 16.6856C17.392 16.7894 17.3333 16.9248 17.3333 17.0692Z" fill="#0072E1"/>
<path d="M18.1726 5.19757L22.2441 9.2691C22.4156 9.44063 22.4156 9.72049 22.2441 9.89202L12.3857 19.7504L8.19686 20.2153C7.63714 20.2785 7.16318 19.8045 7.22637 19.2448L7.6913 15.0559L17.5496 5.19757C17.7212 5.02605 18.001 5.02605 18.1726 5.19757ZM25.4851 4.16389L23.2823 1.96112C22.5962 1.27501 21.4812 1.27501 20.7906 1.96112L19.1927 3.55903C19.0212 3.73056 19.0212 4.01042 19.1927 4.18195L23.2642 8.25348C23.4358 8.42501 23.7156 8.42501 23.8871 8.25348L25.4851 6.65556C26.1712 5.96494 26.1712 4.85001 25.4851 4.16389Z" fill="#0072E1"/>
</svg>
