<svg width="18" height="18" viewBox="0 0 18 18" fill="none" xmlns="http://www.w3.org/2000/svg">
<path d="M8.99941 2.01383e-07C8.96513 2.01383e-07 8.93074 -0.000100245 8.89646 0.00418545C7.84646 0.115614 6.73231 1.92428 6.24803 4.71427H11.7508C11.2665 1.92428 10.1524 0.115614 9.10237 0.00418545C9.06809 -0.000100245 9.0337 2.01383e-07 8.99941 2.01383e-07ZM6.41544 0.445311C4.37545 1.16959 2.7294 2.72999 1.89369 4.71427H4.94474C5.22331 2.96999 5.73401 1.49531 6.41544 0.445311ZM11.5834 0.445311C12.2648 1.49531 12.7755 2.96999 13.0541 4.71427H16.1051C15.2694 2.72999 13.6234 1.16959 11.5834 0.445311ZM1.4827 5.99998C1.34984 6.55283 1.28516 7.12712 1.28516 7.71426C1.28516 8.45997 1.3927 9.17568 1.58984 9.85711H4.82923C4.75637 9.1714 4.71372 8.45997 4.71372 7.71426C4.71372 7.12283 4.7394 6.55283 4.78654 5.99998H1.4827ZM6.08062 5.99998C6.02919 6.54426 5.99943 7.11855 5.99943 7.71426C5.99943 8.47283 6.0469 9.18425 6.12833 9.85711H11.8705C11.9519 9.18425 11.9994 8.47283 11.9994 7.71426C11.9994 7.11855 11.9696 6.54426 11.9182 5.99998H6.08062ZM13.2123 5.99998C13.2594 6.55283 13.2851 7.12283 13.2851 7.71426C13.2851 8.45997 13.2425 9.1714 13.1696 9.85711H16.409C16.6061 9.17568 16.7137 8.45997 16.7137 7.71426C16.7137 7.12712 16.649 6.55283 16.5161 5.99998H13.2123ZM2.09124 11.1428C2.9698 12.9214 4.52052 14.3104 6.40623 14.9832C5.78481 14.0232 5.30126 12.6985 5.0184 11.1428H2.09124ZM6.33341 11.1428C6.7578 13.2262 7.5411 14.6999 8.35656 15.2209V16.7142H3.21372C3.12853 16.713 3.04396 16.7288 2.96491 16.7605C2.88586 16.7923 2.81391 16.8394 2.75324 16.8993C2.69258 16.9591 2.6444 17.0304 2.61152 17.1089C2.57864 17.1875 2.56171 17.2719 2.56171 17.3571C2.56171 17.4423 2.57864 17.5266 2.61152 17.6052C2.6444 17.6838 2.69258 17.7551 2.75324 17.8149C2.81391 17.8747 2.88586 17.9219 2.96491 17.9536C3.04396 17.9854 3.12853 18.0011 3.21372 17.9999H14.7851C14.8703 18.0011 14.9549 17.9854 15.0339 17.9536C15.113 17.9219 15.1849 17.8747 15.2456 17.8149C15.3063 17.7551 15.3544 17.6838 15.3873 17.6052C15.4202 17.5266 15.4371 17.4423 15.4371 17.3571C15.4371 17.2719 15.4202 17.1875 15.3873 17.1089C15.3544 17.0304 15.3063 16.9591 15.2456 16.8993C15.1849 16.8394 15.113 16.7923 15.0339 16.7605C14.9549 16.7288 14.8703 16.713 14.7851 16.7142H9.64227V15.2209C10.4577 14.6999 11.241 13.2262 11.6654 11.1428H6.33341ZM12.9804 11.1428C12.6976 12.6985 12.214 14.0232 11.5926 14.9832C13.4783 14.3104 15.029 12.9214 15.9076 11.1428H12.9804Z" fill="#D0D0D0"/>
</svg>
