<svg width="16" height="16" viewBox="0 0 16 16" fill="none" xmlns="http://www.w3.org/2000/svg">
<path d="M7.9998 0C7.57546 0 7.16849 0.168481 6.86843 0.468379C6.56838 0.768277 6.3998 1.17503 6.3998 1.59915C6.3998 2.02327 6.56838 2.43002 6.86843 2.72991C7.16849 3.02981 7.57546 3.19829 7.9998 3.19829C8.42415 3.19829 8.83112 3.02981 9.13118 2.72991C9.43123 2.43002 9.5998 2.02327 9.5998 1.59915C9.5998 1.17503 9.43123 0.768277 9.13118 0.468379C8.83112 0.168481 8.42415 0 7.9998 0ZM2.3998 0.799573C1.97546 0.799573 1.56849 0.968054 1.26843 1.26795C0.968376 1.56785 0.799805 1.9746 0.799805 2.39872C0.799805 2.82284 0.968376 3.22959 1.26843 3.52949C1.56849 3.82938 1.97546 3.99787 2.3998 3.99787C2.82415 3.99787 3.23112 3.82938 3.53118 3.52949C3.83123 3.22959 3.9998 2.82284 3.9998 2.39872C3.9998 1.9746 3.83123 1.56785 3.53118 1.26795C3.23112 0.968054 2.82415 0.799573 2.3998 0.799573ZM13.5998 0.799573C13.1755 0.799573 12.7685 0.968054 12.4684 1.26795C12.1684 1.56785 11.9998 1.9746 11.9998 2.39872C11.9998 2.82284 12.1684 3.22959 12.4684 3.52949C12.7685 3.82938 13.1755 3.99787 13.5998 3.99787C14.0242 3.99787 14.4311 3.82938 14.7312 3.52949C15.0312 3.22959 15.1998 2.82284 15.1998 2.39872C15.1998 1.9746 15.0312 1.56785 14.7312 1.26795C14.4311 0.968054 14.0242 0.799573 13.5998 0.799573Z" fill="#8D9EB5"/>
<path d="M7.24844 4.07045C6.30204 4.31592 5.6 5.17521 5.6 6.19666V10.7942C5.6 11.0548 5.76741 11.2746 6 11.3572V15.3918C5.99888 15.4712 6.01356 15.5501 6.04321 15.6239C6.07286 15.6976 6.11688 15.7647 6.1727 15.8213C6.22853 15.8779 6.29505 15.9228 6.36841 15.9535C6.44176 15.9842 6.52048 16 6.6 16C6.67952 16 6.75824 15.9842 6.83159 15.9535C6.90495 15.9228 6.97147 15.8779 7.0273 15.8213C7.08312 15.7647 7.12714 15.6976 7.15679 15.6239C7.18644 15.5501 7.20112 15.4712 7.2 15.3918V11.194H8.8V15.3918C8.79888 15.4712 8.81356 15.5501 8.84321 15.6239C8.87286 15.6976 8.91688 15.7647 8.9727 15.8213C9.02853 15.8779 9.09505 15.9228 9.16841 15.9535C9.24176 15.9842 9.32049 16 9.4 16C9.47952 16 9.55824 15.9842 9.63159 15.9535C9.70495 15.9228 9.77147 15.8779 9.8273 15.8213C9.88312 15.7647 9.92714 15.6976 9.95679 15.6239C9.98644 15.5501 10.0011 15.4712 10 15.3918V11.3572C10.2326 11.2746 10.4 11.0548 10.4 10.7942V6.19666C10.3996 5.17521 9.69796 4.31592 8.75156 4.07045C7.80516 3.82499 8.2 4.89736 8.2 4.89736L8.8 7.19613L8 7.9957L7.2 7.19613L7.8 4.89736L7.24844 4.07045ZM1.64844 4.87003C0.702037 5.1155 0 5.97478 0 6.99624V10.7942C0 11.0548 0.16741 11.2746 0.4 11.3572V15.3918C0.398876 15.4712 0.413564 15.5501 0.443213 15.6239C0.472861 15.6976 0.516877 15.7647 0.572704 15.8213C0.628531 15.8779 0.695054 15.9228 0.768408 15.9535C0.841763 15.9842 0.920485 16 1 16C1.07952 16 1.15824 15.9842 1.23159 15.9535C1.30495 15.9228 1.37147 15.8779 1.4273 15.8213C1.48312 15.7647 1.52714 15.6976 1.55679 15.6239C1.58644 15.5501 1.60112 15.4712 1.6 15.3918V11.194H3.2V15.3918C3.19888 15.4712 3.21356 15.5501 3.24321 15.6239C3.27286 15.6976 3.31688 15.7647 3.3727 15.8213C3.42853 15.8779 3.49505 15.9228 3.56841 15.9535C3.64176 15.9842 3.72048 16 3.8 16C3.87952 16 3.95824 15.9842 4.03159 15.9535C4.10495 15.9228 4.17147 15.8779 4.2273 15.8213C4.28312 15.7647 4.32714 15.6976 4.35679 15.6239C4.38644 15.5501 4.40112 15.4712 4.4 15.3918V11.3572C4.63259 11.2746 4.8 11.0548 4.8 10.7942V6.99624C4.7996 5.97478 4.09796 5.1155 3.15156 4.87003L2.6 5.69693L3.2 7.9957L2.4 8.79528L1.6 7.9957L2.2 5.69693L1.64844 4.87003ZM12.8484 4.87003C11.902 5.1155 11.2 5.97478 11.2 6.99624V10.7942C11.2 11.0548 11.3674 11.2746 11.6 11.3572V15.3918C11.5989 15.4712 11.6136 15.5501 11.6432 15.6239C11.6729 15.6976 11.7169 15.7647 11.7727 15.8213C11.8285 15.8779 11.8951 15.9228 11.9684 15.9535C12.0418 15.9842 12.1205 16 12.2 16C12.2795 16 12.3582 15.9842 12.4316 15.9535C12.5049 15.9228 12.5715 15.8779 12.6273 15.8213C12.6831 15.7647 12.7271 15.6976 12.7568 15.6239C12.7864 15.5501 12.8011 15.4712 12.8 15.3918V11.194H14.4V15.3918C14.3989 15.4712 14.4136 15.5501 14.4432 15.6239C14.4729 15.6976 14.5169 15.7647 14.5727 15.8213C14.6285 15.8779 14.6951 15.9228 14.7684 15.9535C14.8418 15.9842 14.9205 16 15 16C15.0795 16 15.1582 15.9842 15.2316 15.9535C15.3049 15.9228 15.3715 15.8779 15.4273 15.8213C15.4831 15.7647 15.5271 15.6976 15.5568 15.6239C15.5864 15.5501 15.6011 15.4712 15.6 15.3918V11.3572C15.8326 11.2746 16 11.0548 16 10.7942V6.99624C15.9996 5.97478 15.298 5.1155 14.3516 4.87003L13.8 5.69693L14.4 7.9957L13.6 8.79528L12.8 7.9957L13.4 5.69693L12.8484 4.87003Z" fill="#8D9EB5"/>
</svg>
