<svg width="16" height="16" viewBox="0 0 16 16" fill="none" xmlns="http://www.w3.org/2000/svg">
<g clip-path="url(#clip0_1_1061)">
<path d="M4.25 6.5625C3.47456 6.5625 2.84375 7.19331 2.84375 7.96875V11.7812C2.84375 12.5567 3.47456 13.1875 4.25 13.1875C5.02544 13.1875 5.65625 12.5567 5.65625 11.7812V7.96875C5.65625 7.19331 5.02544 6.5625 4.25 6.5625Z" fill="#8D9EB5"/>
<path d="M1.90625 7.96873C1.90625 7.83351 1.92409 7.70288 1.94619 7.57391C1.38125 7.75651 0.96875 8.28126 0.96875 8.90623V10.8437C0.96875 11.4687 1.38125 11.9934 1.94619 12.176C1.92409 12.0471 1.90625 11.9164 1.90625 11.7812V7.96873Z" fill="#8D9EB5"/>
<path d="M11.75 6.5625C10.9746 6.5625 10.3438 7.19331 10.3438 7.96875V11.7812C10.3438 12.5567 10.9746 13.1875 11.75 13.1875C11.8909 13.1875 12.0244 13.1604 12.1529 13.1216C11.9784 13.7 11.447 14.125 10.8125 14.125H9.31991C9.12575 13.5806 8.61031 13.1875 8 13.1875C7.22456 13.1875 6.59375 13.8183 6.59375 14.5938C6.59375 15.3692 7.22456 16 8 16C8.61031 16 9.12575 15.6069 9.31991 15.0625H10.8125C12.1048 15.0625 13.1562 14.011 13.1562 12.7188V11.7812V7.96875C13.1562 7.19331 12.5254 6.5625 11.75 6.5625Z" fill="#8D9EB5"/>
<path d="M14.0537 7.57391C14.0758 7.70288 14.0936 7.83351 14.0936 7.96873V11.7812C14.0936 11.9164 14.0758 12.0471 14.0537 12.176C14.6186 11.9934 15.0311 11.4687 15.0311 10.8437V8.90623C15.0311 8.28126 14.6186 7.75651 14.0537 7.57391Z" fill="#8D9EB5"/>
<path d="M8 0C4.12275 0 0.96875 3.154 0.96875 7.03125V7.04322C1.24803 6.83178 1.57116 6.67706 1.92772 6.60778C2.14681 3.44534 4.78294 0.9375 8 0.9375C11.2171 0.9375 13.8532 3.44534 14.0723 6.60775C14.4288 6.67703 14.7519 6.83178 15.0312 7.04319V7.03125C15.0312 3.154 11.8772 0 8 0Z" fill="#8D9EB5"/>
</g>
<defs>
<clipPath id="clip0_1_1061">
<rect width="16" height="16" fill="white"/>
</clipPath>
</defs>
</svg>
