<svg width="26" height="26" viewBox="0 0 26 26" fill="none" xmlns="http://www.w3.org/2000/svg">
<path d="M13 0.5C6.1 0.5 0.5 6.1 0.5 13C0.5 19.9 6.1 25.5 13 25.5C19.9 25.5 25.5 19.9 25.5 13C25.5 6.1 19.9 0.5 13 0.5ZM14.25 21.75H11.75V19.25H14.25V21.75ZM16.8375 12.0625L15.7125 13.2125C15.0875 13.85 14.6375 14.425 14.4125 15.325C14.3125 15.725 14.25 16.175 14.25 16.75H11.75V16.125C11.75 15.55 11.85 15 12.025 14.4875C12.275 13.7625 12.6875 13.1125 13.2125 12.5875L14.7625 11.0125C15.3375 10.4625 15.6125 9.6375 15.45 8.7625C15.2875 7.8625 14.5875 7.1 13.7125 6.85C12.325 6.4625 11.0375 7.25 10.625 8.4375C10.475 8.9 10.0875 9.25 9.6 9.25H9.225C8.5 9.25 8 8.55 8.2 7.85C8.7375 6.0125 10.3 4.6125 12.2375 4.3125C14.1375 4.0125 15.95 5 17.075 6.5625C18.55 8.6 18.1125 10.7875 16.8375 12.0625Z" fill="#4D5D71"/>
</svg>
