<svg width="18" height="18" viewBox="0 0 18 18" fill="none" xmlns="http://www.w3.org/2000/svg">
<path d="M9 0C4.0374 0 0 4.0374 0 9C0 13.9626 4.0374 18 9 18C13.9626 18 18 13.9626 18 9C18 4.0374 13.9626 0 9 0ZM11.0525 11.9524C10.9206 12.0843 10.7478 12.15 10.575 12.15C10.4022 12.15 10.2294 12.0843 10.0975 11.9524L7.84755 9.70245C7.7211 9.57555 7.65 9.4041 7.65 9.225V4.275C7.65 3.90195 7.95195 3.6 8.325 3.6C8.69805 3.6 9 3.90195 9 4.275V8.94555L11.0525 10.998C11.3157 11.2612 11.3157 11.6888 11.0525 11.9524Z" fill="#D0D0D0"/>
</svg>
