<svg width="23" height="19" viewBox="0 0 23 19" fill="none" xmlns="http://www.w3.org/2000/svg">
<g clip-path="url(#clip0_342_3242)">
<path d="M3.13437 12.0917C1.68209 12.0917 0.5 10.9759 0.5 9.60435V9.55428C0.5 8.18273 1.68209 7.06689 3.13437 7.06689C3.58094 7.06689 3.94307 7.41202 3.94307 7.83761C3.94307 8.2632 3.58094 8.60832 3.13437 8.60832C2.57335 8.60832 2.11552 9.03212 2.11552 9.55428V9.60435C2.11552 10.1265 2.57335 10.5503 3.13437 10.5503C3.58094 10.5503 3.94307 10.8954 3.94307 11.321C3.94307 11.7466 3.58094 12.0917 3.13437 12.0917Z" fill="#667085" fill-opacity="0.5"/>
<path d="M19.8634 12.0917C19.4168 12.0917 19.0547 11.7466 19.0547 11.321C19.0547 10.8954 19.4168 10.5503 19.8634 10.5503C20.4244 10.5503 20.8822 10.1265 20.8822 9.60435V9.55428C20.8822 9.03212 20.4244 8.60832 19.8634 8.60832C19.4168 8.60832 19.0547 8.2632 19.0547 7.83761C19.0547 7.41202 19.4168 7.06689 19.8634 7.06689C21.3157 7.06689 22.4978 8.18273 22.4978 9.55428V9.60435C22.4978 10.9759 21.3157 12.0917 19.8634 12.0917Z" fill="#667085" fill-opacity="0.5"/>
<path d="M13.9006 16.4263C13.561 16.4263 13.2439 16.2207 13.1332 15.8952C12.9944 15.4911 13.227 15.0566 13.6511 14.9243C16.5819 14.0123 18.5502 11.423 18.5502 8.48317C18.5502 4.74762 15.3604 1.70769 11.4408 1.70769C7.52111 1.70769 4.33322 4.74583 4.33322 8.48138C4.33322 8.90697 3.97109 9.25209 3.52452 9.25209C3.07795 9.25209 2.71582 8.90697 2.71582 8.48138C2.71582 3.89644 6.62985 0.16626 11.4408 0.16626C16.2517 0.16626 20.1657 3.89644 20.1657 8.48138C20.1657 12.09 17.749 15.2676 14.1521 16.387C14.0695 16.412 13.9851 16.4246 13.9006 16.4246V16.4263Z" fill="#667085" fill-opacity="0.5"/>
<path d="M12.0748 18.1662C10.6225 18.1662 9.44043 17.0504 9.44043 15.6788V15.6287C9.44043 14.2572 10.6225 13.1414 12.0748 13.1414C13.5271 13.1414 14.7092 14.2572 14.7092 15.6287V15.6788C14.7092 17.0504 13.5271 18.1662 12.0748 18.1662ZM12.0748 14.6828C11.5138 14.6828 11.056 15.1066 11.056 15.6287V15.6788C11.056 16.201 11.5138 16.6248 12.0748 16.6248C12.6358 16.6248 13.0936 16.201 13.0936 15.6788V15.6287C13.0936 15.1066 12.6358 14.6828 12.0748 14.6828Z" fill="#667085" fill-opacity="0.5"/>
<path d="M3.52452 12.0918C3.07795 12.0918 2.71582 11.7467 2.71582 11.3211V8.70138C2.71582 8.27579 3.07795 7.93066 3.52452 7.93066C3.97109 7.93066 4.33322 8.27579 4.33322 8.70138V11.3211C4.33322 11.7467 3.97109 12.0918 3.52452 12.0918Z" fill="#667085" fill-opacity="0.5"/>
</g>
<defs>
<clipPath id="clip0_342_3242">
<rect width="22" height="18" fill="white" transform="translate(0.5 0.16626)"/>
</clipPath>
</defs>
</svg>
