<svg width="16" height="16" viewBox="0 0 16 16" fill="none" xmlns="http://www.w3.org/2000/svg">
<path d="M9.65531 3.57856C10.3951 4.04241 10.9139 4.82733 11.0083 5.73845C11.31 5.87942 11.6449 5.96049 11.9999 5.96049C13.296 5.96049 14.3465 4.91 14.3465 3.6141C14.3465 2.31801 13.296 1.26752 11.9999 1.26752C10.7162 1.26792 9.67488 2.29964 9.65531 3.57856ZM8.11801 8.38316C9.4141 8.38316 10.4646 7.33246 10.4646 6.03657C10.4646 4.74067 9.4139 3.69018 8.11801 3.69018C6.82211 3.69018 5.77102 4.74087 5.77102 6.03677C5.77102 7.33266 6.82211 8.38316 8.11801 8.38316ZM9.11339 8.5431H7.12223C5.46552 8.5431 4.11771 9.8911 4.11771 11.5478V13.9829L4.1239 14.021L4.29163 14.0735C5.87266 14.5675 7.24622 14.7322 8.37679 14.7322C10.585 14.7322 11.8649 14.1027 11.9438 14.0625L12.1005 13.9833H12.1173V11.5478C12.1179 9.8911 10.7701 8.5431 9.11339 8.5431ZM12.9957 6.12063H11.0199C10.9985 6.91115 10.6611 7.62299 10.1273 8.13496C11.6 8.57285 12.6774 9.93843 12.6774 11.5514V12.3018C14.6282 12.2303 15.7524 11.6774 15.8265 11.6403L15.9832 11.5608H16V9.12495C16 7.46844 14.6522 6.12063 12.9957 6.12063ZM4.0005 5.96089C4.45955 5.96089 4.88666 5.82691 5.24847 5.59868C5.36348 4.8485 5.76563 4.19296 6.3401 3.74649C6.34249 3.70256 6.34669 3.65903 6.34669 3.6147C6.34669 2.31861 5.29599 1.26812 4.0005 1.26812C2.70421 1.26812 1.65391 2.31861 1.65391 3.6147C1.65391 4.9102 2.70421 5.96089 4.0005 5.96089ZM6.10787 8.13496C5.57674 7.62559 5.24048 6.91754 5.21592 6.13181C5.14264 6.12642 5.07016 6.12063 4.99548 6.12063H3.00452C1.34781 6.12063 0 7.46844 0 9.12495V11.5604L0.00618994 11.5979L0.173917 11.6508C1.44226 12.0468 2.57422 12.2293 3.55742 12.2868V11.5514C3.55782 9.93843 4.63487 8.57325 6.10787 8.13496Z" fill="#8D9EB5"/>
</svg>
