<svg width="16" height="16" viewBox="0 0 16 16" fill="none" xmlns="http://www.w3.org/2000/svg">
<g clip-path="url(#clip0_1_883)">
<path d="M7.7998 0C3.9174 0 1.5998 2.168 1.5998 5.8V7.20859C1.0986 7.58019 0.799805 8.1608 0.799805 8.8C0.799805 9.7428 1.45536 10.5349 2.33496 10.7453C3.13216 13.9065 5.2102 16 7.5998 16C7.931 16 8.1998 15.7316 8.1998 15.4C8.1998 15.0684 7.931 14.8 7.5998 14.8C5.7174 14.8 3.99474 12.8566 3.41074 10.0742C3.35234 9.79662 3.10802 9.59766 2.82402 9.59766C2.81042 9.59766 2.79317 9.59802 2.77637 9.59922C2.34597 9.58722 1.9998 9.2332 1.9998 8.8C1.9998 8.494 2.17522 8.2215 2.45762 8.0875C2.66682 7.9879 2.7998 7.77691 2.7998 7.54531V6.46953C4.3418 6.06473 5.30726 5.24161 5.82246 4.66641C6.47886 5.06681 7.7722 5.6 9.9998 5.6C10.8585 5.6 11.6036 5.52276 12.1982 5.42578C12.2924 5.70766 12.3998 6.12074 12.3998 6.6V10.6C12.3998 11.6014 11.6012 12.4 10.5998 12.4H9.86387C9.75039 12.1608 9.57139 11.9586 9.34765 11.817C9.1239 11.6754 8.86459 11.6002 8.5998 11.6C8.41595 11.6 8.2339 11.6362 8.06405 11.7066C7.89419 11.7769 7.73986 11.88 7.60985 12.0101C7.47985 12.1401 7.37673 12.2944 7.30637 12.4642C7.23602 12.6341 7.1998 12.8161 7.1998 13C7.1998 13.1839 7.23602 13.3659 7.30637 13.5358C7.37673 13.7056 7.47985 13.8599 7.60985 13.9899C7.73986 14.12 7.89419 14.2231 8.06405 14.2934C8.2339 14.3638 8.41595 14.4 8.5998 14.4C8.86446 14.3997 9.1236 14.3244 9.34719 14.1828C9.57079 14.0412 9.74966 13.8391 9.86309 13.6H10.5998C12.1821 13.6 13.4854 12.3571 13.5896 10.8H13.5998C14.4834 10.8 15.1998 10.0836 15.1998 9.2V8.4C15.1998 7.5164 14.4834 6.8 13.5998 6.8V6.6C13.5998 6.01693 13.4834 5.49898 13.367 5.12656C13.6 4.99683 13.7865 4.79491 13.8959 4.54688C14.0391 4.22168 14.0339 3.85161 13.8811 3.53281C12.8075 1.28721 10.5906 0 7.7998 0ZM5.5998 8C5.38763 8 5.18415 8.08429 5.03412 8.23431C4.88409 8.38434 4.7998 8.58783 4.7998 8.8C4.7998 9.01217 4.88409 9.21566 5.03412 9.36569C5.18415 9.51571 5.38763 9.6 5.5998 9.6C5.81198 9.6 6.01546 9.51571 6.16549 9.36569C6.31552 9.21566 6.3998 9.01217 6.3998 8.8C6.3998 8.58783 6.31552 8.38434 6.16549 8.23431C6.01546 8.08429 5.81198 8 5.5998 8ZM9.5998 8C9.39084 8.00045 9.19034 8.08264 9.04119 8.229C8.89204 8.37536 8.80608 8.57428 8.80169 8.7832C8.7973 8.99212 8.87483 9.19446 9.01771 9.34696C9.16058 9.49946 9.35745 9.59 9.56621 9.59922C9.5774 9.59971 9.5886 9.59997 9.5998 9.6C9.81198 9.6 10.0155 9.51571 10.1655 9.36569C10.3155 9.21566 10.3998 9.01217 10.3998 8.8C10.3998 8.58783 10.3155 8.38434 10.1655 8.23431C10.0155 8.08429 9.81198 8 9.5998 8Z" fill="#8D9EB5"/>
</g>
<defs>
<clipPath id="clip0_1_883">
<rect width="16" height="16" fill="white"/>
</clipPath>
</defs>
</svg>
