<svg width="30" height="30" viewBox="0 0 30 30" fill="none" xmlns="http://www.w3.org/2000/svg">
<path d="M14.625 0C7.3455 0 3 4.065 3 10.875V13.5161C2.06025 14.2129 1.5 15.3015 1.5 16.5C1.5 18.2677 2.72917 19.753 4.37842 20.1475C5.87317 26.0747 9.7695 30 14.25 30C14.871 30 15.375 29.4967 15.375 28.875C15.375 28.2533 14.871 27.75 14.25 27.75C10.7205 27.75 7.49051 24.1062 6.39551 18.8892C6.28601 18.3687 5.82791 17.9956 5.29541 17.9956C5.26991 17.9956 5.23755 17.9963 5.20605 17.9985C4.39905 17.976 3.75 17.3123 3.75 16.5C3.75 15.9263 4.0789 15.4153 4.6084 15.1641C5.00065 14.9773 5.25 14.5817 5.25 14.1475V12.1304C8.14125 11.3714 9.95148 9.82801 10.9175 8.74951C12.1482 9.50026 14.5732 10.5 18.75 10.5C20.3601 10.5 21.7571 10.3552 22.8721 10.1733C23.0486 10.7019 23.25 11.4764 23.25 12.375V19.875C23.25 21.7526 21.7526 23.25 19.875 23.25H18.4951C18.2823 22.8014 17.9467 22.4224 17.5272 22.1569C17.1077 21.8914 16.6215 21.7503 16.125 21.75C15.7803 21.75 15.4389 21.8179 15.1205 21.9498C14.802 22.0817 14.5126 22.2751 14.2688 22.5188C14.0251 22.7626 13.8317 23.052 13.6998 23.3705C13.5679 23.6889 13.5 24.0303 13.5 24.375C13.5 24.7197 13.5679 25.0611 13.6998 25.3795C13.8317 25.698 14.0251 25.9874 14.2688 26.2312C14.5126 26.4749 14.802 26.6683 15.1205 26.8002C15.4389 26.9321 15.7803 27 16.125 27C16.6212 26.9994 17.1071 26.8582 17.5264 26.5927C17.9456 26.3272 18.281 25.9483 18.4937 25.5H19.875C22.8418 25.5 25.2854 23.1695 25.481 20.25H25.5C27.1567 20.25 28.5 18.9067 28.5 17.25V15.75C28.5 14.0933 27.1567 12.75 25.5 12.75V12.375C25.5 11.2817 25.2818 10.3106 25.0635 9.6123C25.5003 9.36905 25.85 8.99046 26.0552 8.52539C26.3237 7.91564 26.3138 7.22177 26.0273 6.62402C24.0143 2.41352 19.8577 0 14.625 0ZM10.5 15C10.1022 15 9.72064 15.158 9.43934 15.4393C9.15804 15.7206 9 16.1022 9 16.5C9 16.8978 9.15804 17.2794 9.43934 17.5607C9.72064 17.842 10.1022 18 10.5 18C10.8978 18 11.2794 17.842 11.5607 17.5607C11.842 17.2794 12 16.8978 12 16.5C12 16.1022 11.842 15.7206 11.5607 15.4393C11.2794 15.158 10.8978 15 10.5 15ZM18 15C17.6082 15.0008 17.2323 15.155 16.9526 15.4294C16.6729 15.7038 16.5118 16.0768 16.5035 16.4685C16.4953 16.8602 16.6407 17.2396 16.9086 17.5256C17.1764 17.8115 17.5456 17.9812 17.937 17.9985C17.958 17.9995 17.979 18 18 18C18.3978 18 18.7794 17.842 19.0607 17.5607C19.342 17.2794 19.5 16.8978 19.5 16.5C19.5 16.1022 19.342 15.7206 19.0607 15.4393C18.7794 15.158 18.3978 15 18 15Z" fill="#0072E1"/>
</svg>
