<svg width="27" height="27" viewBox="0 0 27 27" fill="none" xmlns="http://www.w3.org/2000/svg">
<g clip-path="url(#clip0_590_31838)">
<path d="M0.974947 0.000703221C0.813816 0.00670705 0.656447 0.0511018 0.515935 0.130194C0.375422 0.209286 0.255828 0.320789 0.167102 0.455426C0.0783754 0.590063 0.023083 0.743941 0.00582415 0.904258C-0.0114347 1.06457 0.00983904 1.2267 0.0678757 1.37713L3.78054 10.9633C3.84444 11.1278 3.95019 11.2727 4.08732 11.3837C4.22446 11.4947 4.38821 11.568 4.56236 11.5962L14.6483 13.2337C14.8995 13.2744 14.875 13.3469 14.875 13.5C14.875 13.653 14.8995 13.7256 14.6483 13.7663L4.56236 15.4038C4.38821 15.432 4.22446 15.5053 4.08732 15.6163C3.95019 15.7273 3.84444 15.8722 3.78054 16.0366L0.0678757 25.6228C-0.00560946 25.8133 -0.0198076 26.0215 0.0271435 26.2202C0.0740946 26.4189 0.180002 26.5988 0.330974 26.7362C0.481946 26.8736 0.670931 26.9622 0.873139 26.9903C1.07535 27.0185 1.28133 26.9848 1.46408 26.8938L26.4402 14.4057C26.6084 14.3216 26.7499 14.1924 26.8488 14.0324C26.9476 13.8724 27 13.6881 27 13.5C27 13.3119 26.9476 13.1276 26.8488 12.9676C26.7499 12.8076 26.6084 12.6783 26.4402 12.5942L1.46408 0.106177C1.31243 0.0306559 1.14425 -0.00560902 0.974947 0.000703221Z" fill="#0072E1"/>
</g>
<defs>
<clipPath id="clip0_590_31838">
<rect width="27" height="27" fill="white"/>
</clipPath>
</defs>
</svg>
