<svg width="30" height="30" viewBox="0 0 30 30" fill="none" xmlns="http://www.w3.org/2000/svg">
<g clip-path="url(#clip0_391_39532)">
<path d="M26.3548 16.7111C25.8201 16.3189 25.5006 15.6889 25.5006 15.0251C25.5006 14.3613 25.8201 13.7313 26.3541 13.3398L28.8246 11.5285C29.2184 11.239 29.3812 10.7297 29.2274 10.2655C28.5914 8.35441 27.5856 6.61136 26.2371 5.08357C25.9123 4.71756 25.3888 4.60206 24.941 4.79856L22.1592 6.02184C21.5532 6.28885 20.8474 6.2506 20.2722 5.91834C19.6976 5.58683 19.3121 4.99582 19.2394 4.33655L18.9049 1.28247C18.8516 0.796452 18.4901 0.400441 18.0116 0.302188C16.0638 -0.0960726 14.017 -0.102823 12.0347 0.294688C11.5532 0.391441 11.1909 0.787452 11.1377 1.27572L10.8062 4.3103C10.7334 4.97032 10.3479 5.56133 9.77187 5.89284C9.19736 6.22435 8.49384 6.2641 7.88557 5.99634L5.08875 4.76631C4.64473 4.56981 4.11972 4.68381 3.79496 5.04907C2.44192 6.57086 1.43165 8.31166 0.788879 10.2212C0.632875 10.6847 0.794879 11.197 1.19014 11.4872L3.64496 13.2873C4.18047 13.6803 4.49998 14.3103 4.49998 14.9741C4.49998 15.6379 4.18047 16.2679 3.64646 16.6594L1.17589 18.4707C0.782128 18.7602 0.619374 19.2695 0.773128 19.7337C1.40915 21.6448 2.41492 23.3878 3.76346 24.9156C4.08822 25.2824 4.61323 25.3986 5.0595 25.2006L7.84132 23.9773C8.44734 23.7103 9.15236 23.7486 9.72837 24.0808C10.3029 24.4123 10.6884 25.0034 10.7612 25.6626L11.0957 28.7167C11.1489 29.2027 11.5104 29.5987 11.9889 29.697C12.9745 29.898 13.987 30 15.0003 30C15.9888 30 16.9863 29.9002 17.9651 29.7037C18.4466 29.607 18.8089 29.211 18.8621 28.7227L19.1944 25.6881C19.2671 25.0281 19.6526 24.4371 20.2287 24.1056C20.8032 23.7748 21.5074 23.7358 22.115 24.0021L24.9118 25.2321C25.3573 25.4294 25.8808 25.3154 26.2056 24.9494C27.5586 23.4276 28.5689 21.6868 29.2117 19.7772C29.3677 19.3137 29.2057 18.8014 28.8104 18.5112L26.3548 16.7111ZM15.0003 20.2497C12.1007 20.2497 9.75012 17.8992 9.75012 14.9996C9.75012 12.1 12.1007 9.74945 15.0003 9.74945C17.8998 9.74945 20.2504 12.1 20.2504 14.9996C20.2504 17.8992 17.8998 20.2497 15.0003 20.2497Z" fill="#4D5D71"/>
</g>
<defs>
<clipPath id="clip0_391_39532">
<rect width="30" height="30" fill="white"/>
</clipPath>
</defs>
</svg>
