<svg width="21" height="23" viewBox="0 0 21 23" fill="none" xmlns="http://www.w3.org/2000/svg">
<path d="M20.9966 15.157C20.9943 14.9663 20.9924 9.84994 20.9924 9.84994C20.9924 8.31969 19.1466 7.80924 17.9947 8.40279C17.7322 7.05915 15.7523 6.68187 14.5823 7.33181C14.1964 6.1551 12.4134 5.82531 11.2899 6.39511V1.71276C11.2894 0.768274 10.3265 0 9.14248 0C7.95753 0 6.99366 0.768274 6.99366 1.71276V11.681L4.53161 9.9245C3.61288 9.269 2.7742 9.13137 2.23199 9.13137C1.2872 9.13137 0.494597 9.54463 0.16229 10.2098C-0.269615 11.0752 0.172529 12.1195 1.34584 13.0032C1.38773 13.0343 1.46638 13.0863 1.57343 13.1553C2.20221 13.5604 3.87212 14.6365 4.08993 15.9353C4.56745 18.3054 6.38164 19.1349 7.70621 19.741C7.7602 19.7655 7.81279 19.7896 7.86538 19.8138V22.629C7.86538 22.8338 8.07342 23 8.33079 23H18.6863C18.9437 23 19.1517 22.8338 19.1517 22.629V19.813C21.0269 18.1986 21.0148 16.9803 20.9966 15.157Z" fill="#0072E1"/>
</svg>
