<svg width="33" height="25" viewBox="0 0 33 25" fill="none" xmlns="http://www.w3.org/2000/svg">
<path d="M12.9999 19.534C15.0566 19.534 16.7239 17.8667 16.7239 15.8099C16.7239 13.7532 15.0566 12.0859 12.9999 12.0859C10.9432 12.0859 9.27588 13.7532 9.27588 15.8099C9.27588 17.8667 10.9432 19.534 12.9999 19.534Z" fill="#0072E1"/>
<path d="M33 7.81152C33 11.6775 29.866 14.8115 26 14.8115C22.134 14.8115 19 11.6775 19 7.81152C19 3.94553 22.134 0.811523 26 0.811523C29.866 0.811523 33 3.94553 33 7.81152Z" fill="#FB6C76"/>
<path fill-rule="evenodd" clip-rule="evenodd" d="M17.0017 7.99022C15.7055 7.6225 14.3591 7.43359 13 7.43359C10.4101 7.43359 7.8665 8.11952 5.62777 9.42162C3.38905 10.7237 1.53512 12.5955 0.25457 14.8466C0.0877075 15.1412 0 15.474 0 15.8125C0 16.1511 0.0877075 16.4839 0.25457 16.7785C1.53468 19.0298 3.38856 20.9017 5.62743 22.2034C7.8663 23.5052 10.4102 24.1904 13 24.1892C15.5898 24.1904 18.1337 23.5052 20.3726 22.2034C22.6018 20.9073 24.4493 19.0459 25.7289 16.8075C20.943 16.6659 17.0952 12.788 17.0017 7.99022ZM16.1034 11.1656C15.1848 10.5518 14.1048 10.2242 13 10.2242C11.5185 10.2242 10.0977 10.8127 9.05009 11.8603C8.00251 12.9079 7.41398 14.3287 7.41398 15.8102C7.41398 16.915 7.7416 17.995 8.3554 18.9136C8.9692 19.8323 9.84161 20.5482 10.8623 20.971C11.883 21.3938 13.0062 21.5044 14.0898 21.2889C15.1734 21.0734 16.1687 20.5414 16.9499 19.7601C17.7311 18.9789 18.2631 17.9836 18.4787 16.9C18.6942 15.8164 18.5836 14.6933 18.1608 13.6725C17.738 12.6518 17.022 11.7794 16.1034 11.1656Z" fill="#0072E1"/>
</svg>
