<svg xmlns="http://www.w3.org/2000/svg" xmlns:xlink="http://www.w3.org/1999/xlink" width="167" height="36" viewBox="0 0 167 36">
  <defs>
    <linearGradient id="linear-gradient" x1="0.375" y1="0.969" x2="0.618" y2="0.019" gradientUnits="objectBoundingBox">
      <stop offset="0" stop-color="#0bdeff"/>
      <stop offset="1" stop-color="#4f3ac2"/>
    </linearGradient>
    <linearGradient id="linear-gradient-2" x1="0.17" y1="0.11" x2="0.67" y2="0.957" gradientUnits="objectBoundingBox">
      <stop offset="0" stop-color="#0baeff"/>
      <stop offset="0.081" stop-color="#1ea2f7"/>
      <stop offset="0.289" stop-color="#4985e4"/>
      <stop offset="0.491" stop-color="#6c6ed5"/>
      <stop offset="0.681" stop-color="#845ecb"/>
      <stop offset="0.856" stop-color="#9354c4"/>
      <stop offset="1" stop-color="#9851c2"/>
    </linearGradient>
  </defs>
  <g id="Logo_5.0_-_Beta_BA_Helpdesk" data-name="Logo 5.0 - (Beta) BA Helpdesk" transform="translate(-87.229 -9.587)">
    <g id="Grupo_4363" data-name="Grupo 4363" transform="translate(133.12 9.587)">
      <path id="Caminho_3299" data-name="Caminho 3299" d="M4.332-8.32H6.447a4.242,4.242,0,0,0,.916-.093,2.815,2.815,0,0,0,.795-.308,1.531,1.531,0,0,0,.59-.605,1.921,1.921,0,0,0,.214-.937,1.478,1.478,0,0,0-.731-1.44,5.17,5.17,0,0,0-2.3-.386h-1.6Zm.029,6.2H6.593q2.993,0,2.993-2A1.962,1.962,0,0,0,8.918-5.84a4.379,4.379,0,0,0-2.384-.469H4.361ZM1.855,0V-14.219H5.784q.614,0,1.1.024T8-14.087a6.5,6.5,0,0,1,1.106.234,5.167,5.167,0,0,1,.965.425,2.878,2.878,0,0,1,.8.649,3,3,0,0,1,.517.938,3.755,3.755,0,0,1,.2,1.265A3.15,3.15,0,0,1,9.713-7.539a3.189,3.189,0,0,1,1.9,1.284,3.921,3.921,0,0,1,.634,2.241A3.627,3.627,0,0,1,11.926-2.5a3.889,3.889,0,0,1-.946,1.274,4.417,4.417,0,0,1-1.643.894A7.528,7.528,0,0,1,7.032,0ZM18.438-5.781h3.8q-1.121-3.33-1.882-5.537Q19.725-9.473,18.438-5.781ZM13.447,0l5.7-14.219h2.515L27.417,0h-2.8L23.244-3.467H17.512L16.167,0ZM35.255,0V-14.219h2.476v5.85h6.658v-5.85h2.476V0H44.438V-6.221H37.78V0ZM52.364-6.211h4.972a2.747,2.747,0,0,0-.79-1.631,2.133,2.133,0,0,0-1.5-.566,2.631,2.631,0,0,0-1.745.586A2.85,2.85,0,0,0,52.364-6.211ZM55.22.225a5.407,5.407,0,0,1-3.982-1.445A5.088,5.088,0,0,1,49.78-5a5.716,5.716,0,0,1,.351-2,5.369,5.369,0,0,1,.989-1.68,4.514,4.514,0,0,1,1.618-1.162,5.343,5.343,0,0,1,2.169-.43,4.9,4.9,0,0,1,2.076.41,3.429,3.429,0,0,1,1.4,1.147,5.249,5.249,0,0,1,.765,1.655A7.763,7.763,0,0,1,59.4-5.029a1.44,1.44,0,0,1-.049.43H52.334a2.837,2.837,0,0,0,.892,2.168,3.326,3.326,0,0,0,2.218.7A5.462,5.462,0,0,0,58.6-2.8l.653,1.758a7.241,7.241,0,0,1-1.906.962A6.957,6.957,0,0,1,55.22.225ZM61.869,0V-14.229h2.388V0Zm10.08-1.729A2.454,2.454,0,0,0,73.124-2a2.03,2.03,0,0,0,.79-.737,3.652,3.652,0,0,0,.429-1.04,5.178,5.178,0,0,0,.141-1.245,4.973,4.973,0,0,0-.253-1.65,2.521,2.521,0,0,0-.843-1.182,2.286,2.286,0,0,0-1.448-.459,2.266,2.266,0,0,0-1.433.454,2.512,2.512,0,0,0-.838,1.162,4.811,4.811,0,0,0-.253,1.626A5.344,5.344,0,0,0,69.556-3.8a3.622,3.622,0,0,0,.434,1.055A2.091,2.091,0,0,0,70.784-2,2.4,2.4,0,0,0,71.949-1.729ZM67.172,3.857V-6.65q0-.869-.185-3.369h2.564v1.436A2.041,2.041,0,0,1,70.53-9.7a3.739,3.739,0,0,1,2.111-.571,3.873,3.873,0,0,1,2.325.728,4.541,4.541,0,0,1,1.521,1.89A6.205,6.205,0,0,1,77-5.127a6.5,6.5,0,0,1-.3,1.978,5.858,5.858,0,0,1-.858,1.709A4.089,4.089,0,0,1,74.415-.229,4.057,4.057,0,0,1,72.5.225,3.518,3.518,0,0,1,70.5-.332a2.053,2.053,0,0,1-.946-1.045V3.857ZM84.135-1.729A2.4,2.4,0,0,0,85.295-2a2.027,2.027,0,0,0,.785-.742,3.731,3.731,0,0,0,.429-1.04A5.031,5.031,0,0,0,86.65-5a4.134,4.134,0,0,0-.634-2.388,2.153,2.153,0,0,0-1.9-.923,2.23,2.23,0,0,0-1.428.459,2.521,2.521,0,0,0-.829,1.172,4.974,4.974,0,0,0-.249,1.641,5.239,5.239,0,0,0,.141,1.25,3.713,3.713,0,0,0,.429,1.05A2.019,2.019,0,0,0,82.97-2,2.433,2.433,0,0,0,84.135-1.729Zm-.5,1.953A4.239,4.239,0,0,1,80.386-1.2a5.336,5.336,0,0,1-1.311-3.76,6.58,6.58,0,0,1,.3-2.012,5.48,5.48,0,0,1,.873-1.689,3.98,3.98,0,0,1,1.5-1.177,4.829,4.829,0,0,1,2.076-.435,3.376,3.376,0,0,1,1.75.425,2.846,2.846,0,0,1,1,.884v-5.264h2.4V-2.676q0,.059.088,2.676H86.582l-.02-1.279a1.59,1.59,0,0,1-.292.459,3.334,3.334,0,0,1-.546.483,2.812,2.812,0,0,1-.887.405A4.347,4.347,0,0,1,83.638.225ZM94.01-6.211h4.972a2.747,2.747,0,0,0-.79-1.631,2.133,2.133,0,0,0-1.5-.566,2.631,2.631,0,0,0-1.745.586A2.85,2.85,0,0,0,94.01-6.211ZM96.867.225a5.407,5.407,0,0,1-3.982-1.445A5.088,5.088,0,0,1,91.427-5a5.716,5.716,0,0,1,.351-2,5.369,5.369,0,0,1,.99-1.68,4.513,4.513,0,0,1,1.618-1.162,5.343,5.343,0,0,1,2.169-.43,4.9,4.9,0,0,1,2.076.41,3.429,3.429,0,0,1,1.4,1.147,5.249,5.249,0,0,1,.765,1.655,7.763,7.763,0,0,1,.249,2.031A1.439,1.439,0,0,1,101-4.6H93.981a2.837,2.837,0,0,0,.892,2.168,3.326,3.326,0,0,0,2.218.7A5.462,5.462,0,0,0,100.249-2.8l.653,1.758A7.241,7.241,0,0,1,99-.083,6.957,6.957,0,0,1,96.867.225Zm10.47,0a7.533,7.533,0,0,1-2.418-.371,5.8,5.8,0,0,1-1.755-.889l.6-1.738a5.088,5.088,0,0,0,1.55.786,5.767,5.767,0,0,0,1.8.308,2.234,2.234,0,0,0,1.223-.273.986.986,0,0,0,.414-.889v-.176a.691.691,0,0,0-.244-.532,3.549,3.549,0,0,0-1.121-.5l-1.423-.459q-.546-.176-.907-.327a5.177,5.177,0,0,1-.736-.386,2.136,2.136,0,0,1-.585-.513,2.317,2.317,0,0,1-.341-.684,3.019,3.019,0,0,1-.132-.933,2.878,2.878,0,0,1,.3-1.338,2.294,2.294,0,0,1,.824-.908,4,4,0,0,1,1.17-.493,5.815,5.815,0,0,1,1.414-.161,7.691,7.691,0,0,1,1.911.244,5.447,5.447,0,0,1,1.677.723l-.624,1.66a6.613,6.613,0,0,0-1.37-.527,5.424,5.424,0,0,0-1.418-.215,2.608,2.608,0,0,0-1.2.205.71.71,0,0,0-.37.674A.875.875,0,0,0,105.7-7a1.267,1.267,0,0,0,.487.361,9.919,9.919,0,0,0,1.189.459l1.3.439a5.479,5.479,0,0,1,1.253.576,2.228,2.228,0,0,1,.76.889,3.224,3.224,0,0,1,.288,1.445,3.151,3.151,0,0,1-.219,1.2,2.518,2.518,0,0,1-.575.879,3.066,3.066,0,0,1-.838.566,4.1,4.1,0,0,1-.98.317A5.569,5.569,0,0,1,107.337.225ZM113.127,0V-14.229h2.418v8.3l3.617-4.092H122.5l-4.767,4.844L122.808,0h-3.2l-4.065-4.336V0Z" transform="translate(-1.699 14.229)" fill="#0080fc"/>
      <g id="Camada_1" data-name="Camada 1" transform="translate(49.582 23.381)">
        <path id="Caminho_3200" data-name="Caminho 3200" d="M.527,555.708A.533.533,0,0,1,0,555.181V545.8a.533.533,0,0,1,.527-.527H3.164c2.187,0,3.164,1.087,3.164,2.761a2.149,2.149,0,0,1-1.5,2.11,2.475,2.475,0,0,1,1.985,2.59,2.837,2.837,0,0,1-3.179,2.978Zm.527-5.878H3.148c1.381,0,2.11-.713,2.11-1.8,0-1.117-.667-1.8-2.11-1.8H1.055Zm0,4.917H3.612a1.871,1.871,0,0,0,2.125-2.016,1.894,1.894,0,0,0-2.125-2H1.055Z" transform="translate(0 -544.665)" fill="#5b5b5b"/>
        <path id="Caminho_3201" data-name="Caminho 3201" d="M131.041,596.965v4.048c0,1.008.326,1.877,1.893,1.877s1.892-.869,1.892-1.877v-4.048a.5.5,0,0,1,.511-.5.486.486,0,0,1,.481.5v4.048c0,1.474-.481,2.823-2.884,2.823s-2.885-1.349-2.885-2.823v-4.048a.489.489,0,0,1,.5-.5A.5.5,0,0,1,131.041,596.965Z" transform="translate(-121.736 -592.591)" fill="#5b5b5b"/>
        <path id="Caminho_3202" data-name="Caminho 3202" d="M247.72,555.36c0-.448.217-.62.589-.62s.589.17.589.62a.589.589,0,0,1-1.179,0Z" transform="translate(-231.884 -553.53)" fill="#66b3ff"/>
        <path id="Caminho_3203" data-name="Caminho 3203" d="M297.233,536.306v8.857c0,.62.2.884.621.884a.465.465,0,1,1,0,.93c-1.039,0-1.614-.62-1.614-1.814v-8.857a.511.511,0,0,1,.5-.5A.5.5,0,0,1,297.233,536.306Z" transform="translate(-277.302 -535.81)" fill="#5b5b5b"/>
        <path id="Caminho_3204" data-name="Caminho 3204" d="M347.327,540.6v-4.3a.5.5,0,1,1,.992,0V544a2.8,2.8,0,0,1-3.04,3.056c-2,0-3.18-1.195-3.18-3.738s1.117-3.723,3.118-3.723A2.627,2.627,0,0,1,347.327,540.6Zm0,1.257a2.35,2.35,0,0,0-2.046-1.365c-1.411,0-2.187.915-2.187,2.823,0,1.939.76,2.838,2.187,2.838A1.914,1.914,0,0,0,347.327,544Z" transform="translate(-320.231 -535.81)" fill="#5b5b5b"/>
        <path id="Caminho_3205" data-name="Caminho 3205" d="M466.808,595a2.8,2.8,0,0,1,2.963,3.025c0,.447,0,.992-.621.992h-4.529a2.27,2.27,0,0,0,2.342,2.528,2.861,2.861,0,0,0,1.862-.667.432.432,0,0,1,.279-.093.448.448,0,0,1,.448.448.464.464,0,0,1-.171.357,3.454,3.454,0,0,1-2.42.869c-2.063,0-3.35-1.132-3.35-3.738C463.613,596.335,464.791,595,466.808,595Zm0,.9a2.11,2.11,0,0,0-2.187,2.25h4.172c0-1.116-.387-2.249-1.986-2.249Z" transform="translate(-433.973 -591.216)" fill="#5b5b5b"/>
        <path id="Caminho_3206" data-name="Caminho 3206" d="M584.983,596.741a2.242,2.242,0,0,1,2.156-1.241.481.481,0,0,1,0,.959c-1.427,0-2.156.993-2.156,2.42v3.474a.5.5,0,0,1-.993,0v-6.295a.5.5,0,0,1,.993,0Z" transform="translate(-546.658 -591.684)" fill="#5b5b5b"/>
        <path id="Caminho_3207" data-name="Caminho 3207" d="M650.329,596.769a.505.505,0,0,1-.4.217.447.447,0,0,1-.448-.447.48.48,0,0,1,.077-.263,2.885,2.885,0,0,1,2.575-1.225,2.505,2.505,0,0,1,2.792,2.637v4.264a.481.481,0,0,1-.959,0v-.558a2.461,2.461,0,0,1-2.218,1.117c-1.644,0-2.685-.791-2.685-2.218,0-1.365,1.039-2.187,2.714-2.187h2.187v-.419a1.641,1.641,0,0,0-1.83-1.706A2.145,2.145,0,0,0,650.329,596.769Zm3.63,2.854v-.651h-2.187c-1.008,0-1.706.419-1.706,1.318,0,.807.558,1.318,1.768,1.318A1.972,1.972,0,0,0,653.959,599.623Z" transform="translate(-607.568 -591.263)" fill="#66b3ff"/>
        <path id="Caminho_3208" data-name="Caminho 3208" d="M770.833,536.306v8.857c0,.62.2.884.621.884a.465.465,0,1,1,0,.93c-1.039,0-1.613-.62-1.613-1.814v-8.857a.511.511,0,0,1,.5-.5A.5.5,0,0,1,770.833,536.306Z" transform="translate(-720.627 -535.81)" fill="#66b3ff"/>
        <path id="Caminho_3209" data-name="Caminho 3209" d="M823.992,536.306v8.857c0,.62.2.884.62.884a.465.465,0,1,1,0,.93c-1.036,0-1.612-.62-1.612-1.814v-8.857a.511.511,0,0,1,.5-.5A.5.5,0,0,1,823.992,536.306Z" transform="translate(-770.389 -535.81)" fill="#66b3ff"/>
        <path id="Caminho_3210" data-name="Caminho 3210" d="M250.172,603.263a.5.5,0,1,1-.992,0v-6.3a.5.5,0,1,1,.992,0Z" transform="translate(-233.251 -592.592)" fill="#5b5b5b"/>
      </g>
      <path id="Caminho_3301" data-name="Caminho 3301" d="M3.213-.864A1.26,1.26,0,0,0,3.806-1a1.044,1.044,0,0,0,.405-.369,1.848,1.848,0,0,0,.225-.518,2.357,2.357,0,0,0,.076-.61,2.057,2.057,0,0,0-.322-1.191,1.066,1.066,0,0,0-.937-.469,1.231,1.231,0,0,0-1.016.471A1.816,1.816,0,0,0,1.86-2.515,2.178,2.178,0,0,0,2-1.707a1.392,1.392,0,0,0,.457.6A1.2,1.2,0,0,0,3.213-.864Zm.225.977A1.934,1.934,0,0,1,2.522-.1,1.468,1.468,0,0,1,1.929-.62V0H.688Q.7-.332.708-.591T.723-.959q0-.11.007-.19t0-.11V-7.114h1.2v2.808a.68.68,0,0,1,.122-.215,1.681,1.681,0,0,1,.276-.271,1.517,1.517,0,0,1,.488-.244,2.207,2.207,0,0,1,.681-.1,2.058,2.058,0,0,1,1.665.728,2.826,2.826,0,0,1,.61,1.88,3.017,3.017,0,0,1-.188,1.074,2.53,2.53,0,0,1-.505.84,2.294,2.294,0,0,1-.745.535A2.165,2.165,0,0,1,3.438.112ZM7.544,2.173l-.508-.82A3.768,3.768,0,0,0,8.054.808,1.371,1.371,0,0,0,8.511.132l.068-.244L6.45-5.01H7.71L9.16-1.416,10.41-5.01h1.235L9.614.273a3.292,3.292,0,0,1-.552.916,3,3,0,0,1-.713.623A3.684,3.684,0,0,1,7.544,2.173Z" transform="translate(32.256 33.381)" fill="#434343" opacity="0.447"/>
      <path id="Caminho_3300" data-name="Caminho 3300" d="M3.29-5.15a2.155,2.155,0,0,1,1.17.32,2.119,2.119,0,0,1,.79.9A3.129,3.129,0,0,1,5.53-2.56a3.2,3.2,0,0,1-.28,1.375,2.175,2.175,0,0,1-.79.925A2.106,2.106,0,0,1,3.29.07,1.987,1.987,0,0,1,2.26-.19a1.68,1.68,0,0,1-.67-.74V0H.78V-7.36h.81v3.22a1.605,1.605,0,0,1,.665-.75A2.014,2.014,0,0,1,3.29-5.15ZM3.14-.6a1.376,1.376,0,0,0,1.14-.515A2.266,2.266,0,0,0,4.69-2.56a2.186,2.186,0,0,0-.405-1.41,1.39,1.39,0,0,0-1.145-.5,1.387,1.387,0,0,0-1.15.5,2.241,2.241,0,0,0-.4,1.43,2.263,2.263,0,0,0,.4,1.435A1.381,1.381,0,0,0,3.14-.6Zm7.85-1.94H7.3a2.159,2.159,0,0,0,.445,1.45A1.6,1.6,0,0,0,9.01-.6a2.542,2.542,0,0,0,1.62-.59l.27.59a2.344,2.344,0,0,1-.845.49A3.176,3.176,0,0,1,9,.07a2.449,2.449,0,0,1-1.85-.7,2.63,2.63,0,0,1-.67-1.9,2.991,2.991,0,0,1,.3-1.365,2.238,2.238,0,0,1,.84-.925,2.311,2.311,0,0,1,1.23-.33,1.972,1.972,0,0,1,1.57.655,2.658,2.658,0,0,1,.57,1.8ZM8.86-4.52a1.417,1.417,0,0,0-1.025.38A1.836,1.836,0,0,0,7.33-3.07h2.93a1.721,1.721,0,0,0-.415-1.08A1.3,1.3,0,0,0,8.86-4.52Zm4.41.13v2.75a1.077,1.077,0,0,0,.23.785.891.891,0,0,0,.65.225,1.639,1.639,0,0,0,.54-.09v.69a2.275,2.275,0,0,1-.7.1,1.521,1.521,0,0,1-1.125-.405,1.621,1.621,0,0,1-.4-1.195V-4.39h-.98v-.64h.98V-6.32l.81-.29v1.58h1.44v.64Zm6.85-.64V0h-.8V-.91a1.594,1.594,0,0,1-.665.725A2.045,2.045,0,0,1,17.62.07a2.148,2.148,0,0,1-1.175-.32,2.1,2.1,0,0,1-.78-.9A3.178,3.178,0,0,1,15.39-2.52a3.2,3.2,0,0,1,.28-1.375,2.187,2.187,0,0,1,.785-.925,2.081,2.081,0,0,1,1.165-.33,1.987,1.987,0,0,1,1.03.26,1.691,1.691,0,0,1,.67.73v-.87ZM17.78-.6a1.37,1.37,0,0,0,1.14-.505,2.263,2.263,0,0,0,.4-1.435,2.241,2.241,0,0,0-.4-1.43,1.375,1.375,0,0,0-1.14-.5,1.4,1.4,0,0,0-1.155.515A2.229,2.229,0,0,0,16.21-2.52a2.184,2.184,0,0,0,.41,1.42A1.415,1.415,0,0,0,17.78-.6Z" transform="translate(-0.78 32.381)" fill="#434343" opacity="0.868"/>
      <line id="Linha_60" data-name="Linha 60" y2="13.119" transform="translate(26.226 22.881)" fill="none" stroke="#707070" stroke-width="1" opacity="0.284"/>
    </g>
    <g id="Grupo_4489" data-name="Grupo 4489" transform="translate(87.229 9.587)">
      <path id="Caminho_3297" data-name="Caminho 3297" d="M205.675,184.364a2.385,2.385,0,0,0-.576.168,17.263,17.263,0,0,0-33.213-.168c-1.416-.1-1.968,3.194-1.992,5.067-.048,1.945.96,5.139,2.352,5.139s1.176-.624,1.08-.913a17.048,17.048,0,0,1-.168-8.286.471.471,0,0,0,.024-.312A15.863,15.863,0,1,1,190.869,204.9a3.009,3.009,0,0,0-2.208-.889c-1.464,0-2.64.865-2.64,1.945s1.176,1.945,2.64,1.945a2.565,2.565,0,0,0,2.616-1.633,17.406,17.406,0,0,0,13.655-11.72,3.368,3.368,0,0,0,.552.048c1.32,0,2.28-3.194,2.232-5.139C207.643,187.486,207.091,184.1,205.675,184.364Z" transform="translate(-169.893 -171.9)" fill="url(#linear-gradient)"/>
      <path id="Caminho_3298" data-name="Caminho 3298" d="M204.663,187.8a13.471,13.471,0,0,0-11.783,19.986l-1.368,7.591,6.551-2.354a13.316,13.316,0,0,0,6.6,1.73,13.476,13.476,0,0,0,0-26.952Z" transform="translate(-186.087 -183.984)" fill="url(#linear-gradient-2)"/>
    </g>
  </g>
</svg>
