<svg width="159" height="151" viewBox="0 0 159 151" fill="none" xmlns="http://www.w3.org/2000/svg">
<path d="M150 52.7999C149 52.9999 148.2 53.1999 147.6 53.4999C139.1 23.1999 111.3 0.899902 78.2999 0.899902C45.5999 0.899902 17.8999 22.7999 9.19992 52.7999C3.29992 52.3999 0.999918 66.0999 0.899918 73.8999C0.699918 81.9999 4.89992 95.2999 10.6999 95.2999C16.4999 95.2999 15.5999 92.6999 15.1999 91.4999C15.1999 91.4999 10.1999 76.3999 14.4999 56.9999C14.4999 56.9999 14.7999 56.3999 14.5999 55.6999C22.1999 27.4999 47.8999 6.79991 78.3999 6.79991C114.8 6.79991 144.5 36.4999 144.5 72.8999C144.5 106 120.1 133.4 88.2999 138.3C86.2999 136.1 82.8999 134.6 79.0999 134.6C72.9999 134.6 68.0999 138.2 68.0999 142.7C68.0999 147.2 72.9999 150.8 79.0999 150.8C84.5999 150.8 89.0999 147.8 89.9999 144C116.8 139.6 138.6 120.4 146.9 95.1999C147.5 95.2999 148.3 95.3999 149.2 95.3999C154.7 95.3999 158.7 82.0999 158.5 73.9999C158.2 65.7999 155.9 51.6999 150 52.7999Z" fill="url(#paint0_linear)"/>
<path d="M78.2997 16.7998C47.2997 16.7998 22.1997 41.8998 22.1997 72.8998C22.1997 82.6998 24.6997 91.8998 29.1997 99.9998L23.4997 131.6L50.7997 121.8C58.8997 126.4 68.2997 129 78.2997 129C109.3 129 134.4 103.9 134.4 72.8998C134.4 41.8998 109.2 16.7998 78.2997 16.7998Z" fill="url(#paint1_linear)"/>
<defs>
<linearGradient id="paint0_linear" x1="60.0615" y1="146.194" x2="98.2384" y2="3.7153" gradientUnits="userSpaceOnUse">
<stop stop-color="#0BDEFF"/>
<stop offset="1" stop-color="#4F3AC2"/>
</linearGradient>
<linearGradient id="paint1_linear" x1="41.2273" y1="29.4835" x2="97.3325" y2="126.661" gradientUnits="userSpaceOnUse">
<stop stop-color="#0BAEFF"/>
<stop offset="0.0807535" stop-color="#1EA2F7"/>
<stop offset="0.2891" stop-color="#4985E4"/>
<stop offset="0.4907" stop-color="#6C6ED5"/>
<stop offset="0.6811" stop-color="#845ECB"/>
<stop offset="0.8558" stop-color="#9354C4"/>
<stop offset="1" stop-color="#9851C2"/>
</linearGradient>
</defs>
</svg>
