<svg width="303" height="84" viewBox="0 0 303 84" fill="none" xmlns="http://www.w3.org/2000/svg">
<path d="M147.404 28.9345H157.215C158.601 28.9083 159.974 29.2 161.229 29.787C162.353 30.315 163.301 31.1559 163.96 32.209C164.63 33.3235 164.969 34.6054 164.937 35.9052C164.974 37.1371 164.701 38.3584 164.142 39.4572C163.618 40.4291 162.756 41.1754 161.719 41.5551C162.637 41.7488 163.482 42.193 164.162 42.8383C164.89 43.5208 165.459 44.3543 165.83 45.2803C166.209 46.1907 166.404 47.1668 166.405 48.1529C166.426 49.5238 166.1 50.8777 165.457 52.089C164.827 53.2552 163.881 54.2206 162.728 54.875C161.436 55.6201 159.965 55.9978 158.475 55.9673H147.213L147.404 28.9345ZM157.597 40.1587C158.275 40.1728 158.942 39.9858 159.514 39.6215C160.067 39.2601 160.506 38.7489 160.78 38.1474C161.072 37.484 161.215 36.7652 161.202 36.0407C161.216 35.338 161.019 34.6473 160.636 34.0582C160.245 33.4785 159.696 33.0232 159.054 32.7462C158.352 32.4489 157.596 32.2978 156.833 32.3022H151.086V40.1499L157.597 40.1587ZM158.306 52.5507C159.09 52.5633 159.863 52.3581 160.538 51.958C161.196 51.5629 161.73 50.9925 162.081 50.3107C162.443 49.6334 162.627 48.8761 162.619 48.1085C162.62 47.3097 162.422 46.5231 162.044 45.8197C161.668 45.1055 161.122 44.4954 160.453 44.0437C159.783 43.6006 158.996 43.3686 158.193 43.3777H151.086V52.5529L158.306 52.5507Z" fill="#4D5D71"/>
<path d="M173.805 37.65V47.9929C173.786 48.9048 173.952 49.811 174.294 50.6569C174.578 51.3649 175.06 51.9765 175.682 52.4195C176.309 52.8425 177.053 53.0598 177.809 53.0411C179.12 53.0174 180.379 52.5288 181.362 51.6625C181.898 51.2068 182.309 50.6235 182.56 49.9665C182.86 49.1879 183.006 48.3587 182.99 47.5245V37.6411H186.544V55.9515H183.177L182.977 53.2276C182.478 54.2129 181.675 55.0121 180.687 55.5076C179.642 56.0675 178.473 56.3574 177.287 56.3512C176.316 56.4103 175.344 56.2548 174.44 55.8956C173.536 55.5365 172.723 54.9826 172.057 54.2733C170.739 52.6115 170.084 50.5202 170.218 48.4036V37.6589L173.805 37.65Z" fill="#4D5D71"/>
<path d="M191.656 30.5817C192.138 30.15 192.762 29.9113 193.409 29.9113C194.056 29.9113 194.68 30.15 195.162 30.5817C195.389 30.792 195.57 31.0468 195.694 31.3302C195.818 31.6137 195.882 31.9196 195.882 32.2289C195.882 32.5382 195.818 32.8441 195.694 33.1275C195.57 33.411 195.389 33.6658 195.162 33.8761C194.682 34.3075 194.06 34.5461 193.415 34.5461C192.769 34.5461 192.147 34.3075 191.667 33.8761C191.439 33.6665 191.257 33.4119 191.132 33.1284C191.008 32.8448 190.943 32.5386 190.943 32.2289C190.943 31.9192 191.008 31.6129 191.132 31.3294C191.257 31.0459 191.439 30.7913 191.667 30.5817H191.656ZM191.656 37.6501V55.9606H195.182L194.991 37.6501H191.656Z" fill="#4D5D71"/>
<path d="M203.831 55.9604H200.277V27.6711L203.831 27.882V55.9604Z" fill="#4D5D71"/>
<path d="M212.317 38.3981C213.725 37.6243 215.309 37.2281 216.916 37.2482C218.259 37.2262 219.589 37.511 220.805 38.0807C221.881 38.5703 222.784 39.3755 223.392 40.3895V27.6711H226.974V55.9604H223.774L223.392 53.1455C222.765 54.1624 221.852 54.9717 220.767 55.472C219.581 56.0559 218.275 56.3547 216.954 56.3445C215.332 56.3639 213.733 55.9574 212.317 55.1657C210.918 54.3729 209.765 53.2099 208.985 51.8046C208.114 50.2772 207.671 48.5433 207.702 46.7852C207.677 45.0432 208.102 43.3243 208.936 41.7947C209.71 40.3591 210.885 39.1791 212.317 38.3981ZM214.213 52.0555C215.143 52.575 216.189 52.8519 217.254 52.8604C218.319 52.8689 219.369 52.6089 220.307 52.1043C221.196 51.6046 221.927 50.8644 222.415 49.9687C222.93 48.9754 223.187 47.8683 223.161 46.7497C223.183 45.6135 222.909 44.4912 222.366 43.493C221.87 42.5809 221.103 41.8449 220.172 41.3862C219.274 40.9463 218.285 40.7235 217.285 40.7358C216.208 40.7239 215.146 40.9876 214.2 41.5017C213.285 41.9961 212.523 42.7316 211.997 43.6284C211.438 44.5723 211.152 45.653 211.173 46.7497C211.159 47.8402 211.441 48.914 211.988 49.8577C212.519 50.7759 213.288 51.5343 214.213 52.0533V52.0555Z" fill="#4D5D71"/>
<path d="M235.444 38.4359C236.912 37.6347 238.562 37.2256 240.235 37.2482C241.876 37.2213 243.496 37.6279 244.929 38.427C246.306 39.2095 247.43 40.3697 248.167 41.7703C248.971 43.3048 249.373 45.0179 249.336 46.7497C249.346 46.9775 249.307 47.2049 249.22 47.4157C249.162 47.5227 249.122 47.6392 249.105 47.7598L234.427 48.1439C234.549 49.092 234.901 49.996 235.453 50.7768C235.986 51.5277 236.701 52.1306 237.532 52.5284C238.412 52.9426 239.375 53.1521 240.348 53.1411C241.054 53.1536 241.76 53.0993 242.455 52.979C242.972 52.884 243.463 52.6779 243.892 52.3752C244.365 52.0345 244.752 51.5883 245.023 51.072C245.74 51.2276 246.475 51.2859 247.208 51.2452H247.841C248.117 51.2268 248.394 51.2462 248.665 51.3029C247.942 52.8006 246.787 54.0477 245.349 54.8838C243.852 55.7403 242.15 56.1767 240.425 56.1469C238.739 56.1654 237.075 55.7569 235.588 54.9593C234.153 54.1931 232.957 53.0463 232.131 51.6448C231.254 50.1619 230.809 48.4632 230.847 46.7409C230.82 45.0255 231.239 43.3324 232.064 41.828C232.853 40.4048 234.024 39.23 235.444 38.4359ZM244.796 42.7649C244.279 42.0295 243.578 41.4418 242.764 41.0599C241.915 40.6547 240.984 40.4518 240.043 40.4672C238.695 40.4061 237.374 40.8655 236.355 41.7503C235.363 42.7117 234.748 43.996 234.62 45.3711H245.791C245.673 44.4345 245.33 43.5403 244.792 42.7649H244.796Z" fill="#4D5D71"/>
<path d="M253.013 37.65H256.386L256.577 41.7681C256.865 40.5214 257.527 39.3922 258.474 38.5314C259.384 37.8188 260.518 37.4522 261.674 37.4968C262.755 37.398 263.845 37.5554 264.854 37.9564L264.299 41.0977C263.95 40.9214 263.575 40.8015 263.189 40.7425C262.664 40.6769 262.136 40.648 261.607 40.6559C260.523 40.646 259.476 41.0538 258.685 41.7947C257.802 42.6293 257.184 43.7047 256.908 44.8872C256.764 45.4291 256.674 45.9838 256.639 46.5433C256.601 47.125 256.582 48.041 256.582 49.2916V55.9516H253.028L253.013 37.65Z" fill="#4D5D71"/>
<path d="M271.08 38.3982C272.503 37.6272 274.098 37.2314 275.717 37.2482C277.042 37.2334 278.353 37.5219 279.55 38.0918C280.626 38.5762 281.529 39.3779 282.137 40.3895V37.4591H285.691V55.9627H282.719L282.144 53.1478C281.525 54.171 280.614 54.9853 279.528 55.4854C278.344 56.0635 277.041 56.3583 275.723 56.3467C274.078 56.364 272.458 55.9442 271.029 55.1302C269.616 54.3252 268.449 53.1501 267.655 51.7314C266.814 50.2217 266.384 48.5176 266.409 46.7897C266.385 45.0453 266.818 43.3249 267.664 41.7992C268.451 40.36 269.637 39.1789 271.08 38.3982ZM273.15 52.0555C274.079 52.5751 275.125 52.8519 276.19 52.8604C277.255 52.869 278.306 52.6089 279.244 52.1044C280.133 51.6047 280.863 50.8645 281.351 49.9687C281.867 48.9756 282.125 47.8686 282.1 46.7498C282.114 45.6172 281.812 44.5031 281.227 43.533C280.681 42.6091 279.879 41.864 278.917 41.3885C278.493 41.1728 278.046 41.006 277.584 40.8912C277.132 40.7856 276.67 40.7342 276.205 40.738C275.126 40.7269 274.061 40.9905 273.112 41.5039C272.19 41.9988 271.419 42.7337 270.88 43.6307C270.321 44.5744 270.035 45.6552 270.056 46.752C270.042 47.8324 270.322 48.8963 270.866 49.8305C271.409 50.7647 272.195 51.5344 273.141 52.0577L273.15 52.0555Z" fill="#4D5D71"/>
<path d="M294.34 55.9604H290.787V27.6711L294.34 27.882V55.9604Z" fill="#4D5D71"/>
<path d="M303 55.9604H299.446V27.6711L303 27.882V55.9604Z" fill="#4D5D71"/>
<path d="M83.3217 82.7713C83.8764 83.1291 84.4791 83.4064 85.1117 83.5949C86.4937 84.0366 87.9665 84.113 89.3868 83.8169C91.3225 83.3549 93.08 82.3353 94.4414 80.8843C95.1587 80.1717 95.9005 79.4813 96.6467 78.7975C98.55 77.0593 100.5 75.3699 102.461 73.6916C104.298 72.1213 106.149 70.5673 108.013 69.0296C108.955 68.2459 109.923 67.4756 110.849 66.6853L110.891 66.6519C111.292 66.2497 111.517 65.7055 111.517 65.138C111.514 64.5711 111.289 64.028 110.891 63.6239C110.489 63.2233 109.944 62.9975 109.377 62.9956L108.808 63.0711C108.45 63.1696 108.124 63.3593 107.862 63.6217C106.318 64.8856 104.782 66.1591 103.254 67.4423C100.367 69.8643 97.4795 72.3041 94.6769 74.8193C93.984 75.4394 93.2977 76.0662 92.6181 76.6996C91.8764 77.3967 91.179 78.1559 90.3773 78.7842L90.8215 78.4489C90.2652 78.8832 89.6553 79.2443 89.007 79.5234L89.5179 79.3014C89.002 79.5166 88.461 79.6658 87.9077 79.7454L88.4763 79.67C87.9338 79.741 87.3842 79.741 86.8417 79.67L87.4103 79.7454C86.8693 79.6689 86.3402 79.5242 85.8357 79.3148L86.3465 79.5368C86.048 79.4195 85.7628 79.2706 85.4959 79.0928C85.1281 78.8781 84.7047 78.778 84.2796 78.805C83.8546 78.832 83.4473 78.9849 83.1096 79.2443C82.772 79.5037 82.5193 79.8578 82.3838 80.2614C82.2483 80.665 82.2362 81.0999 82.349 81.5104C82.5209 82.0372 82.8681 82.4893 83.3328 82.7913L83.3217 82.7713Z" fill="#0072E1"/>
<path d="M68.5975 82.7713C69.1522 83.1291 69.7549 83.4064 70.3875 83.5949C71.7695 84.0366 73.2424 84.113 74.6627 83.8169C76.5984 83.3549 78.3559 82.3353 79.7173 80.8843C80.4346 80.1717 81.1764 79.4813 81.9248 78.7975C83.8281 77.0593 85.778 75.3699 87.739 73.6916C89.5763 72.1213 91.427 70.5673 93.2911 69.0296C94.2327 68.2459 95.2009 67.4756 96.127 66.6853L96.1692 66.6519C96.5708 66.2502 96.7968 65.7059 96.7977 65.138C96.7932 64.5708 96.5678 64.0276 96.1692 63.6239C95.767 63.2231 95.2226 62.9972 94.6546 62.9956L94.0839 63.0711C93.7261 63.1696 93.4001 63.3593 93.1378 63.6217C91.5936 64.8856 90.0575 66.1591 88.5296 67.4423C85.6425 69.8643 82.7554 72.3041 79.9527 74.8193C79.2598 75.4394 78.5735 76.0662 77.894 76.6996C77.1522 77.3967 76.4549 78.1559 75.6531 78.7842L76.0973 78.4489C75.541 78.8833 74.9312 79.2444 74.2829 79.5234L74.7937 79.3014C74.2778 79.5166 73.7368 79.6658 73.1836 79.7454L73.7544 79.67C73.2118 79.741 72.6623 79.741 72.1198 79.67L72.6906 79.7454C72.1496 79.6689 71.6205 79.5242 71.116 79.3148L71.6268 79.5368C71.3283 79.4194 71.0432 79.2706 70.7762 79.0928C70.4084 78.8782 69.985 78.778 69.5599 78.805C69.1349 78.832 68.7276 78.9849 68.39 79.2443C68.0523 79.5037 67.7996 79.8578 67.6641 80.2614C67.5286 80.665 67.5165 81.0999 67.6293 81.5104C67.8009 82.0373 68.1483 82.4894 68.6131 82.7913L68.5975 82.7713Z" fill="#0072E1"/>
<path d="M122.064 43.3555C123.705 43.3555 125.036 42.0256 125.036 40.3851C125.036 38.7447 123.705 37.4148 122.064 37.4148C120.423 37.4148 119.093 38.7447 119.093 40.3851C119.093 42.0256 120.423 43.3555 122.064 43.3555Z" fill="#0072E1"/>
<path d="M81.618 49.5514L80.6076 48.9786L77.8315 47.4046L73.7207 45.0714L68.6506 42.1854L63.0696 38.9975C61.1671 37.9083 59.2653 36.8168 57.3643 35.7231C55.5462 34.6782 53.7302 33.6296 51.9166 32.5773C50.3353 31.6597 48.7563 30.7384 47.1795 29.8135C45.9581 29.0942 44.7366 28.3705 43.524 27.6356C42.8044 27.1916 42.0805 26.7654 41.3854 26.2881C41.301 26.2304 41.2188 26.1727 41.1366 26.1105L41.5807 26.4457L41.5563 26.4258C41.1443 26.0398 40.6061 25.8165 40.0417 25.7975C39.4743 25.802 38.931 26.0273 38.5271 26.4258C38.1261 26.8279 37.9003 27.372 37.8986 27.9398C37.8948 28.2216 37.9486 28.5013 38.0567 28.7616C38.1647 29.0219 38.3248 29.2575 38.5271 29.4538C39.1934 29.9653 39.889 30.4375 40.6103 30.868C41.6963 31.534 42.7911 32.1999 43.8882 32.8415C45.3821 33.7295 46.8804 34.6079 48.3832 35.4766C50.1599 36.5126 51.9365 37.5397 53.7132 38.558C55.6098 39.6517 57.5079 40.7424 59.4074 41.8302C61.307 42.918 63.1991 43.9999 65.0839 45.0759L70.3517 48.0773L74.7556 50.5792L77.9092 52.3663C78.4066 52.6482 78.9019 52.9346 79.4038 53.2121L79.466 53.2476C79.9664 53.5327 80.558 53.6123 81.1161 53.4696C81.5222 53.3573 81.8862 53.1279 82.1625 52.8099C82.4388 52.492 82.6153 52.0997 82.6698 51.682C82.7243 51.2644 82.6545 50.8399 82.469 50.4618C82.2835 50.0836 81.9906 49.7685 81.6269 49.5558L81.618 49.5514Z" fill="#0072E1"/>
<path d="M70.5139 58.6045L69.4546 57.9962L66.5675 56.3312L62.2702 53.8537L56.9935 50.8035L51.1638 47.4246C49.1769 46.2702 47.1907 45.1144 45.2053 43.957C43.3176 42.8559 41.4313 41.7511 39.5466 40.6426C37.9061 39.6776 36.2679 38.709 34.6319 37.7366C33.366 36.9818 32.1038 36.2211 30.8454 35.4545C30.1014 34.9994 29.353 34.5465 28.6356 34.0514C28.5512 33.9915 28.4668 33.9338 28.3847 33.8694L28.8288 34.2046L28.8044 34.1869C28.3924 33.8009 27.8542 33.5776 27.2898 33.5586C26.7224 33.5631 26.1791 33.7885 25.7752 34.1869C25.3744 34.5891 25.1485 35.1332 25.1467 35.7009C25.1429 35.9827 25.1967 36.2624 25.3047 36.5227C25.4128 36.783 25.5729 37.0186 25.7752 37.2149C26.4552 37.7361 27.164 38.2186 27.8983 38.6601C29.0265 39.3616 30.1635 40.0476 31.3028 40.7314C32.8604 41.6638 34.4209 42.5902 35.9844 43.5108C37.8247 44.5956 39.668 45.6768 41.5142 46.7542C43.4864 47.9071 45.4599 49.0571 47.435 50.2041L53.3868 53.6562L58.8456 56.813L63.4494 59.477L66.7451 61.375C67.2626 61.6725 67.7778 61.9767 68.2997 62.263L68.3664 62.3008C68.8668 62.5859 69.4584 62.6655 70.0164 62.5228C70.4225 62.4105 70.7865 62.181 71.0629 61.8631C71.3392 61.5452 71.5156 61.1528 71.5701 60.7352C71.6246 60.3175 71.5548 59.8931 71.3693 59.5149C71.1838 59.1368 70.8909 58.8216 70.5272 58.609L70.5139 58.6045Z" fill="#0072E1"/>
<path d="M60.1583 67.7486L59.0479 67.1026L56.0342 65.3265L51.5548 62.6959L46.056 59.4592L40.0042 55.8894C37.9314 54.667 35.8631 53.4423 33.7992 52.2154C31.833 51.0476 29.8691 49.8777 27.9074 48.7055C26.2003 47.6843 24.4976 46.6595 22.7994 45.6309C21.4832 44.8346 20.1714 44.0324 18.8641 43.2244C18.0957 42.7471 17.3095 42.272 16.5744 41.757C16.4878 41.6971 16.4012 41.6349 16.3168 41.5705L16.761 41.9057L16.7321 41.8835C16.3201 41.4975 15.7818 41.2743 15.2175 41.2552C14.65 41.2595 14.1066 41.4849 13.7029 41.8835C13.3021 42.2857 13.0763 42.8298 13.0744 43.3975C13.0707 43.6793 13.1246 43.9589 13.2326 44.2193C13.3407 44.4796 13.5007 44.7152 13.7029 44.9116C14.3983 45.4444 15.1218 45.9394 15.8704 46.3945C17.0386 47.1316 18.2178 47.8508 19.3971 48.5679C21.0154 49.5506 22.6365 50.5281 24.2607 51.5005C26.1751 52.6475 28.0924 53.7915 30.0127 54.9326C32.0736 56.158 34.136 57.3812 36.1999 58.6022C38.2638 59.8232 40.3218 61.039 42.3739 62.2497L48.0859 65.613L52.8851 68.4323L56.3207 70.4481C56.8604 70.7655 57.3978 71.0875 57.9419 71.3982L58.0108 71.4382C58.2539 71.5847 58.5236 71.6814 58.8045 71.7228C59.0853 71.7642 59.3715 71.7494 59.6466 71.6793C59.9216 71.6092 60.18 71.4852 60.4067 71.3144C60.6334 71.1437 60.824 70.9296 60.9672 70.6847C61.1105 70.4397 61.2036 70.1688 61.2413 69.8875C61.2789 69.6063 61.2603 69.3203 61.1865 69.0464C61.1127 68.7724 60.9851 68.5158 60.8113 68.2915C60.6375 68.0672 60.4208 67.8796 60.1738 67.7397L60.1583 67.7486Z" fill="#0072E1"/>
<path d="M0.63342 53.1722C2.47241 54.5137 4.39183 55.7415 6.38093 56.8485C9.9624 59.0152 13.5572 61.1612 17.1653 63.2865C21.3346 65.7521 25.5082 68.2097 29.6864 70.659C33.1968 72.7177 36.7094 74.7734 40.2242 76.8262C41.8321 77.7652 43.4289 78.7331 45.0546 79.6433C46.1761 80.2716 47.3265 80.8532 48.4635 81.4571C49.8285 82.2445 51.2698 82.8916 52.7653 83.3885C54.3246 83.8132 55.9594 83.8822 57.549 83.5905C60.782 82.8344 63.7874 81.3167 66.3146 79.1638C69.7613 76.5642 72.9593 73.6627 76.2595 70.8855C81.8937 66.1458 88.0832 61.9545 93.2733 56.7064C95.352 54.9094 96.9039 52.5824 97.7638 49.9732C97.9416 49.3075 97.9831 48.6128 97.8858 47.9308C97.7885 47.2487 97.5544 46.5933 97.1975 46.0039C96.2831 44.7363 95.0794 43.7051 93.6864 42.9958C92.1024 42.1398 90.4711 41.3742 88.8006 40.7025C86.7885 39.8478 84.8874 39.0708 82.751 38.0874C80.5178 37.0865 78.3568 35.9315 76.2839 34.6309C75.748 34.2875 75.2216 33.9301 74.7049 33.5586L74.3163 33.2722C74.2519 33.2256 73.8721 32.9592 74.1475 33.1457C74.4229 33.3322 73.992 33.0214 73.9254 32.9703C73.7774 32.8534 73.6337 32.7357 73.4946 32.6173C72.5065 31.798 71.5897 30.8964 70.754 29.9223C70.6489 29.7979 70.5446 29.6721 70.4409 29.5449C70.3965 29.4916 70.3565 29.4339 70.3099 29.3806C70.1544 29.1986 70.4409 29.5404 70.4298 29.536C70.2455 29.4738 69.9323 28.8456 69.8213 28.6791C69.4696 28.1527 69.15 27.6056 68.8641 27.0407C68.7901 26.8927 68.716 26.7447 68.642 26.5967L68.5532 26.4036C68.4333 26.1505 68.4799 26.4347 68.6021 26.5235C68.4288 26.3969 68.32 25.782 68.2556 25.5844C68.042 24.9353 67.8772 24.2712 67.7626 23.5975C67.7492 23.5243 67.7448 23.4488 67.7271 23.3755C67.6693 23.1313 67.7537 23.5776 67.7515 23.5731C67.7115 23.3992 67.6928 23.221 67.6959 23.0425C67.6649 22.6814 67.6471 22.3188 67.6426 21.9547C67.6382 21.5907 67.6463 21.2429 67.6671 20.9113C67.6789 20.7189 67.6937 20.5266 67.7115 20.3342C67.7115 20.252 67.7293 20.1676 67.7381 20.0855C67.7914 19.5394 67.6848 20.383 67.7381 20.0655C67.8662 19.2669 68.0389 18.4761 68.2556 17.6968C68.38 17.2632 68.5184 16.834 68.6709 16.4092C68.739 16.2198 68.8093 16.0318 68.8819 15.8453C68.9307 15.7188 68.9818 15.5923 69.0329 15.4657C69.084 15.3392 69.1528 15.1927 69.0595 15.4013C69.525 14.339 70.091 13.3236 70.7496 12.3688C70.831 12.2504 70.9147 12.1335 71.0006 12.0181C71.0516 11.9493 71.3537 11.543 71.1294 11.8427C70.9051 12.1424 71.1782 11.785 71.2293 11.7206C71.3329 11.5933 71.4388 11.4668 71.5469 11.341C71.9244 10.897 72.3212 10.4759 72.7373 10.0778C73.1533 9.67969 73.5745 9.306 74.0009 8.95672C74.0764 8.89456 74.4562 8.60152 74.1808 8.8102C73.9054 9.01888 74.3118 8.71473 74.3673 8.67255C74.6072 8.49643 74.85 8.3255 75.0958 8.15974C76.0845 7.4971 77.1242 6.91364 78.2049 6.41482L78.6269 6.22391C78.9178 6.09515 78.8734 6.19727 78.6047 6.22391C78.9277 6.13402 79.2409 6.01205 79.5397 5.85983C80.1126 5.64967 80.693 5.46024 81.2808 5.29152C81.8997 5.11392 82.5252 4.95852 83.1574 4.82532C83.4535 4.76316 83.7496 4.70544 84.0457 4.65216C84.2545 4.61442 84.9341 4.62108 85.094 4.48788C85.094 4.48788 84.6365 4.54338 84.8719 4.51896L85.094 4.49232L85.5937 4.43682C85.9297 4.40278 86.2658 4.37465 86.6019 4.35245C87.2844 4.30805 87.9677 4.2866 88.6517 4.28808C89.3358 4.28956 90.0072 4.31323 90.666 4.35911C91.0184 4.38279 91.3708 4.41239 91.7232 4.44791L92.1784 4.49676C92.4005 4.52118 92.8625 4.52784 92.3717 4.51674C93.0972 4.57652 93.816 4.70134 94.5192 4.8897C95.2195 5.0377 95.9154 5.20567 96.6068 5.39363C97.3382 5.59491 98.0622 5.81692 98.7787 6.05964C99.1163 6.17655 99.4524 6.29939 99.787 6.42815L100.331 6.65015L100.553 6.74339C100.935 6.89435 100.331 6.64792 100.584 6.75448C102.036 7.3892 103.45 8.10594 104.819 8.90122C105.542 9.32745 106.25 9.77588 106.943 10.2465C107.271 10.47 107.596 10.6979 107.917 10.9303L108.362 11.2588L108.659 11.4808C108.924 11.674 108.413 11.2833 108.67 11.4808C111.629 13.8836 114.322 16.5972 116.701 19.5749C117.382 20.4007 118.056 21.2325 118.722 22.0702C119.049 22.4816 119.374 22.8938 119.697 23.3067L119.899 23.5664C119.748 23.3711 119.87 23.5287 119.899 23.5664L120.419 24.2458C121.505 25.6754 122.564 27.1318 123.579 28.6058C125.228 30.9602 126.698 33.4351 127.976 36.0095C128.036 36.136 128.689 37.579 128.689 37.579C128.689 37.579 128.498 37.1106 128.613 37.4058L128.682 37.5746C128.733 37.7033 128.787 37.8321 128.836 37.9631C128.933 38.2161 129.028 38.47 129.12 38.7245C129.452 39.6523 129.727 40.5999 129.941 41.5617C130.041 42.0057 130.124 42.4674 130.195 42.9247C130.224 43.1112 130.221 43.513 130.177 42.7849C130.177 42.8803 130.201 42.9736 130.21 43.069C130.235 43.2866 130.256 43.5086 130.272 43.735C130.339 44.5829 130.35 45.4342 130.306 46.2836C130.285 46.6861 130.253 47.0872 130.21 47.4868C130.21 47.5911 130.188 47.6933 130.175 47.7976C130.161 47.9019 130.108 48.3082 130.175 47.8687C130.241 47.4291 130.175 47.7976 130.175 47.8953C130.175 47.993 130.139 48.1328 130.119 48.2505C129.986 49.0763 129.815 49.8955 129.622 50.7102C129.411 51.5982 129.178 52.4862 128.927 53.3742C128.844 53.651 128.753 53.9248 128.653 54.1956C128.598 54.3444 128.54 54.4931 128.482 54.6396C128.356 54.9726 128.66 54.2578 128.454 54.704C128.171 55.3189 127.869 55.925 127.536 56.5133C126.815 57.7622 126.013 58.9621 125.133 60.1052C124.911 60.4071 125.355 59.8388 125.011 60.2584L124.698 60.6491C124.433 60.9777 124.164 61.3025 123.89 61.6237C123.389 62.2157 122.877 62.7944 122.353 63.3597C120.19 65.7173 117.869 67.924 115.491 70.0641C113.456 71.8933 111.369 73.6649 109.297 75.452C108.524 76.118 107.742 76.784 107.003 77.4744C106.68 77.7719 106.372 78.0871 106.05 78.3846C105.974 78.4534 105.488 78.8286 105.761 78.6443C105.601 78.7598 105.439 78.8663 105.272 78.9707C105.106 79.075 104.893 79.1927 104.697 79.2859L104.451 79.4013C104.862 79.2171 104.48 79.3769 104.386 79.4013C104.04 79.5109 103.688 79.6013 103.331 79.6722C103.205 79.701 102.934 79.6922 103.427 79.6722C103.349 79.6722 103.271 79.6899 103.205 79.6944C103.052 79.6944 102.901 79.7144 102.747 79.7188C102.412 79.7232 102.076 79.7106 101.741 79.6811C101.675 79.6656 101.607 79.6581 101.539 79.6589C101.539 79.6589 102.006 79.741 101.784 79.69C101.644 79.6567 101.497 79.6411 101.355 79.6122C100.933 79.5268 100.517 79.4118 100.111 79.2682L99.8892 79.1838C99.556 79.0661 100.111 79.2859 100.191 79.3148C100.147 79.297 100.105 79.277 100.062 79.2571C99.8193 79.1106 99.5495 79.0138 99.2687 78.9724C98.9879 78.9311 98.7016 78.9459 98.4266 79.016C98.1515 79.0861 97.8931 79.2101 97.6664 79.3808C97.4397 79.5516 97.2492 79.7656 97.1059 80.0106C96.9627 80.2555 96.8695 80.5265 96.8319 80.8077C96.7943 81.089 96.8129 81.3749 96.8867 81.6489C96.9605 81.9229 97.088 82.1795 97.2619 82.4038C97.4357 82.6281 97.6524 82.8156 97.8993 82.9555C100.099 84.0102 102.594 84.2759 104.966 83.7081C107.536 82.7266 109.829 81.1377 111.651 79.0772C116.077 75.2322 120.587 71.4782 124.627 67.2158C126.886 64.9009 128.908 62.3673 130.665 59.6523C131.992 57.4929 132.97 55.1383 133.564 52.6749C134.578 49.0793 134.835 45.3127 134.319 41.6127C133.319 36.8454 131.354 32.3329 128.545 28.3527C126.49 25.1604 124.196 22.1368 121.835 19.1553C119.41 15.9367 116.709 12.9351 113.763 10.1844C108.764 5.63581 102.693 2.42796 96.1182 0.860418C90.4915 -0.46986 84.6096 -0.254316 79.0955 1.48423C74.1195 3.04335 69.8057 6.21658 66.8365 10.5018C65.1216 13.112 64.0039 16.0682 63.563 19.1598C63.0799 22.394 63.5474 25.6989 64.9088 28.6724C67.4945 33.4602 71.5225 37.3127 76.4216 39.6836C79.4261 41.2777 82.5138 42.7102 85.6714 43.9748L86.7285 44.4188C87.223 44.629 87.716 44.8421 88.2076 45.0581C89.0382 45.4244 89.8665 45.8018 90.6749 46.217C91.3373 46.5462 91.9781 46.917 92.5937 47.327C92.6692 47.378 93.0623 47.7244 92.8402 47.4979C92.6182 47.2715 92.9646 47.6067 93.0379 47.6733C93.1112 47.7399 93.2244 47.8442 93.3133 47.9353C93.3688 47.9908 93.4199 48.0573 93.4798 48.1128C93.7019 48.3149 93.371 48.024 93.3643 47.9486C93.3643 48.0218 93.5354 48.1972 93.5864 48.2705C93.6375 48.3437 93.6353 48.3659 93.6642 48.4103C93.8441 48.6767 93.5509 48.2238 93.5753 48.1883C93.5953 48.2882 93.6258 48.3857 93.6664 48.4791C93.7863 48.7411 93.622 48.2727 93.642 48.2083C93.639 48.2723 93.6434 48.3363 93.6553 48.3992C93.6553 48.5058 93.6553 48.6212 93.6553 48.7167C93.6553 49.0408 93.4754 48.9387 93.6841 48.5657C93.6095 48.7825 93.5537 49.0053 93.5176 49.2317C93.4798 49.3494 93.4288 49.4537 93.3932 49.578C93.3755 49.6358 93.6153 49.1052 93.4132 49.5203C93.2911 49.7667 93.1645 50.0087 93.0246 50.2463C92.8847 50.4838 92.7114 50.7502 92.5426 50.9944C92.4657 51.1039 92.3879 51.2134 92.3095 51.323C92.2622 51.4023 92.2072 51.4766 92.1451 51.545C92.1962 51.545 92.4272 51.192 92.2206 51.4451C90.0876 53.9226 87.7212 56.1892 85.1539 58.2138C82.1802 60.6846 79.1133 63.0378 76.1018 65.462C72.7994 68.126 69.6458 70.9499 66.379 73.6471C66.0163 73.9431 65.6513 74.2391 65.2841 74.5351L64.7045 74.9969L64.458 75.19C64.6801 75.0102 64.4158 75.2233 64.3203 75.2944C63.6185 75.8272 62.9056 76.3444 62.1727 76.835C61.4776 77.299 60.7625 77.7386 60.0252 78.1337C59.681 78.318 59.3323 78.4934 58.977 78.6554C58.786 78.742 58.5461 78.8242 58.8948 78.6954C58.6971 78.7686 58.5039 78.8486 58.3063 78.9174C57.9709 79.0351 57.64 79.1394 57.2847 79.2282C57.147 79.2637 56.3586 79.5234 56.272 79.4324C56.272 79.4324 56.8338 79.3814 56.4097 79.408L56.1876 79.4258C56.021 79.4369 55.8545 79.4458 55.6857 79.448C55.5835 79.448 54.6841 79.4169 54.6863 79.4013C54.6885 79.3858 55.2438 79.499 54.8285 79.4191L54.6064 79.3814C54.4391 79.3488 54.2732 79.3111 54.1089 79.2682C53.7709 79.1774 53.438 79.0685 53.1117 78.9418C53.0673 78.9263 52.8252 78.8153 53.0673 78.9241C53.3094 79.0328 52.9918 78.8863 52.9274 78.8575L52.4322 78.6354C52.0413 78.449 51.6526 78.2558 51.2684 78.0583C49.4784 77.1414 47.7151 76.1957 45.9673 75.1723C43.3097 73.6227 40.6536 72.0687 37.999 70.5103C33.9674 68.1512 29.9381 65.7877 25.911 63.4197C21.8187 61.0117 17.7316 58.5942 13.6497 56.167C10.7626 54.4398 7.84891 52.7193 4.98847 50.9256C4.61759 50.7036 4.24671 50.4594 3.87806 50.2174C3.74925 50.133 3.61823 50.0465 3.49164 49.9577L3.34062 49.8511C3.05858 49.6624 3.68707 50.1219 3.6471 50.0909C3.23845 49.7026 2.69624 49.4862 2.13249 49.4862C1.56874 49.4862 1.02653 49.7026 0.617883 50.0909C0.221806 50.4954 0 51.0389 0 51.6049C0 52.1709 0.221806 52.7144 0.617883 53.1189L0.63342 53.1722Z" fill="#0072E1"/>
</svg>
