<svg xmlns="http://www.w3.org/2000/svg" width="22.168" height="22.17" viewBox="0 0 22.168 22.17"><defs><style>.a,.b,.c{fill:#35af2b;}.a{opacity:0.005;}.b{opacity:0.998;}</style></defs><g transform="translate(-1.949 -2)"><path class="a" d="M13,2A11,11,0,1,0,24,13,11,11,0,0,0,13,2Z" transform="translate(0 0)"/><path class="b" d="M13.073,2a11.084,11.084,0,1,0,11.1,11.084A11.079,11.079,0,0,0,13.073,2Zm.011,19.951a8.867,8.867,0,1,1,8.867-8.867A8.865,8.865,0,0,1,13.084,21.951Z" transform="translate(-0.051 0.002)"/><path class="c" d="M18.493,13.537l-4.8,4.8a1.3,1.3,0,0,1-1.84,0L9.464,15.94a1.3,1.3,0,0,1,.211-2.013,1.323,1.323,0,0,1,1.652.2l.481.481a.719.719,0,0,1,0,1.018h0a.325.325,0,0,0,0,.458h0a.325.325,0,0,0,.458,0l.514-.514h0l3.85-3.846a1.323,1.323,0,0,1,1.652-.2,1.3,1.3,0,0,1,.211,2.013Z" transform="translate(-0.774 -1.23)"/></g></svg>