<svg xmlns="http://www.w3.org/2000/svg" width="103.043" height="103.045" viewBox="0 0 103.043 103.045"><defs><style>.a{fill:#a2a1ff;}.b{fill:#6563ff;}</style></defs><g transform="translate(-2 -2)"><path class="a" d="M11.152,22.608A5.149,5.149,0,0,1,6,17.456V7.152a5.152,5.152,0,1,1,10.3,0v10.3a5.149,5.149,0,0,1-5.152,5.152Zm51.521,0a5.149,5.149,0,0,1-5.152-5.152V7.152a5.152,5.152,0,1,1,10.3,0v10.3a5.149,5.149,0,0,1-5.152,5.152Z" transform="translate(16.609)"/><path class="b" d="M89.586,4H84.434V9.15a5.152,5.152,0,1,1-10.3,0V4H32.913V9.15a5.152,5.152,0,1,1-10.3,0V4H17.456A15.456,15.456,0,0,0,2,19.457v10.3H105.043v-10.3A15.456,15.456,0,0,0,89.586,4Z" transform="translate(0 8.306)"/><circle class="b" cx="5.433" cy="5.433" r="5.433" transform="translate(22.415 53.586)"/><circle class="b" cx="5.433" cy="5.433" r="5.433" transform="translate(22.415 73.764)"/><circle class="b" cx="5.433" cy="5.433" r="5.433" transform="translate(48.026 53.586)"/><circle class="b" cx="5.433" cy="5.433" r="5.433" transform="translate(48.026 73.764)"/><circle class="b" cx="5.433" cy="5.433" r="5.433" transform="translate(73.637 53.586)"/><circle class="b" cx="5.433" cy="5.433" r="5.433" transform="translate(73.637 73.764)"/><path class="a" d="M2,9V60.522A15.456,15.456,0,0,0,17.456,75.978h72.13a15.456,15.456,0,0,0,15.456-15.456V9ZM27.761,55.369a5.152,5.152,0,1,1,5.152-5.152A5.152,5.152,0,0,1,27.761,55.369Zm0-20.609a5.152,5.152,0,1,1,5.152-5.152A5.152,5.152,0,0,1,27.761,34.761ZM53.521,55.369a5.152,5.152,0,1,1,5.152-5.152A5.152,5.152,0,0,1,53.521,55.369Zm0-20.609a5.152,5.152,0,1,1,5.152-5.152A5.152,5.152,0,0,1,53.521,34.761ZM79.282,55.369a5.152,5.152,0,1,1,5.152-5.152A5.152,5.152,0,0,1,79.282,55.369Zm0-20.609a5.152,5.152,0,1,1,5.152-5.152A5.152,5.152,0,0,1,79.282,34.761Z" transform="translate(0 29.067)"/></g></svg>