<svg xmlns="http://www.w3.org/2000/svg" width="23.412" height="25.04" viewBox="0 0 23.412 25.04">
  <g id="Grupo_3101" data-name="Grupo 3101" transform="translate(58.416 -0.289)">
    <path id="Caminho_373" data-name="Caminho 373" d="M8.862,2a6.862,6.862,0,1,0,6.862,6.862A6.864,6.864,0,0,0,8.862,2Zm2.745,7.548H9.548v2.059a.686.686,0,0,1-1.372,0V9.548H6.117a.686.686,0,0,1,0-1.372H8.176V6.117a.686.686,0,0,1,1.372,0V8.176h2.059a.686.686,0,0,1,0,1.372Z" transform="translate(-50.728 9.605)" fill="#fff"/>
    <path id="Subtração_2" data-name="Subtração 2" d="M-4996.459-1194.189h-7.882a2.076,2.076,0,0,1-2.075-2.073v-16.59a2.077,2.077,0,0,1,2.075-2.074h1.037V-1217h2.074v2.073h10.368V-1217h2.073v2.073h1.038a2.076,2.076,0,0,1,2.073,2.074v7.146a8.013,8.013,0,0,0-2.073-.893v-1.069h-16.59v11.406h6.832a8.033,8.033,0,0,0,1.049,2.072Zm-7.882-18.663v3.11h16.59v-3.11Z" transform="translate(4948 1217.289)" fill="#dbedff"/>
  </g>
</svg>
