<svg xmlns="http://www.w3.org/2000/svg" width="22.018" height="22.018" viewBox="0 0 22.018 22.018"><defs><style>.a,.b{fill:#fa4b57;}.b{opacity:0.097;}.c{fill:none;stroke:#fa4b57;stroke-width:2px;}</style></defs><g transform="translate(-1 -1)"><path class="a" d="M11.723,10.682l2.425-2.425a.736.736,0,1,0-1.041-1.041L10.682,9.641,8.257,7.216A.736.736,0,1,0,7.216,8.257l2.425,2.425L7.216,13.107a.736.736,0,1,0,1.041,1.041l2.425-2.425,2.425,2.425a.736.736,0,1,0,1.041-1.041Z" transform="translate(1.674 1.444)"/><path class="b" d="M19.087,4.932a10.009,10.009,0,1,0,0,14.155,10.009,10.009,0,0,0,0-14.155Z" transform="translate(0 0)"/><path class="c" d="M19.087,4.932a10.009,10.009,0,1,0,0,14.155,10.009,10.009,0,0,0,0-14.155Z" transform="translate(0 0)"/></g></svg>