<svg xmlns="http://www.w3.org/2000/svg" width="22" height="15.851" viewBox="0 0 22 15.851">
  <g id="Grupo_3589" data-name="Grupo 3589" transform="translate(-3682 -1720.412)">
    <path id="Caminho_516" data-name="Caminho 516" d="M12,4.5A11.86,11.86,0,0,0,1,12.425a11.86,11.86,0,0,0,11,7.925,11.86,11.86,0,0,0,11-7.925A11.86,11.86,0,0,0,12,4.5Zm0,13.209a5.15,5.15,0,0,1-5-5.284,5.15,5.15,0,0,1,5-5.284,5.15,5.15,0,0,1,5,5.284A5.15,5.15,0,0,1,12,17.709Z" transform="translate(3681 1715.912)" fill="#a5b9d5"/>
    <path id="Caminho_1476" data-name="Caminho 1476" d="M12,9.255a3.084,3.084,0,0,0-3,3.17,3.084,3.084,0,0,0,3,3.17,3.084,3.084,0,0,0,3-3.17A3.084,3.084,0,0,0,12,9.255Z" transform="translate(3681 1715.912)" fill="#bed1ea"/>
  </g>
</svg>
