<svg xmlns="http://www.w3.org/2000/svg" width="21.134" height="19.373" viewBox="0 0 21.134 19.373">
  <g id="source-code" transform="translate(0.42 -0.615)">
    <path id="Caminho_535" data-name="Caminho 535" d="M17.969,19.6H2.325A2.327,2.327,0,0,1,0,17.278V3.325A2.327,2.327,0,0,1,2.325,1H17.969a2.327,2.327,0,0,1,2.325,2.325V17.278A2.327,2.327,0,0,1,17.969,19.6ZM2.325,2.268A1.058,1.058,0,0,0,1.268,3.325V17.278a1.058,1.058,0,0,0,1.057,1.057H17.969a1.058,1.058,0,0,0,1.057-1.057V3.325a1.058,1.058,0,0,0-1.057-1.057Z" fill="#b4cae6"/>
    <path id="Caminho_1480" data-name="Caminho 1480" d="M18.713,20.373H2.422A2.424,2.424,0,0,1,0,17.951V3.422A2.424,2.424,0,0,1,2.422,1H18.713a2.424,2.424,0,0,1,2.422,2.422v14.53A2.424,2.424,0,0,1,18.713,20.373ZM2.422,2.321a1.1,1.1,0,0,0-1.1,1.1v14.53a1.1,1.1,0,0,0,1.1,1.1H18.713a1.1,1.1,0,0,0,1.1-1.1V3.422a1.1,1.1,0,0,0-1.1-1.1Z" transform="translate(-0.42 -0.385)" fill="#b4cae6"/>
    <path id="Caminho_536" data-name="Caminho 536" d="M19.661,5.768H.634a.634.634,0,0,1,0-1.268H19.661a.634.634,0,0,1,0,1.268Z" transform="translate(0 -0.54)" fill="#bed1ea"/>
    <path id="Caminho_537" data-name="Caminho 537" d="M15.353,17.188a.854.854,0,0,1-.647-1.409l1.23-1.434L14.7,12.908A.854.854,0,0,1,16,11.8l1.707,1.991a.854.854,0,0,1,0,1.111L16,16.89a.85.85,0,0,1-.647.3Z" transform="translate(-1.508 -2.352)" fill="#96abc9"/>
    <path id="Caminho_538" data-name="Caminho 538" d="M9.06,17.188a.854.854,0,0,1-.648-.3L6.7,14.9a.854.854,0,0,1,0-1.111L8.411,11.8a.854.854,0,0,1,1.3,1.111l-1.23,1.436L9.708,15.78a.853.853,0,0,1-.648,1.408Z" transform="translate(-2.61 -2.352)" fill="#96abc9"/>
    <path id="Caminho_539" data-name="Caminho 539" d="M11.353,19.1a.853.853,0,0,1-.833-1.044l1.707-7.394a.853.853,0,0,1,1.663.382l-1.707,7.394a.851.851,0,0,1-.831.662Z" transform="translate(-2.059 -2.557)" fill="#96abc9"/>
  </g>
</svg>
