<svg xmlns="http://www.w3.org/2000/svg" width="23.209" height="23.563" viewBox="0 0 23.209 23.563">
  <g id="anfitiões" transform="translate(-2.763 -2.152)">
    <path id="Subtração_22" data-name="Subtração 22" d="M6719.641,23816.707h-3.5a3.157,3.157,0,0,1-3.085-3.762,3.194,3.194,0,0,1,1.728-2.213,14.022,14.022,0,0,1,4.084-1.3.822.822,0,0,0,.694-.812.806.806,0,0,0-.365-.693,4.74,4.74,0,0,1,2.562-8.727,4.638,4.638,0,0,1,.529.031l-.006.006a4.737,4.737,0,0,1,2.021,8.689.831.831,0,0,0,.323,1.506,14.03,14.03,0,0,1,3.227.906,12.75,12.75,0,0,0-4.735,2.332,13.788,13.788,0,0,0-3.479,4.033Z" transform="translate(-6710.237 -23797.049)" fill="#a5b9d5"/>
    <path id="Caminho_1478" data-name="Caminho 1478" d="M10.9,9.255a2.012,2.012,0,1,0,1.9,2.009A1.955,1.955,0,0,0,10.9,9.255Z" transform="translate(8.099 9.427)" fill="#bed1ea"/>
    <path id="Caminho_1477" data-name="Caminho 1477" d="M7.972,4.5A7.517,7.517,0,0,0,1,9.523a7.517,7.517,0,0,0,6.972,5.023,7.517,7.517,0,0,0,6.972-5.023A7.517,7.517,0,0,0,7.972,4.5Zm0,8.372A3.264,3.264,0,0,1,4.8,9.523,3.264,3.264,0,0,1,7.972,6.174a3.264,3.264,0,0,1,3.169,3.349A3.264,3.264,0,0,1,7.972,12.872Z" transform="translate(11.029 11.168)" fill="#a5b9d5"/>
  </g>
</svg>
