<svg xmlns="http://www.w3.org/2000/svg" width="15.762" height="13.176" viewBox="0 0 15.762 13.176">
  <path id="Caminho_274" data-name="Caminho 274" d="M16.186,4H3.576A1.617,1.617,0,0,0,2,5.647v9.882a1.617,1.617,0,0,0,1.576,1.647H16.186a1.617,1.617,0,0,0,1.576-1.647V5.647A1.617,1.617,0,0,0,16.186,4ZM15.87,7.5l-5.154,3.368a1.5,1.5,0,0,1-1.671,0L3.891,7.5a.712.712,0,0,1-.315-.593A.669.669,0,0,1,4.6,6.314l5.28,3.45,5.28-3.45a.669.669,0,0,1,1.025.593A.712.712,0,0,1,15.87,7.5Z" transform="translate(-2 -4)" fill="#a5b9d5"/>
</svg>
