<svg xmlns="http://www.w3.org/2000/svg" width="30.618" height="25.329" viewBox="0 0 30.618 25.329">
  <g id="Grupo_3270" data-name="Grupo 3270" transform="translate(56 -4)">
    <path id="Subtração_8" data-name="Subtração 8" d="M-8607.349,23138.613h-12.324a2.332,2.332,0,0,1-2.329-2.33v-13.959a2.33,2.33,0,0,1,2.329-2.324h18.612a2.327,2.327,0,0,1,2.324,2.324v6.682a8.962,8.962,0,0,0-6.116,2.752,8.965,8.965,0,0,0-2.517,6.244c0,.205.007.41.021.609Zm-11.339-15.5a.989.989,0,0,0-.985.99.99.99,0,0,0,.465.836l7.61,4.758a2.308,2.308,0,0,0,1.231.357,2.308,2.308,0,0,0,1.231-.357l7.609-4.758a.99.99,0,0,0,.465-.836.987.987,0,0,0-.984-.988.993.993,0,0,0-.525.152l-7.8,4.873-7.8-4.873A.992.992,0,0,0-8618.687,23123.117Z" transform="translate(8566.002 -23116)" fill="#dbedff"/>
    <path id="Caminho_375" data-name="Caminho 375" d="M8.862,2a6.862,6.862,0,1,0,6.862,6.862A6.864,6.864,0,0,0,8.862,2Zm2.745,7.548H9.548v2.059a.686.686,0,0,1-1.372,0V9.548H6.117a.686.686,0,0,1,0-1.372H8.176V6.117a.686.686,0,0,1,1.372,0V8.176h2.059a.686.686,0,0,1,0,1.372Z" transform="translate(-41.105 13.605)" fill="#fff"/>
  </g>
</svg>
