<svg xmlns="http://www.w3.org/2000/svg" width="16" height="16" viewBox="0 0 16 16">
  <g id="Grupo_3948" data-name="Grupo 3948" transform="translate(-1.703 -182.5)">
    <rect id="Retângulo_762" data-name="Retângulo 762" width="16" height="16" rx="4" transform="translate(1.703 182.5)" fill="#d4e1f1"/>
    <path id="Caminho_2700" data-name="Caminho 2700" d="M17.208,13.234l-4.141,4.141a1.123,1.123,0,0,1-1.589,0L9.411,15.309a1.123,1.123,0,0,1,.182-1.738,1.143,1.143,0,0,1,1.426.171l.415.415a.62.62,0,0,1,0,.879h0a.281.281,0,0,0,0,.4h0a.281.281,0,0,0,.4,0l.444-.444h0L15.6,11.668a1.143,1.143,0,0,1,1.426-.171,1.123,1.123,0,0,1,.182,1.738Z" transform="translate(-3.895 176.178)" fill="#8da5c6"/>
  </g>
</svg>
