<svg xmlns="http://www.w3.org/2000/svg" width="16.82" height="11.236" viewBox="0 0 16.82 11.236">
  <g id="Grupo_3952" data-name="Grupo 3952" transform="translate(-1.703 -400.5)">
    <path id="Caminho_2708" data-name="Caminho 2708" d="M23.732,23.33H9.089A1.093,1.093,0,0,0,8,24.422v9.053a1.093,1.093,0,0,0,1.089,1.092H23.732a1.093,1.093,0,0,0,1.089-1.092V24.422a1.093,1.093,0,0,0-1.089-1.092Z" transform="translate(-6.297 377.17)" fill="#d4e1f1"/>
    <path id="sort-solid" d="M17.485,64.207h5.443a.55.55,0,0,1,.389.938l-2.721,2.721a.547.547,0,0,1-.775,0L17.1,65.144A.55.55,0,0,1,17.485,64.207Z" transform="translate(-9.743 340.293)" fill="#8da5c6"/>
  </g>
</svg>
