<svg xmlns="http://www.w3.org/2000/svg" width="26.079" height="27.318" viewBox="0 0 26.079 27.318">
  <g id="conectar_integrações" data-name="conectar integrações" transform="translate(-351.235 -518.685)">
    <path id="Caminho_2729" data-name="Caminho 2729" d="M359.538,560.292c-2.464.255-4.22-.532-6.128-2.7-1.826-2.074-3.233-8.192,1.788-12.937a.572.572,0,0,1,.787.831c-4.818,4.552-2.914,9.989-1.716,11.35,1.792,2.035,3.263,2.627,5.633,2.255,2.622-.411,3.593-1.61,5.2-3.6l.208-.257a8.246,8.246,0,0,1,5.859-3.113c1.972-.283,4.8.941,5.6,2.993a.573.573,0,0,1-1.066.419c-.6-1.522-2.892-2.49-4.376-2.279a7.091,7.091,0,0,0-5.13,2.7l-.207.255c-1.657,2.049-2.855,3.53-5.913,4.008Q359.8,560.266,359.538,560.292Z" transform="translate(0 -14.826)" fill="#6cadfe" stroke="#6cadfe" stroke-width="1"/>
    <path id="Caminho_2730" data-name="Caminho 2730" d="M355.76,527.735a4.633,4.633,0,0,0,0,6.552l2.26,2.26a4.634,4.634,0,0,0,6.554,0l1.491-1.491-8.813-8.812Z" transform="translate(-1.532 -4.341)" fill="#0f7bff"/>
    <path id="Caminho_2731" data-name="Caminho 2731" d="M373.952,519.888a.705.705,0,1,0-1-1l-3.017,3.018,1,1Z" transform="translate(-10.455)" fill="#0f7bff"/>
    <path id="Caminho_2732" data-name="Caminho 2732" d="M383.456,529.394a.7.7,0,0,0-1-1l-3.017,3.017,1,1Z" transform="translate(-15.914 -5.459)" fill="#0f7bff"/>
    <path id="Caminho_2733" data-name="Caminho 2733" d="M372.687,530.557l-7.994-7.994a.578.578,0,0,0-.819,0l-.329.329a.579.579,0,0,0,0,.818l7.994,7.994a.58.58,0,0,0,.818,0l.329-.329A.581.581,0,0,0,372.687,530.557Z" transform="translate(-6.686 -2.13)" fill="#6cadfe"/>
    <path id="Caminho_2734" data-name="Caminho 2734" d="M367.606,538.309a.462.462,0,0,1-.655,0l-4.387-4.387a.463.463,0,0,1,0-.655h0a.463.463,0,0,1,.655,0l4.387,4.387a.465.465,0,0,1,0,.655Z" transform="translate(-6.142 -8.298)" fill="#fff"/>
  </g>
</svg>
