<svg id="anfitiões" xmlns="http://www.w3.org/2000/svg" width="23.179" height="19.653" viewBox="0 0 23.179 19.653">
  <path id="Caminho_590" data-name="Caminho 590" d="M13.286,12.029a4.739,4.739,0,0,0-3.092,8.7.824.824,0,0,1,.365.693h0a.828.828,0,0,1-.693.817,13.963,13.963,0,0,0-4.087,1.294,3.208,3.208,0,0,0-1.724,2.217A3.143,3.143,0,0,0,7.136,29.5H18.357a3.143,3.143,0,0,0,3.081-3.755,3.208,3.208,0,0,0-1.724-2.217,13.963,13.963,0,0,0-4.087-1.294.828.828,0,0,1-.693-.817.817.817,0,0,1,.365-.689,4.739,4.739,0,0,0-2.016-8.7Z" transform="translate(-1.231 -9.846)" fill="#0f7bff"/>
  <path id="Caminho_591" data-name="Caminho 591" d="M41.521,11.893a3.157,3.157,0,1,0-3.894-4.94A.7.7,0,0,0,37.7,8.025a6.2,6.2,0,0,1,1.236,8.7.5.5,0,0,0,.244.787h0a4.933,4.933,0,0,0,1.418.208h2.953A2.1,2.1,0,0,0,45.6,15.192a2.187,2.187,0,0,0-1.2-1.477,9.366,9.366,0,0,0-2.665-.831.542.542,0,0,1-.215-.992Z" transform="translate(-22.466 -6.094)" fill="#6fb0ff"/>
  <path id="Caminho_592" data-name="Caminho 592" d="M41.538,11.893a3.157,3.157,0,1,1,3.894-4.94.7.7,0,0,1-.073,1.072,6.2,6.2,0,0,0-1.236,8.7.5.5,0,0,1-.244.787h0a4.932,4.932,0,0,1-1.418.208H39.507a2.1,2.1,0,0,1-2.049-2.527,2.187,2.187,0,0,1,1.2-1.477,9.365,9.365,0,0,1,2.665-.831.542.542,0,0,0,.215-.992Z" transform="translate(-37.414 -6.094)" fill="#6fb0ff"/>
</svg>
