<svg xmlns="http://www.w3.org/2000/svg" width="18.229" height="14.584" viewBox="0 0 18.229 14.584">
  <path id="Caminho_1482" data-name="Caminho 1482" d="M18.407,5.823H11.115L9.83,4.538A1.829,1.829,0,0,0,8.535,4H3.823A1.821,1.821,0,0,0,2.009,5.823L2,16.761a1.828,1.828,0,0,0,1.823,1.823H18.407a1.828,1.828,0,0,0,1.823-1.823V7.646A1.828,1.828,0,0,0,18.407,5.823ZM13.849,8.557a1.823,1.823,0,1,1-1.823,1.823A1.828,1.828,0,0,1,13.849,8.557ZM17.5,15.849H10.2v-.911c0-1.212,2.434-1.823,3.646-1.823s3.646.611,3.646,1.823Z" transform="translate(-2 -4)" fill="#9ab3d5"/>
</svg>
