<svg xmlns="http://www.w3.org/2000/svg" width="20.001" height="20" viewBox="0 0 20.001 20">
  <g id="calender" transform="translate(-2 -2)">
    <path id="Caminho_1463" data-name="Caminho 1463" d="M22,10H2v9a3,3,0,0,0,3,3H19a3,3,0,0,0,3-3ZM7,8A1,1,0,0,1,6,7V3A1,1,0,1,1,8,3V7A1,1,0,0,1,7,8ZM17,8a1,1,0,0,1-1-1V3a1,1,0,1,1,2,0V7A1,1,0,0,1,17,8Z" fill="#bed1ea" opacity="0.651"/>
    <path id="Caminho_1464" data-name="Caminho 1464" d="M19,4H18V7a1,1,0,0,1-2,0V4H8V7A1,1,0,0,1,6,7V4H5A3,3,0,0,0,2,7v3H22V7a3,3,0,0,0-3-3Z" fill="#9ab3d5"/>
  </g>
</svg>
