<svg xmlns="http://www.w3.org/2000/svg" width="19" height="19" viewBox="0 0 19 19">
  <path id="Caminho_284" data-name="Caminho 284" d="M18.4,3.623A2.118,2.118,0,0,0,16.9,3H5.111A2.111,2.111,0,0,0,3,5.111V19.889A2.117,2.117,0,0,0,5.111,22H19.889A2.117,2.117,0,0,0,22,19.889V8.1a2.075,2.075,0,0,0-.623-1.488L18.4,3.623ZM12.5,19.889a3.167,3.167,0,1,1,3.167-3.167A3.162,3.162,0,0,1,12.5,19.889ZM13.556,9.333H7.222a2.111,2.111,0,1,1,0-4.222h6.333a2.111,2.111,0,1,1,0,4.222Z" transform="translate(-3 -3)" fill="#fff"/>
</svg>
