<svg xmlns="http://www.w3.org/2000/svg" width="23.752" height="22.813" viewBox="0 0 23.752 22.813"><defs><style>.a{fill:#fff;}.b{fill:#f8fafd;}.c{fill:#0080fc;}</style></defs><g transform="translate(10.578 9.406)"><path class="a" d="M11755.277,22639.1h-12.619a2.077,2.077,0,0,1-2.074-2.074v-16.592a2.076,2.076,0,0,1,2.074-2.072h1.04v-2.074h2.073v2.074h10.364v-2.074h2.073v2.074h1.04a2.076,2.076,0,0,1,2.074,2.072v6.186a7.507,7.507,0,0,0-2.074-.5v-.5h-16.591v11.4h10.045a7.216,7.216,0,0,0,2.574,2.072Zm-12.619-18.666h0v3.109h16.591v-3.109Z" transform="translate(-11751.162 -22625.695)"/><path class="b" d="M7.979,2A5.985,5.985,0,1,0,13.97,7.985,5.982,5.982,0,0,0,7.979,2Z" transform="translate(-0.796 -0.884)"/><path class="c" d="M14.163,12.518l-2.59,2.59a.7.7,0,0,1-.994,0L9.288,13.815A.7.7,0,0,1,9.4,12.729a.715.715,0,0,1,.892.107l.26.26a.388.388,0,0,1,0,.55h0a.176.176,0,0,0,0,.248h0a.176.176,0,0,0,.248,0l.277-.277h0l2.079-2.077a.715.715,0,0,1,.892-.107.7.7,0,0,1,.114,1.087Z" transform="translate(-4.444 -5.837)"/></g></svg>