<svg xmlns="http://www.w3.org/2000/svg" width="20" height="20" viewBox="0 0 20 20">
  <g id="Grupo_3298" data-name="Grupo 3298" transform="translate(-301.072 -351.197)">
    <path id="Caminho_549" data-name="Caminho 549" d="M10.313,16.094a1,1,0,0,1-.707-.293L6.793,12.988a1,1,0,1,1,1.414-1.414l2.105,2.105L15.793,8.2a1,1,0,1,1,1.414,1.414L11.02,15.8A1,1,0,0,1,10.313,16.094Z" transform="translate(299.072 349.197)" fill="#00c38e" opacity="0.99"/>
    <path id="Caminho_550" data-name="Caminho 550" d="M12,2A10,10,0,1,0,22,12,10,10,0,0,0,12,2Zm5.207,7.613L11.02,15.8a1,1,0,0,1-1.414,0L6.793,12.988a1,1,0,1,1,1.414-1.414l2.105,2.105L15.793,8.2a1,1,0,1,1,1.414,1.414Z" transform="translate(299.072 349.197)" fill="#e5fde2"/>
  </g>
</svg>
