<svg xmlns="http://www.w3.org/2000/svg" width="20.79" height="19" viewBox="0 0 20.79 19">
  <g id="forward_to_inbox-24px_1_" data-name="forward_to_inbox-24px (1)" transform="translate(-2 -4)">
    <path id="Caminho_560" data-name="Caminho 560" d="M13,18H4V8l8,5,8-5v5H18a5,5,0,0,0-5,5Zm-1-7L4,6H20Z" fill="#bad9f7" opacity="0.3"/>
    <path id="Caminho_561" data-name="Caminho 561" d="M20,4H4A2.006,2.006,0,0,0,2,6V18a2.006,2.006,0,0,0,2,2h9V18H4V8l8,5,8-5v5h2V6A2.006,2.006,0,0,0,20,4Zm-8,7L4,6H20Z" fill="#a4bede"/>
    <path id="Caminho_562" data-name="Caminho 562" d="M19,16.307c0-.537.54-.8.85-.417l2.79,3.327a.672.672,0,0,1,0,.847L19.85,23.39c-.31.37-.85.107-.85-.429V20.826H15c-.55,0-.55-2.385,0-2.385h4Z" transform="translate(0 -0.562)" fill="#a4bede"/>
  </g>
</svg>
