<svg xmlns="http://www.w3.org/2000/svg" width="14.196" height="16.702" viewBox="0 0 14.196 16.702"><defs><style>.a{fill:#fa4b57;}</style></defs><g transform="translate(-7.997 -4)"><path class="a" d="M12.847,20a.853.853,0,0,0-.847.859v7.907a3.183,3.183,0,0,0,3.159,3.205h5.481A3.183,3.183,0,0,0,23.8,28.766V20.859A.853.853,0,0,0,22.954,20Zm2.693,8.38a.59.59,0,1,1-1.18,0V22.993a.59.59,0,1,1,1.18,0Zm2.95,0a.59.59,0,1,1-1.18,0V22.993a.59.59,0,1,1,1.18,0Zm2.95,0a.59.59,0,1,1-1.18,0V22.993a.59.59,0,1,1,1.18,0Z" transform="translate(-2.805 -11.27)"/><path class="a" d="M22.192,6.652a.93.93,0,0,0-.946-.856H17.739a.28.28,0,0,1-.278-.281V5.2A1.19,1.19,0,0,0,16.278,4H13.912a1.19,1.19,0,0,0-1.183,1.2v.317a.28.28,0,0,1-.278.281H8.944A.93.93,0,0,0,8,6.652a.9.9,0,0,0,.245.662.882.882,0,0,0,.642.278h12.42a.882.882,0,0,0,.642-.278.9.9,0,0,0,.245-.662ZM16.278,5.5a.3.3,0,0,1-.3.3H14.208a.3.3,0,0,1,0-.6h1.774A.3.3,0,0,1,16.278,5.5Z" transform="translate(0)"/></g></svg>