<svg xmlns="http://www.w3.org/2000/svg" width="22.17" height="22.17" viewBox="0 0 22.17 22.17">
  <path id="Caminho_1670" data-name="Caminho 1670" d="M5.152,21.478l-.51,2.034a1.58,1.58,0,0,0,1.912,1.912l2.026-.506a3.061,3.061,0,0,1,1.995.186,11.084,11.084,0,1,0-5.609-5.621,3.05,3.05,0,0,1,.186,1.995Zm5.7-11.3a1.272,1.272,0,0,1,.727-.336c.182,0,.909-.067,1.134.474s.79,1.868.837,2a.49.49,0,0,1,.024.474,1.805,1.805,0,0,1-.273.45c-.134.158-.284.352-.4.474s-.277.28-.119.549a8.09,8.09,0,0,0,1.485,1.857,7.438,7.438,0,0,0,2.188,1.339c.273.134.431.111.589-.067s.679-.79.861-1.055.363-.225.612-.134,1.58.743,1.861.877.45.2.521.312a2.24,2.24,0,0,1-.158,1.28,2.5,2.5,0,0,1-1.276,1.375c-.525.178-1.106.273-3.686-.766a12.392,12.392,0,0,1-4.772-4.069,5.239,5.239,0,0,1-1.11-2.785,2.884,2.884,0,0,1,.948-2.252Z" transform="translate(-4.011 -3.899)" fill="#00de72"/>
</svg>
