<svg width="18" height="18" viewBox="0 0 18 18" fill="none" xmlns="http://www.w3.org/2000/svg">
<path d="M17.4019 15.0434C18.053 15.6934 18.053 16.75 17.4019 17.4C17.0763 17.7267 16.6497 17.8889 16.223 17.8889C15.7963 17.8889 15.3697 17.7267 15.0441 17.4011L9.00077 11.3567L2.95744 17.4C2.63189 17.7267 2.20522 17.8889 1.77855 17.8889C1.35189 17.8889 0.925217 17.7267 0.599662 17.4011C-0.0514497 16.7511 -0.0514497 15.6945 0.599662 15.0445L6.64411 9.00003L0.600774 2.95669C-0.0503367 2.30669 -0.0503367 1.25003 0.600774 0.600028C1.25189 -0.0510834 2.30633 -0.0510834 2.95744 0.600028L9.00077 6.64336L15.0441 0.600028C15.6952 -0.0510834 16.7497 -0.0510834 17.4008 0.600028C18.0519 1.25003 18.0519 2.30669 17.4008 2.95669L11.3574 9.00003L17.4019 15.0434Z" fill="#95ACCC"/>
</svg>
