<svg width="11" height="7" viewBox="0 0 11 7" fill="none" xmlns="http://www.w3.org/2000/svg">
<path d="M11 1.35359C10.9991 1.08618 10.9216 0.825023 10.7766 0.602899C10.6317 0.380776 10.4249 0.207552 10.1844 0.10507C9.94398 0.0025886 9.67963 -0.0245445 9.42418 0.0269223C9.16873 0.0783891 8.93495 0.206188 8.75 0.394374L5.4959 3.73538L2.25 0.394374C2.06525 0.205667 1.83144 0.0773666 1.57582 0.0256065C1.3202 -0.0261535 1.05417 0.000922538 0.813526 0.103491C0.572878 0.206059 0.368222 0.379525 0.223361 0.601978C0.0784988 0.824431 0.000429106 1.08595 -5.91673e-08 1.35359C0.0020303 1.71176 0.13874 2.05535 0.381147 2.31281L4.57787 6.60764C4.69821 6.7331 4.84159 6.83245 5 6.89984C5.15842 6.96723 5.32854 7.00129 5.5 6.99996C5.67334 7.00139 5.84568 6.96744 6.00615 6.9001C6.16662 6.83276 6.31164 6.73334 6.43443 6.60764L10.6189 2.31281C10.7397 2.18735 10.8349 2.03861 10.8996 1.8751C10.9642 1.71159 10.9974 1.53651 10.9959 1.36004L11 1.35359Z" fill="#0072E1"/>
</svg>
