<svg width="25" height="25" viewBox="0 0 25 25" fill="none" xmlns="http://www.w3.org/2000/svg">
<path d="M22.5806 1.20972H2.41935C1.08871 1.20972 0 2.29843 0 3.62907C0 4.95972 1.08871 6.04843 2.41935 6.04843H22.5806C23.9113 6.04843 25 4.95972 25 3.62907C25 2.29843 23.9113 1.20972 22.5806 1.20972Z" fill="#0072E1"/>
<path d="M22.5806 10.0807H2.41935C1.08871 10.0807 0 11.1694 0 12.5C0 13.8307 1.08871 14.9194 2.41935 14.9194H22.5806C23.9113 14.9194 25 13.8307 25 12.5C25 11.1694 23.9113 10.0807 22.5806 10.0807Z" fill="#0072E1"/>
<path d="M22.5806 18.9517H2.41935C1.08871 18.9517 0 20.0404 0 21.371C0 22.7017 1.08871 23.7904 2.41935 23.7904H22.5806C23.9113 23.7904 25 22.7017 25 21.371C25 20.0404 23.9113 18.9517 22.5806 18.9517Z" fill="#0072E1"/>
</svg>
