<svg xmlns="http://www.w3.org/2000/svg" width="23.438" height="23.438" viewBox="0 0 23.438 23.438">
  <g id="Grupo_4194" data-name="Grupo 4194" transform="translate(-21.562 -10.76)">
    <g id="Grupo_3947" data-name="Grupo 3947" transform="translate(19.859 -136.741)">
      <path id="Caminho_2715" data-name="Caminho 2715" d="M5.218,22.483l-.539,2.151A1.67,1.67,0,0,0,6.7,26.655l2.142-.535a3.236,3.236,0,0,1,2.109.2,11.718,11.718,0,1,0-5.93-5.943,3.224,3.224,0,0,1,.2,2.109Z" transform="translate(-2.309 143.602)" fill="#e1ebf6"/>
    </g>
    <path id="Caminho_590" data-name="Caminho 590" d="M11.179,12.022a3.665,3.665,0,0,0-2.39,6.723.637.637,0,0,1,.282.536h0a.64.64,0,0,1-.536.631,10.8,10.8,0,0,0-3.16,1,2.481,2.481,0,0,0-1.333,1.714,2.43,2.43,0,0,0,2.382,2.9H15.1a2.43,2.43,0,0,0,2.382-2.9,2.481,2.481,0,0,0-1.333-1.714,10.8,10.8,0,0,0-3.16-1,.64.64,0,0,1-.536-.631.631.631,0,0,1,.282-.533,3.665,3.665,0,0,0-1.559-6.723Z" transform="translate(22.52 2.996)" fill="#6E6E6E"/>
  </g>
</svg>
