<svg xmlns="http://www.w3.org/2000/svg" width="15.43" height="19.834" viewBox="0 0 15.43 19.834">
  <g id="Grupo_3335" data-name="Grupo 3335" transform="translate(-1794.9 -1551.832)">
    <path id="Caminho_582" data-name="Caminho 582" d="M13.657,27.118a2.04,2.04,0,0,0,2.034-2.034H11.623A2.034,2.034,0,0,0,13.657,27.118Z" transform="translate(1788.959 1544.548)" fill="#bed1ea"/>
    <path id="Caminho_581" data-name="Caminho 581" d="M18.233,16.231V11.146c0-3.123-1.668-5.737-4.577-6.428V4.026a1.526,1.526,0,0,0-3.051,0v.692c-2.919.692-4.577,3.3-4.577,6.428v5.086L4.715,17.543a1.017,1.017,0,0,0,.712,1.739h13.4a1.02,1.02,0,0,0,.722-1.739Z" transform="translate(1790.486 1549.332)" fill="#a5b9d5"/>
  </g>
</svg>
