<svg id="calender" xmlns="http://www.w3.org/2000/svg" width="18" height="18.904" viewBox="0 0 18 18.904">
  <path id="Caminho_1463" data-name="Caminho 1463" d="M20,8.961H2v9.108A2.77,2.77,0,0,0,4.7,20.9H17.3A2.77,2.77,0,0,0,20,18.069ZM6.5,7.671a.923.923,0,0,1-.9-.945V2.945a.9.9,0,1,1,1.8,0V6.726A.923.923,0,0,1,6.5,7.671Zm9,0a.923.923,0,0,1-.9-.945V2.945a.9.9,0,1,1,1.8,0V6.726A.923.923,0,0,1,15.5,7.671Z" transform="translate(-2 -2)" fill="#bed1ea" opacity="0.651"/>
  <path id="Caminho_1464" data-name="Caminho 1464" d="M17.3,4h-.9V6.625a.9.9,0,0,1-1.8,0V4H7.4V6.625a.9.9,0,0,1-1.8,0V4H4.7A2.663,2.663,0,0,0,2,6.625V9.25H20V6.625A2.663,2.663,0,0,0,17.3,4Z" transform="translate(-2 -2.25)" fill="#9ab3d5"/>
  <rect id="Ret창ngulo_760" data-name="Ret창ngulo 760" width="12" height="2" rx="1" transform="translate(2 9)" fill="#9ab3d5"/>
  <rect id="Ret창ngulo_761" data-name="Ret창ngulo 761" width="9" height="2" rx="1" transform="translate(2 13)" fill="#9ab3d5"/>
</svg>
