<svg xmlns="http://www.w3.org/2000/svg" width="22.168" height="22.168" viewBox="0 0 22.168 22.168"><defs><style>.a{fill:#0180fc;}.b{fill:#d5e9fd;opacity:0.323;}</style></defs><g transform="translate(-2 -2)"><path class="a" d="M12.976,2A11.1,11.1,0,0,0,5.217,5.189V3.108A1.108,1.108,0,1,0,3,3.108V8.1A1.108,1.108,0,0,0,4.108,9.2H9.1a1.108,1.108,0,0,0,0-2.217H6.567a8.858,8.858,0,1,1,6.408,14.963,1.108,1.108,0,1,0,0,2.217A11.084,11.084,0,0,0,12.976,2Z" transform="translate(0.108)"/><path class="a" d="M14.325,13.542H12.108A1.108,1.108,0,0,1,11,12.434V9.108a1.108,1.108,0,1,1,2.217,0v2.217h1.108a1.108,1.108,0,0,1,0,2.217Z" transform="translate(0.976 0.65)"/><path class="b" d="M13.084,4A8.876,8.876,0,0,0,6.676,6.771H9.2a1.108,1.108,0,1,1,0,2.217H4.217a1.1,1.1,0,0,1-1.082-.976,11.058,11.058,0,0,0,9.949,15.939,1.108,1.108,0,1,1,0-2.217A8.867,8.867,0,0,0,13.084,4ZM15.3,13.976H13.084a1.108,1.108,0,0,1-1.108-1.108V9.542a1.108,1.108,0,0,1,2.217,0v2.217H15.3a1.108,1.108,0,0,1,0,2.217Z" transform="translate(0 0.217)"/></g></svg>