<svg xmlns="http://www.w3.org/2000/svg" width="16.259" height="16.259" viewBox="0 0 16.259 16.259">
  <path id="Caminho_474" data-name="Caminho 474" d="M16.633,2H6.878A1.631,1.631,0,0,0,5.252,3.626v9.755a1.631,1.631,0,0,0,1.626,1.626h9.755a1.631,1.631,0,0,0,1.626-1.626V3.626A1.631,1.631,0,0,0,16.633,2ZM2.813,5.252h0A.815.815,0,0,0,2,6.065V16.633a1.631,1.631,0,0,0,1.626,1.626H14.194a.815.815,0,0,0,.813-.813h0a.815.815,0,0,0-.813-.813H4.439a.815.815,0,0,1-.813-.813V6.065A.815.815,0,0,0,2.813,5.252Z" transform="translate(-2 -2)" fill="#fff"/>
</svg>
