<svg id="Layer_2" data-name="Layer 2" xmlns="http://www.w3.org/2000/svg" width="18.002" height="21" viewBox="0 0 18.002 21">
  <path id="Caminho_434" data-name="Caminho 434" d="M13.076,20A1.076,1.076,0,0,0,12,21.076v9.907A4.016,4.016,0,0,0,16.016,35h6.968A4.016,4.016,0,0,0,27,30.984V21.076A1.076,1.076,0,0,0,25.924,20ZM16.5,30.5a.75.75,0,1,1-1.5,0V23.75a.75.75,0,1,1,1.5,0Zm3.75,0a.75.75,0,1,1-1.5,0V23.75a.75.75,0,1,1,1.5,0Zm3.75,0a.75.75,0,1,1-1.5,0V23.75a.75.75,0,1,1,1.5,0Z" transform="translate(-10.499 -14)" fill="#a5b9d5"/>
  <path id="Caminho_435" data-name="Caminho 435" d="M26,7.322A1.174,1.174,0,0,0,24.8,6.25H20.35A.352.352,0,0,1,20,5.9V5.5A1.5,1.5,0,0,0,18.5,4h-3A1.5,1.5,0,0,0,14,5.5v.4a.352.352,0,0,1-.353.352H9.2A1.174,1.174,0,0,0,8,7.322,1.125,1.125,0,0,0,9.123,8.5h15.75A1.125,1.125,0,0,0,26,7.323ZM18.5,5.875a.375.375,0,0,1-.375.375h-2.25a.375.375,0,0,1,0-.75h2.25A.375.375,0,0,1,18.5,5.875Z" transform="translate(-7.997 -4)" fill="#bed1ea"/>
</svg>
