<svg xmlns="http://www.w3.org/2000/svg" width="21.468" height="20.499" viewBox="0 0 21.468 20.499"><defs><style>.a{fill:#d3e0f0;}.b,.d{fill:#9ab3d5;}.c{fill:#d4e0f0;}.d{stroke:#9ab3d5;stroke-linejoin:round;}</style></defs><g transform="translate(-2 -2)"><path class="a" d="M7,6A1,1,0,0,1,6,5V3A1,1,0,1,1,8,3V5A1,1,0,0,1,7,6ZM17,6a1,1,0,0,1-1-1V3a1,1,0,1,1,2,0V5a1,1,0,0,1-1,1Z"/><path class="b" d="M19,4H18V5a1,1,0,0,1-2,0V4H8V5A1,1,0,0,1,6,5V4H5A3,3,0,0,0,2,7V9H22V7a3,3,0,0,0-3-3Z"/><path class="c" d="M18662.9,11370h-4.9a3,3,0,0,1-3-3v-10h20v3.883a8,8,0,0,0-9.008.007,1,1,0,0,0-1.99.108,1,1,0,0,0,.725.965,8.022,8.022,0,0,0-1.828,8.035Zm-2.9-6a1,1,0,1,0,1,1A1,1,0,0,0,18660,11364Zm0-4a1,1,0,1,0,1,1A1,1,0,0,0,18660,11360Z" transform="translate(-18653 -11348)"/><path class="d" d="M12.95,14.408V12.236c-2.757,0-4.572.843-5.95,2.7.555-2.648,2.092-5.286,5.95-5.821V7l3.967,3.7Z" transform="translate(6.051 7.065)"/></g></svg>