<svg xmlns="http://www.w3.org/2000/svg" width="26" height="26" viewBox="0 0 26 26">
    <path style="line-height:normal;text-indent:0;text-align:start;text-decoration-line:none;text-transform:none;block-progression:tb" d="M 13 0 C 5.8262311 0 1.6e-005 5.8262 0 13 C -4.2e-005 20.1738 5.8261911 26 13 26 C 20.173809 26 26.000041 20.1738 26 13 C 25.999984 5.8262 20.173769 0 13 0 z M 13 1 C 19.633359 1 24.999985 6.3666 25 13 C 25.000038 19.6334 19.633396 25 13 25 C 6.3666026 25 0.999962 19.6334 1 13 C 1.000015 6.3666 6.3666406 1 13 1 z M 18 8 L 16.216797 8.59375 L 17.40625 9.7832031 L 18 8 z M 15.396484 9.1875 L 9.9375 14.644531 L 11.351562 16.037109 L 16.810547 10.601562 L 15.396484 9.1875 z M 9.2246094 15.341797 L 8.2460938 16.320312 C 8.2001238 16.365813 8.2001238 16.418844 8.2460938 16.464844 L 9.515625 17.736328 C 9.5615472 17.782328 9.6142362 17.782328 9.6601562 17.736328 L 10.648438 16.746094 L 9.2246094 15.341797 z " color="#000" font-family="sans-serif" font-weight="400" overflow="visible"/>
</svg>
