<svg xmlns="http://www.w3.org/2000/svg" width="31.028" height="28.238" viewBox="0 0 31.028 28.238"><defs><style>.a{fill:#2c3343;}</style></defs><g transform="translate(6.119 -2.617) rotate(45)"><path class="a" d="M21.439,22.842a1.4,1.4,0,0,1-1.4-1.4V8.807H7.4A1.4,1.4,0,1,1,7.4,6H21.439a1.4,1.4,0,0,1,1.4,1.4V21.439A1.4,1.4,0,0,1,21.439,22.842Z" transform="translate(6.707 -11.678)"/><path class="a" d="M6.561,23.846a1.268,1.268,0,0,1-.9-2.164L23.1,4.25a1.268,1.268,0,1,1,1.793,1.793L7.457,23.475a1.264,1.264,0,0,1-.9.371Z" transform="translate(2.214 -7.685)"/></g></svg>