<svg xmlns="http://www.w3.org/2000/svg" width="17.372" height="20.264" viewBox="0 0 17.372 20.264">
  <g id="Duration" transform="translate(-246.124)">
    <path id="Caminho_519" data-name="Caminho 519" d="M8.778,2a6.778,6.778,0,1,0,6.778,6.778A6.778,6.778,0,0,0,8.778,2Z" transform="translate(246.031 2.797)" fill="#d8dadd"/>
    <path id="Caminho_518" data-name="Caminho 518" d="M18.468,7.166l.724-.724a.958.958,0,0,0,0-1.351l-.01-.01a.958.958,0,0,0-1.351,0l-.724.724a8.647,8.647,0,0,0-5.423-1.911A8.781,8.781,0,0,0,3,12.348,8.686,8.686,0,1,0,18.468,7.166ZM11.684,19.334a6.755,6.755,0,1,1,6.755-6.755A6.75,6.75,0,0,1,11.684,19.334Z" transform="translate(243.127 -1)" fill="#757c8e" opacity="0.756"/>
    <path id="Caminho_520" data-name="Caminho 520" d="M13.614,1H9.754a.965.965,0,0,0,0,1.93h3.86a.965.965,0,0,0,0-1.93Z" transform="translate(243.127 -1)" fill="#757c8e" opacity="0.756"/>
    <path id="Caminho_521" data-name="Caminho 521" d="M11.684,13.544a.968.968,0,0,0,.965-.965V8.719a.965.965,0,0,0-1.93,0v3.86A.968.968,0,0,0,11.684,13.544Z" transform="translate(243.127)" fill="#757c8e"/>
  </g>
</svg>
