<svg id="exclamation-circle" xmlns="http://www.w3.org/2000/svg" width="22" height="22" viewBox="0 0 22 22">
  <circle id="Elipse_161" data-name="Elipse 161" cx="10.5" cy="10.5" r="10.5" transform="translate(0.5 0.5)" fill="rgba(222,222,222,0.13)" stroke="#707070" stroke-width="1" opacity="0.999"/>
  <path id="Caminho_394" data-name="Caminho 394" d="M1,6A1,1,0,0,1,0,5V1A1,1,0,0,1,2,1V5A1,1,0,0,1,1,6Z" transform="translate(12 16) rotate(180)" fill="#707070"/>
  <path id="Caminho_395" data-name="Caminho 395" d="M1,6A1,1,0,0,1,0,5H0A1,1,0,0,1,2,5H2A1,1,0,0,1,1,6Z" transform="translate(12 12) rotate(180)" fill="#707070"/>
</svg>
