<svg xmlns="http://www.w3.org/2000/svg" width="26.221" height="31.364" viewBox="0 0 26.221 31.364"><defs><style>.a{fill:#41dd9f;}.b{fill:#4ce2a7;opacity:0.72;}</style></defs><g transform="translate(26.221 7.026) rotate(120)"><path class="a" d="M11.241,14.052H7.026A7.026,7.026,0,0,1,7.026,0h4.216a1.405,1.405,0,1,1,0,2.81H7.026a4.216,4.216,0,1,0,0,8.431h4.216a1.405,1.405,0,0,1,0,2.81Zm9.836,0H16.862a1.405,1.405,0,0,1,0-2.81h4.216a4.216,4.216,0,0,0,0-8.431H16.862a1.405,1.405,0,1,1,0-2.81h4.216a7.026,7.026,0,0,1,0,14.052Z" transform="translate(0 0)"/><path class="b" d="M9.836,2.81H1.405a1.405,1.405,0,1,1,0-2.81H9.836a1.405,1.405,0,1,1,0,2.81Z" transform="translate(8.431 5.621)"/></g></svg>