<svg xmlns="http://www.w3.org/2000/svg" width="23.312" height="23.312" viewBox="0 0 23.312 23.312">
  <g id="cheetah" transform="translate(0.001)">
    <path id="Subtração_16" data-name="Subtração 16" d="M11011.644,15162.729h-17.977a2.671,2.671,0,0,1-2.668-2.667v-17.977a2.672,2.672,0,0,1,2.668-2.668h17.98a2.669,2.669,0,0,1,2.663,2.668v17.98A2.668,2.668,0,0,1,11011.644,15162.729Zm-15.549-20.887a2.671,2.671,0,0,0-2.668,2.667v13.129a2.671,2.671,0,0,0,2.668,2.667h13.124a2.682,2.682,0,0,0,2.676-2.663v-13.133a2.671,2.671,0,0,0-2.668-2.667Z" transform="translate(-10991 -15139.418)" fill="#6fb0ff"/>
    <path id="Caminho_811" data-name="Caminho 811" d="M120.667,134.512c.459-.046-.505,2.112-.418,2.224a6.51,6.51,0,0,0,.643-2.464.23.23,0,0,0-.459,0,4.984,4.984,0,0,1-.3,1.464c-.061.194-.133.383-.2.571-.02.056-.041.107-.066.163l-.015.036c-.066.158.051.423.26.337.372-.153.786-.709.658-.745.005.031.01-.036,0,.015a.382.382,0,0,0,0,.077c0,.066-.005.133-.01.2-.015.168-.046.332-.077.495-.087.454-.194.908-.306,1.357-.23.913-.485,1.821-.75,2.724-.061.2-.117.408-.184.607a.229.229,0,0,0,.219.291,4.536,4.536,0,0,0,1.949-.745l-.347-.2a3.183,3.183,0,0,1-.77,2.382.232.232,0,0,0,.281.362,6.588,6.588,0,0,1,1.372-.342,6.374,6.374,0,0,0,1.3-.408,4.47,4.47,0,0,0,2.372-2.688c-.138.02-.281.036-.418.056l.122.184a.232.232,0,0,0,.362.046c.311-.342.627-.684.918-1.041-.133-.056-.26-.107-.393-.163v.184a.233.233,0,0,0,.393.163c.311-.357.612-.724.9-1.107a4.246,4.246,0,0,1,.582-.729,2.386,2.386,0,0,1,.5-.337l-.337-.138.061.306c.051.25.367.184.444,0-.025.066.046-.087.061-.112a.643.643,0,0,1,.173-.2.894.894,0,0,1,.388-.158,4.918,4.918,0,0,1,1.495.255.99.99,0,0,0,.842-.168,1.086,1.086,0,0,0,.367-.964c-.02.056-.046.107-.066.163.255-.219.648-.617.525-.985a2.8,2.8,0,0,0-1.122-1.214l.107.26c.275-1.03-1.561-2.025-1.525-1.959v-.735a.231.231,0,0,0-.291-.219,4.448,4.448,0,0,0-.622.158,4.877,4.877,0,0,0-.515.2,1.175,1.175,0,0,0-.163.077s-.138.087-.046.051a.394.394,0,0,1-.077.01,5.679,5.679,0,0,0-1.163.49,7.987,7.987,0,0,1-2.393,1.574,5.8,5.8,0,0,1-2.729-.233,9.985,9.985,0,0,0-1.51.117C120.371,134.083,120.371,134.543,120.667,134.512Z" transform="translate(-114.459 -125.521)" fill="#0f7bff"/>
    <path id="Caminho_810" data-name="Caminho 810" d="M120.667,134.512a12.558,12.558,0,0,1,1.377-.122,5.684,5.684,0,0,1,1.133.173,3.469,3.469,0,0,0,2.148-.046,12.284,12.284,0,0,0,1.638-1.173,5.321,5.321,0,0,1,1.556-.786c.046-.01.107-.031.02-.01.224-.066.439-.194.663-.275a4.977,4.977,0,0,1,.806-.224c-.1-.071-.194-.148-.291-.219v.735a.227.227,0,0,0,.112.2,4.789,4.789,0,0,1,1.1.76.893.893,0,0,1,.332.877.233.233,0,0,0,.107.26,3.08,3.08,0,0,1,.781.719.587.587,0,0,1,.153.3c0-.061.02-.056-.036,0a.948.948,0,0,0-.107.168c-.082.1-.184.184-.265.281-.179.2-.015.515-.224.735-.189.194-.429.143-.668.092a7.1,7.1,0,0,0-1.255-.25,1.291,1.291,0,0,0-1.24.821h.444l-.061-.306a.233.233,0,0,0-.337-.138,3.166,3.166,0,0,0-1.138,1.082c-.286.4-.607.786-.934,1.163.133.056.26.107.393.163v-.184c0-.184-.26-.321-.393-.163-.291.362-.607.7-.918,1.041l.362.046-.122-.184a.232.232,0,0,0-.418.056,4.009,4.009,0,0,1-2.291,2.469c-.821.332-1.729.342-2.54.7.092.122.184.24.281.362a3.607,3.607,0,0,0,.9-2.709.233.233,0,0,0-.347-.2,4,4,0,0,1-1.714.678c.071.1.148.194.219.291a44.88,44.88,0,0,0,1.229-4.668,3.053,3.053,0,0,0,.092-1.051.232.232,0,0,0-.383-.1,2.37,2.37,0,0,1-.842.525l.26.337a6.51,6.51,0,0,0,.643-2.464.23.23,0,0,0-.459,0,4.984,4.984,0,0,1-.3,1.464c-.061.194-.133.383-.2.571-.02.056-.041.107-.066.163l-.015.036c-.066.158.051.423.26.337a2.97,2.97,0,0,0,1.041-.643c-.128-.036-.255-.066-.383-.1.005.031.01-.036,0,.015a.382.382,0,0,0,0,.077c0,.066-.005.133-.01.2-.015.168-.046.332-.077.495-.087.454-.194.908-.306,1.357-.23.913-.485,1.821-.75,2.724-.061.2-.117.408-.184.607a.229.229,0,0,0,.219.291,4.536,4.536,0,0,0,1.949-.745l-.347-.2a3.183,3.183,0,0,1-.77,2.382.232.232,0,0,0,.281.362,6.588,6.588,0,0,1,1.372-.342,6.374,6.374,0,0,0,1.3-.408,4.47,4.47,0,0,0,2.372-2.688c-.138.02-.281.036-.418.056l.122.184a.232.232,0,0,0,.362.046c.311-.342.627-.684.918-1.041-.133-.056-.26-.107-.393-.163v.184a.233.233,0,0,0,.393.163c.311-.357.612-.724.9-1.107a4.246,4.246,0,0,1,.582-.729,2.386,2.386,0,0,1,.5-.337l-.337-.138.061.306c.051.25.367.184.444,0-.025.066.046-.087.061-.112a.643.643,0,0,1,.173-.2.894.894,0,0,1,.388-.158,4.918,4.918,0,0,1,1.495.255.99.99,0,0,0,.842-.168,1.086,1.086,0,0,0,.367-.964c-.02.056-.046.107-.066.163.255-.219.648-.617.525-.985a2.8,2.8,0,0,0-1.122-1.214l.107.26c.275-1.03-.862-1.765-1.638-2.158.036.066.077.133.112.2v-.735a.231.231,0,0,0-.291-.219,4.448,4.448,0,0,0-.622.158,4.877,4.877,0,0,0-.515.2,1.175,1.175,0,0,0-.163.077s-.138.087-.046.051a.394.394,0,0,1-.077.01,5.679,5.679,0,0,0-1.163.49c-.673.383-1.229.9-1.862,1.331a2.479,2.479,0,0,1-1.979.23,9.883,9.883,0,0,0-1.28-.219,9.985,9.985,0,0,0-1.51.117C120.371,134.083,120.371,134.543,120.667,134.512Z" transform="translate(-114.459 -125.521)" fill="#1970d9"/>
  </g>
</svg>
