<svg xmlns="http://www.w3.org/2000/svg" width="30.618" height="25.329" viewBox="0 0 30.618 25.329">
  <g id="Grupo_4157" data-name="Grupo 4157" transform="translate(-30 -10)">
    <path id="Subtração_14" data-name="Subtração 14" d="M14.653,18.613H2.329A2.332,2.332,0,0,1,0,16.283V2.324A2.33,2.33,0,0,1,2.329,0H20.941a2.327,2.327,0,0,1,2.324,2.324V9.006a9,9,0,0,0-8.633,9c0,.205.007.41.021.609ZM3.314,3.117a.988.988,0,0,0-.521,1.826L10.4,9.7a2.3,2.3,0,0,0,2.463,0l7.609-4.758a.986.986,0,1,0-1.045-1.672l-7.8,4.873L3.84,3.271A.992.992,0,0,0,3.314,3.117Z" transform="translate(30 10)" fill="#bad9f7"/>
    <path id="Caminho_2952" data-name="Caminho 2952" d="M8.862,2a6.862,6.862,0,1,0,6.862,6.862A6.864,6.864,0,0,0,8.862,2Zm2.745,7.548H9.548v2.059a.686.686,0,0,1-1.372,0V9.548H6.117a.686.686,0,0,1,0-1.372H8.176V6.117a.686.686,0,0,1,1.372,0V8.176h2.059a.686.686,0,0,1,0,1.372Z" transform="translate(44.895 19.605)" fill="#0080fc"/>
  </g>
</svg>
