<svg xmlns="http://www.w3.org/2000/svg" width="25.855" height="25.141" viewBox="0 0 25.855 25.141">
  <g id="Grupo_4180" data-name="Grupo 4180" transform="translate(-1318 -19.749)">
    <path id="Caminho_2971" data-name="Caminho 2971" d="M-23663-3155.859V-3181l4.311,3.592,4.309-3.592,4.309,3.592,5.029-3.592,4.314,3.592,3.584-3.592v25.141Z" transform="translate(24981.002 3200.749)" fill="#0180fc"/>
    <path id="list" d="M.78,8.153a.78.78,0,1,1,0-1.561H13.955a.78.78,0,0,1,0,1.561Zm.2-3.3a.78.78,0,1,1,0-1.561H14.157a.78.78,0,1,1,0,1.561Zm0-3.3A.78.78,0,1,1,.984,0H14.157a.78.78,0,1,1,0,1.561Z" transform="translate(1323.117 29.959)" fill="#fff"/>
  </g>
</svg>
