<svg xmlns="http://www.w3.org/2000/svg" width="22.663" height="18.118" viewBox="0 0 22.663 18.118">
  <g id="classroom" transform="translate(0 0.216)">
    <path id="Fill_205" data-name="Fill 205" d="M19.865,15.187H1.5a1.5,1.5,0,0,1-1.5-1.5V0H21.364V13.688a1.5,1.5,0,0,1-1.5,1.5" transform="translate(0.649 2.715)" fill="#d3e0f0"/>
    <path id="Fill_207" data-name="Fill 207" d="M2.831,1.416A1.416,1.416,0,1,1,1.415,0,1.416,1.416,0,0,1,2.831,1.416" transform="translate(9.916 -0.216)" fill="#8aa1c2"/>
    <path id="Fill_208" data-name="Fill 208" d="M22.24,1.889H.423A.423.423,0,0,1,0,1.466V.423A.423.423,0,0,1,.423,0H22.24a.423.423,0,0,1,.423.423V1.466a.423.423,0,0,1-.423.423" transform="translate(0 1.063)" fill="#9ab3d5"/>
    <g id="Grupo_1" data-name="Grupo 1" transform="translate(1.987 5.856)">
      <path id="Fill_220" data-name="Fill 220" d="M0,1H8.686V0H0Z" transform="translate(0 0)" fill="#778aa7"/>
      <path id="Fill_222" data-name="Fill 222" d="M0,1H8.686V0H0Z" transform="translate(0 4.643)" fill="#778aa7"/>
      <path id="Fill_223" data-name="Fill 223" d="M0,1H4.072V0H0Z" transform="translate(0.001 6.963)" fill="#778aa7"/>
      <path id="Fill_221" data-name="Fill 221" d="M0,1H8.686V0H0Z" transform="translate(0 2.322)" fill="#778aa7"/>
    </g>
    <rect id="Retângulo_678" data-name="Retângulo 678" width="7" height="9" rx="1" transform="translate(12.5 5.163)" fill="#8aa1c2"/>
  </g>
</svg>
