<svg xmlns="http://www.w3.org/2000/svg" width="20.002" height="20.002" viewBox="0 0 20.002 20.002"><defs><style>.a{fill:#d3e0f0;}.b{fill:#9ab3d5;}.c{fill:#d4e0f0;}</style></defs><g transform="translate(-2 -2)"><path class="a" d="M7,6A1,1,0,0,1,6,5V3A1,1,0,1,1,8,3V5A1,1,0,0,1,7,6ZM17,6a1,1,0,0,1-1-1V3a1,1,0,1,1,2,0V5a1,1,0,0,1-1,1Z"/><path class="b" d="M19,4H18V5a1,1,0,0,1-2,0V4H8V5A1,1,0,0,1,6,5V4H5A3,3,0,0,0,2,7V9H22V7a3,3,0,0,0-3-3Z"/><path class="c" d="M18664.641,11370H18658a3,3,0,0,1-3-3v-10h20v3.9a7.98,7.98,0,0,0-2.5-.4,8.118,8.118,0,0,0-1.562.152,1,1,0,0,0-1.934.35,1.058,1.058,0,0,0,.039.282,8.014,8.014,0,0,0-3.342,3,.991.991,0,0,0-.7-.284,1,1,0,0,0-.1,1.992,7.987,7.987,0,0,0-.4,2.509,8.192,8.192,0,0,0,.141,1.5Zm-4.641-6a1,1,0,1,0,1,1A1,1,0,0,0,18660,11364Zm5-4a1,1,0,1,0,1,1A1,1,0,0,0,18665,11360Zm-5,0a1,1,0,1,0,1,1A1,1,0,0,0,18660,11360Z" transform="translate(-18653 -11348)"/></g></svg>