<svg xmlns="http://www.w3.org/2000/svg" width="16" height="15.997" viewBox="0 0 16 15.997">
  <path id="Caminho_590" data-name="Caminho 590" d="M12.488,12.026a4.332,4.332,0,0,0-2.826,7.948.753.753,0,0,1,.333.633h0a.757.757,0,0,1-.633.747,12.764,12.764,0,0,0-3.736,1.183A2.933,2.933,0,0,0,4.05,24.563,2.873,2.873,0,0,0,6.866,28H17.123a2.873,2.873,0,0,0,2.816-3.433,2.933,2.933,0,0,0-1.576-2.026,12.764,12.764,0,0,0-3.736-1.183.756.756,0,0,1-.633-.747.747.747,0,0,1,.333-.63,4.332,4.332,0,0,0-1.843-7.948Z" transform="translate(-3.995 -11.999)" fill="#969595"/>
</svg>
