<svg xmlns="http://www.w3.org/2000/svg" width="22.034" height="21.434" viewBox="0 0 22.034 21.434">
  <g id="Grupo_3282" data-name="Grupo 3282" transform="translate(-3658.61 -1910)">
    <path id="Caminho_486" data-name="Caminho 486" d="M228.351,196.129a1.631,1.631,0,0,0-1.651,1.607v1.755a1.631,1.631,0,0,0,1.651,1.607h.725a8.224,8.224,0,0,0,.725,1.708l-.515.5a1.578,1.578,0,0,0,0,2.273l1.272,1.238a1.685,1.685,0,0,0,2.336,0l.515-.5a8.715,8.715,0,0,0,1.756.705v.705a1.631,1.631,0,0,0,1.651,1.607h1.8a1.631,1.631,0,0,0,1.651-1.607v-.705a8.715,8.715,0,0,0,1.756-.705l.515.5a1.685,1.685,0,0,0,2.336,0l1.272-1.238a1.569,1.569,0,0,0,0-2.265l-.515-.5a8.224,8.224,0,0,0,.725-1.708h.725a1.631,1.631,0,0,0,1.651-1.607v-1.755a1.631,1.631,0,0,0-1.651-1.607h-.725a8.222,8.222,0,0,0-.725-1.708l.515-.5a1.578,1.578,0,0,0,0-2.273l-1.289-1.238a1.685,1.685,0,0,0-2.336,0l-.515.5a8.711,8.711,0,0,0-1.756-.705v-.705A1.631,1.631,0,0,0,238.6,187.9h-1.8a1.631,1.631,0,0,0-1.651,1.607v.705a8.711,8.711,0,0,0-1.756.705l-.515-.5a1.685,1.685,0,0,0-2.336,0l-1.272,1.238a1.578,1.578,0,0,0,0,2.273l.515.5a8.224,8.224,0,0,0-.725,1.708h-.709Z" transform="translate(3431.91 1722.1)" fill="#8da5c6" opacity="0.196"/>
    <path id="Caminho_395" data-name="Caminho 395" d="M308.324,274.089a4.7,4.7,0,1,0-4.824-4.694A4.769,4.769,0,0,0,308.324,274.089Zm0-7.476a2.775,2.775,0,1,1-2.851,2.774A2.819,2.819,0,0,1,308.324,266.612Z" transform="translate(3361.295 1651.301)" fill="#8da5c6"/>
  </g>
</svg>
