<svg xmlns="http://www.w3.org/2000/svg" width="11.361" height="17.663" viewBox="0 0 11.361 17.663">
  <path id="Caminho_2951" data-name="Caminho 2951" d="M19.81,10.233a.631.631,0,0,1-.6.158,2.522,2.522,0,1,0,0,4.874.63.63,0,0,1,.608.154l2.39,2.39a.813.813,0,0,1,.2.763A2.522,2.522,0,1,0,24.3,16.68a.813.813,0,0,1-.763-.2l-2.4-2.393a.631.631,0,0,1-.154-.608,2.522,2.522,0,0,0,0-1.3.631.631,0,0,1,.154-.618l2.39-2.39a.813.813,0,0,1,.763-.2,2.516,2.516,0,1,0-1.9-1.892.813.813,0,0,1-.2.763Z" transform="translate(-16.039 -3.996)" fill="#fff"/>
</svg>
