<svg xmlns="http://www.w3.org/2000/svg" width="20" height="20" viewBox="0 0 20 20">
  <g id="Grupo_3300" data-name="Grupo 3300" transform="translate(-238.072 -351.197)">
    <path id="Caminho_545" data-name="Caminho 545" d="M15.728,22H8.272a1,1,0,0,1-.707-.293L2.293,16.435A1,1,0,0,1,2,15.728V8.272a1,1,0,0,1,.293-.707L7.565,2.293A1,1,0,0,1,8.272,2h7.456a1,1,0,0,1,.707.293l5.272,5.272A1,1,0,0,1,22,8.272v7.456a1,1,0,0,1-.293.707l-5.272,5.272A1,1,0,0,1,15.728,22Z" transform="translate(236.072 349.197)" fill="#ffc5d2"/>
    <circle id="Elipse_182" data-name="Elipse 182" cx="1" cy="1" r="1" transform="translate(247.151 364.197)" fill="#ff4872"/>
    <path id="Caminho_551" data-name="Caminho 551" d="M12,14a1,1,0,0,1-1-1V9a1,1,0,0,1,2,0v4A1,1,0,0,1,12,14Z" transform="translate(236.151 348.197)" fill="#ff4872"/>
  </g>
</svg>
