<svg xmlns="http://www.w3.org/2000/svg" width="22.159" height="20" viewBox="0 0 22.159 20">
  <g id="Grupo_3301" data-name="Grupo 3301" transform="translate(-301.072 -349.197)">
    <path id="Caminho_547" data-name="Caminho 547" d="M20.057,22H3.943a3.023,3.023,0,0,1-2.618-4.534L9.382,3.511a3.023,3.023,0,0,1,5.235,0l8.057,13.955A3.023,3.023,0,0,1,20.057,22Z" transform="translate(300.151 347.197)" fill="#ffd7ca"/>
    <circle id="Elipse_181" data-name="Elipse 181" cx="1" cy="1" r="1" transform="translate(311.151 363.197)" fill="#ef4411"/>
    <path id="Caminho_548" data-name="Caminho 548" d="M12,14a1,1,0,0,1-1-1V9a1,1,0,0,1,2,0v4A1,1,0,0,1,12,14Z" transform="translate(300.151 347.197)" fill="#ef4411"/>
  </g>
</svg>
