<svg xmlns="http://www.w3.org/2000/svg" width="29.777" height="19" viewBox="0 0 29.777 19">
  <g id="subscribers_-_hover" data-name="subscribers - hover" transform="translate(-11.342 -15.592)">
    <path id="Caminho_526" data-name="Caminho 526" d="M10.5,13.143A4.071,4.071,0,1,0,6.429,9.071,4.054,4.054,0,0,0,10.5,13.143Zm0,2.714c-3.162,0-9.5,1.588-9.5,4.75V24H20V20.607C20,17.445,13.662,15.857,10.5,15.857Z" transform="translate(10.342 10.592)" fill="#0f7bff"/>
    <path id="Caminho_2723" data-name="Caminho 2723" d="M21.357,13.143a4.071,4.071,0,1,0-4.071-4.071A4.054,4.054,0,0,0,21.357,13.143Zm0,2.714c-.394,0-.841.027-1.316.068a5.727,5.727,0,0,1,2.674,4.682V24h8.143V20.607C30.857,17.445,24.519,15.857,21.357,15.857Z" transform="translate(10.262 10.592)" fill="#6daefd"/>
  </g>
</svg>
