<svg xmlns="http://www.w3.org/2000/svg" width="18" height="18" viewBox="0 0 18 18"><defs><style>.a{fill:#d2e0f0;}.b{fill:#9ab3d5;}.c{fill:#fff;}.d{fill:#dfe8f4;}</style></defs><path class="a" d="M7.358,15.75h0A7.884,7.884,0,0,1,7.862,0,7.881,7.881,0,0,1,15.7,7.306a6.056,6.056,0,0,0-2.327-.77,5.755,5.755,0,0,0-2.707-3.6,15.409,15.409,0,0,1,.659,3.7,6.133,6.133,0,0,0-3.6,2.338H6.571a14.827,14.827,0,0,0,.222,1.85,6.184,6.184,0,0,0,.564,4.922ZM2.292,8.977a5.733,5.733,0,0,0,2.763,3.851,15.452,15.452,0,0,1-.672-3.851Zm5.57-6.76c-.333.239-1.121,1.722-1.291,4.572H9.153c-.173-2.822-.945-4.3-1.292-4.572Zm-2.806.722a5.7,5.7,0,0,0-2.763,3.85H4.384A15.379,15.379,0,0,1,5.056,2.938Z"/><circle class="b" cx="5.345" cy="5.345" r="5.345" transform="translate(7.31 7.31)"/><path class="c" d="M38.568,30.876h0a.278.278,0,0,1-.278-.278V27.561a.281.281,0,0,1,.278-.281h0a.281.281,0,0,1,.281.281V30.6a.278.278,0,0,1-.281.278Z" transform="translate(-25.92 -18.38)"/><path class="d" d="M38.378,37.6a.7.7,0,1,1-.7-.7.7.7,0,0,1,.7.7Z" transform="translate(-25.024 -24.953)"/><path class="d" d="M41.609,38.295H39.19V36.9h2.419a.693.693,0,0,1,.683.7h0A.7.7,0,0,1,41.609,38.295Z" transform="translate(-26.535 -24.953)"/></svg>