<svg xmlns="http://www.w3.org/2000/svg" width="19.714" height="12.545" viewBox="0 0 19.714 12.545">
  <path id="Caminho_2962" data-name="Caminho 2962" d="M14.442,10.377a2.688,2.688,0,1,0-2.688-2.688A2.677,2.677,0,0,0,14.442,10.377Zm-7.169,0A2.688,2.688,0,1,0,4.584,7.688,2.677,2.677,0,0,0,7.273,10.377Zm0,1.792C5.185,12.169,1,13.217,1,15.305v2.24H13.545v-2.24C13.545,13.217,9.361,12.169,7.273,12.169Zm7.169,0c-.26,0-.556.018-.869.045a3.781,3.781,0,0,1,1.765,3.092v2.24h5.377v-2.24C20.714,13.217,16.53,12.169,14.442,12.169Z" transform="translate(-1 -5)" fill="#9ab3d5"/>
</svg>
