<svg xmlns="http://www.w3.org/2000/svg" width="16.597" height="16.642" viewBox="0 0 16.597 16.642">
  <g id="international_time_clock_zone_change" data-name="international, time, clock, zone, change" transform="translate(0)">
    <path id="Subtração_23" data-name="Subtração 23" d="M8.3,0a8.321,8.321,0,1,0,8.3,8.321A8.31,8.31,0,0,0,8.3,0Zm5.88,7.166H11.965a16.237,16.237,0,0,0-.7-4.065,6.051,6.051,0,0,1,2.917,4.065ZM8.3,14.3c-.4-.313-1.192-1.957-1.363-4.826H9.662C9.486,12.345,8.7,13.989,8.3,14.3ZM6.936,7.166C7.107,4.3,7.9,2.627,8.3,2.34c.4.313,1.187,1.957,1.363,4.826ZM5.337,3.1a16.237,16.237,0,0,0-.709,4.065H2.419A6.015,6.015,0,0,1,5.337,3.1ZM2.419,9.476H4.627a16.318,16.318,0,0,0,.709,4.065A6.051,6.051,0,0,1,2.419,9.476Zm8.842,4.065a16.318,16.318,0,0,0,.7-4.065h2.213a6.051,6.051,0,0,1-2.917,4.065Z" fill="#d2e0f0"/>
  </g>
</svg>
