<svg id="zoom" xmlns="http://www.w3.org/2000/svg" width="18.44" height="18.521" viewBox="0 0 18.44 18.521">
  <rect id="Ret창ngulo_757" data-name="Ret창ngulo 757" width="18.44" height="18.521" rx="6" fill="#9ab3d5"/>
  <path id="Caminho_2692" data-name="Caminho 2692" d="M1254.089,480.754c-.335.224-1.613,1.1-1.809,1.869a11.5,11.5,0,0,0-.028,1.9c.065.531,1.407,1.428,1.734,1.718a.356.356,0,0,0,.636-.2c.033-.263,0-4.748,0-4.922S1254.425,480.529,1254.089,480.754Z" transform="translate(-1240.292 -474.269)" fill="#fff"/>
  <path id="Ret창ngulo_756" data-name="Ret창ngulo 756" d="M2,0H3.545a4,4,0,0,1,4,4v.036a2,2,0,0,1-2,2H4a4,4,0,0,1-4-4V2A2,2,0,0,1,2,0Z" transform="translate(3.773 6.449)" fill="#fff"/>
</svg>
